/* XPM */
static char *result[] = {
/* columns rows colors chars-per-pixel */
"60 60 197 2 ",
"   c #03040C",
".  c #040612",
"X  c #060813",
"o  c #0A0B15",
"O  c #0D0E18",
"+  c #0E101E",
"@  c #14151E",
"#  c #18171F",
"$  c #151622",
"%  c #161925",
"&  c #1B1C25",
"*  c #161B2A",
"=  c #1A1D2B",
"-  c #161729",
";  c #1C1E31",
":  c #201F29",
">  c #1E212C",
",  c #1D2132",
"<  c #1D2139",
"1  c #23232D",
"2  c #232433",
"3  c #262935",
"4  c #2A2A32",
"5  c #21263B",
"6  c #252A3B",
"7  c #2A2C3A",
"8  c #302F38",
"9  c #2D313E",
"0  c #33333C",
"q  c #49323B",
"w  c #2A2D45",
"e  c #242B44",
"r  c #2D3243",
"t  c #2A324C",
"y  c #323443",
"u  c #363945",
"i  c #3A3A45",
"p  c #353A49",
"a  c #3C3D4B",
"s  c #353545",
"d  c #2D3652",
"f  c #2E3958",
"g  c #323A55",
"h  c #353D5B",
"j  c #383F51",
"k  c #413A43",
"l  c #4B3C4A",
"z  c #523E49",
"x  c #553940",
"c  c #633D45",
"v  c #3E404C",
"b  c #3C4253",
"n  c #36405C",
"m  c #3B455A",
"M  c #3E495C",
"N  c #364155",
"B  c #2F4165",
"V  c #3B4563",
"C  c #3D4A63",
"Z  c #35456B",
"A  c #3A4769",
"S  c #3D4A6C",
"D  c #344569",
"F  c #3F5066",
"G  c #3C4C72",
"H  c #42424C",
"J  c #4A424E",
"K  c #5D444E",
"L  c #424554",
"P  c #464856",
"I  c #4B4B55",
"U  c #424659",
"Y  c #424A5C",
"T  c #4C4C5C",
"R  c #4C4751",
"E  c #594753",
"W  c #4E505B",
"Q  c #53525D",
"!  c #72525E",
"~  c #614A54",
"^  c #434D63",
"/  c #4B4D60",
"(  c #424E6B",
")  c #544E60",
"_  c #445164",
"`  c #4C5165",
"'  c #45536A",
"]  c #4B556B",
"[  c #4E596E",
"{  c #545264",
"}  c #5A5463",
"|  c #555569",
" . c #595569",
".. c #555A6D",
"X. c #5C5B6B",
"o. c #595B64",
"O. c #424E70",
"+. c #435174",
"@. c #4C5B73",
"#. c #445479",
"$. c #4B5B7D",
"%. c #4A5777",
"&. c #525D73",
"*. c #5C5C71",
"=. c #545F7A",
"-. c #6B5462",
";. c #61576A",
":. c #635B6B",
">. c #685968",
",. c #7E5563",
"<. c #735966",
"1. c #7A5A67",
"2. c #765E6D",
"3. c #7D5D6B",
"4. c #745663",
"5. c #625E75",
"6. c #6C5E73",
"7. c #6E5F78",
"8. c #745E72",
"9. c #5F6275",
"0. c #54637B",
"q. c #5C647C",
"w. c #536177",
"e. c #61616A",
"r. c #6B6075",
"t. c #65637A",
"y. c #6C637C",
"u. c #676777",
"i. c #726378",
"p. c #776175",
"a. c #74747F",
"s. c #AC352F",
"d. c #B2342E",
"f. c #B2382F",
"g. c #AF3B36",
"h. c #A43E3E",
"j. c #AB3D3B",
"k. c #AD3731",
"l. c #B23732",
"z. c #C23126",
"x. c #A6413E",
"c. c #9B3F42",
"v. c #89494E",
"b. c #89474E",
"n. c #9E4244",
"m. c #94444A",
"M. c #99474B",
"N. c #99474A",
"B. c #8D4B55",
"V. c #8C4E5A",
"C. c #874B57",
"Z. c #934B53",
"A. c #924E58",
"S. c #994A50",
"D. c #84505D",
"F. c #8B525D",
"G. c #A54344",
"H. c #A94443",
"J. c #A2484B",
"K. c #845663",
"L. c #8A5561",
"P. c #825864",
"I. c #835B69",
"U. c #80606E",
"Y. c #4C5D81",
"T. c #515F80",
"R. c #546584",
"E. c #566885",
"W. c #5B6985",
"Q. c #56678A",
"!. c #59678A",
"~. c #566C8C",
"^. c #5A6C8C",
"/. c #5B6785",
"(. c #5D708F",
"). c #5A6E90",
"_. c #566F90",
"`. c #5D7091",
"'. c #696580",
"]. c #656B84",
"[. c #6B6983",
"{. c #706882",
"}. c #62718D",
"|. c #7D7C87",
" X c #627191",
".X c #817D89",
"XX c #8C8B95",
"oX c #888591",
"OX c #8F8E96",
"+X c #9E9CA9",
"@X c #A09EA8",
"#X c #A3A3AC",
"$X c #ACAAB4",
"%X c #A8A6B2",
"&X c #B5B4BF",
"*X c #B9B7C2",
"=X c None",
/* pixels */
"=X=X=X=X=X=X=X=X=X=X=X=X=X=X=X=X=X=X=X=X=X=X=X=X=X=XX =X=X=X=X=X=X=X=X=X=X=X=X=X=X=X=X=X=X=X=X=X=X=X=X=X=X=X=X=X=X=X=X=X",
"=X=X=X=X=X=X=X=X=X=X=X=X=X=X=X=X=X=X=X=X=X=X& 1 1 b ^ / / T / / ^ ^ b 1 1 1 =X=X=X=X=X=X=X=X=X=X=X=X=X=X=X=X=X=X=X=X=X=X",
"=X=X=X=X=X=X=X=X=X=X=X=X=X=X=X=X=X=XoX0 4 p ] d n R.).{.S.H.H.A.[.).0.g g ] 7 @ % =X=X=X=X=X=X=X=X=X=X=X=X=X=X=X=X=X=X=X",
"=X=X=X=X=X=X=X=X=X=X=X=X=X=X=X$X+XJ a { ) &.(.S #.^.~.y.n.f.f.M.y.~.^.G +.(.&.} / b J @X$X=X=X=X=X=X=X=X=X=X=X=X=X=X=X=X",
"=X=X=X=X=X=X=X=X=X=X=X=X=X=XoXi r { ! ,.D.].~.~.A +.0.9.1.P.,.2.9.0.' G !.~.'.C.I.4.) r H =X=X=X=X=X=X=X=X=X=X=X=X=X=X=X",
"=X=X=X=X=X=X=X=X=X=X=X=X=X0 , ] 0.p.n.v.D.t.0.0.h , > = = ; ; > = = < V 0.w.t.V.v.m.i.R._ ; 6 =X=X=X=X=X=X=X=X=X=X=X=X=X",
"=X=X=X=X=X=X=X=X=X=X=X=XL t +.^.~.r.A.p.} U * = = =X=X=X=X=X=X=X=X=X=X$ & , T ;.2.B.i._.!.S w I =X=X=X=X=X=X=X=X=X=X=X=X",
"=X=X=X=X=X=X=X=X=X=X=XI ] ~.Z #._.W.{ I 1 =X=X=X=X=X=X=X=X=X=X=X=X=X=X=X=X=X@ % Y  .W.~.+.G ~._ Q =X=X=X=X=X=X=X=X=X=X=X",
"=X=X=X=X=X=X=X=X=X=XI / ].^.~.A ( Y & 0 =X=X=X=X=X=X=X=X=X=X=X=X=X=X=X=X=X=X=X=X1 3 _ F S ~.^.].U L =X=X=X=X=X=X=X=X=X=X",
"=X=X=X=X=X=X=X=X=XI W p.,.t.W.M i =X=X=X=X=X=X=X=X=X=X=X=X=X=X=X=X=X=X=X=X=X=X=X=X=X0 y ^ W.t.K.p.T a =X=X=X=X=X=X=X=X=X",
"=X=X=X=X=X=X=X=XT | I.j.k.3._ i =X=X=X=X=X=X=X=X=X=X=X=X=X=X=X=X=X=X=X=X=X=X=X=X=X=X=X=X7 ` I.k.H.I.) T =X=X=X=X=X=X=X=X",
"=X=X=X=X=X=X=XI T U.j.z.H.E p =X=X=X=X=X=X=X=X=X=X=X=X=X=X=X=X=X=X=X=X=X=X=X=X=X=X=X=X=X=X6 ~ H.d.H.p.L T =X=X=X=X=X=X=X",
"=X=X=X=X=X=XI _ [.F.d.G.x Q =X=X=X=X=X=X=X=X=X=X=X=X=X=X=X=X=X=X=X=X=X=X=X=X=X=X=X=X=X=X=X=Xk c H.d.P.].^ W =X=X=X=X=X=X",
"=X=X=X=X=Xa t (.W.7.P.z R =X=X=X=X=X=X=X=X=X=X=X=X=X=X=X=X=X=X=X=X=X=X=X=X=X=X=X=X=X=X=X=X=X=Xk K K.7.W.^.t y =X=X=X=X=X",
"=X=X=X=X|.e ( G ~.W.` H =X=X=X=X=X=X=X=X=X=X=X=X=X=X=X=X=X=X=X=X=X=X=X=X=X=X=X=X=X=X=X=X=X=X=X=X7 ] W.R.G S = =X=X=X=X=X",
"=X=X=X=X0 ] R.G +.M p =X=X=X=X=X=X=X=X=X=X=X=X=X=X=X=X=X=X=X=X=X=X=X=X=X=X=X=X=X=X=X=X=X=X=X=X=X=Xu ^ ( O.~.` b %X=X=X=X",
"=X=X=Xa.* R.~.~.n a =X=X=X=X=X=X=X=X=X=X=X=X=X=X=X=X=X=X=X=X=X=X=X=X=X=X=X=X=X=X=X=X=X=X=X=X=X=X=X=XH V Q.~.R.6 @X=X=X=X",
"=X=X=Xp  .p.y.W.m =X=X=X=X=X=X=X=X=X=X=X=X=X=X=X=X=X=X=X=X=X=X=X=X=X=X=X=X=X=X=X=X=X=X=X=X=X=X=X=X=Xv ^ W.y.i.{ T =X=X=X",
"=X=XXXp 1.m.D.T W =X=X=X=X=X=X=X=X=X=X=X=X=X=X=X=X=X=X=X=X=X=X=X=X=X=X=X=X=X=X=X=X=X=X=X=X=X=X=X=X=X=Xi | V.m.<.a OX=X=X",
"=X=X7 X.F.b.7.L Q =X=X=X=X=X=X=X=X=X=X=X=X=X=X=X=X=X=X=X=X=X=X=X=X=X=X=X=X=X=X=X=X=X=X=X=X=X=X=X=X=X=X8 U 2.b.K.{ : =X=X",
"=X=X1 >.B.V.T u =X=X=X=X=X=X=X=X=X=X=X=X=X=X=X=X=X=X=X=X=X=X=X=X=X=X=X=X=X=X=X=X=X=X=X=X=X=X=X=X=X=X=X=X@ } B.C.} O =X=X",
"=X=Xa =.'.t.P 4 =X=X=X=X=X=X=X=X=X=X=X=X=X=X=X=X=X=X=X=X=X=X=X=X=X=X=X=X=X=X=X=X=X=X=X=X=X=X=X=X=X=X=X=XO Y t.[.&.7 =X=X",
"=XX ..~._.' > =X=X=X=X=X=X=X=X=X=X=X=X=X=X=X=X=X=X=X=X=X=X=X=X=X=X=X=X=X=X=X=X=X=X=X=X=X=X=X=X=X=X=X=X=X=X> @.~.^.] $ =X",
"=X  h #._.] O =X=X=X=X=X=X=X=X=X=X=X=X=X=X=X=X=X=X=X=X=X=X=X=X=X=X=X=X=X=X=X=X=X=X=X=X=X=X=X=X=X=X=X=X=X=X% 0.!.#.h @ =X",
"=X  g G G d X =X=X=X=X=X=X=X=X=X=X=X=X=X=X=X=X=X=X=X=X=X=X=X=X=X=X=X=X=X=X=X=X=X=X=X=X=X=X=X=X=X=X=X=X=X=XO V G G f $ =X",
"=Xp R.~.A w e.=X=X=X=X=X=X=X=X=X=X=X=X=X=X=X=X=X=X=X=X=X=X=X=X=X=X=X=X=X=X=X=X=X=X=X=X=X=X=X=X=X=X=X=X=X=Xo.5 A ).0.p =X",
"O @.^.^.=.H *X=X=X=X=X=X=X=X=X=X=X=X=X=X=X=X=X=X=X=X=X=X=X=X=X=X=X=X=X=X=X=X=X=X=X=X=X=X=X=X=X=X=X=X=X=X=X$Xr q.^.).] =X",
"=X&.[.[.*.a *X=X=X=X=X=X=X=X=X=X=X=X=X=X=X=X=X=X=X=X=X=X=X=X=X=X=X=X=X=X=X=X=X=X=X=X=X=X=X=X=X=X=X=X=X=X=X%X7 9.[.[.' =X",
"=X .B.Z.-.a &X=X=X=X=X=X=X=X=X=X=X=X=X=X=X=X=X=X=X=X=X=X=X=X=X=X=X=X=X=X=X=X=X=X=X=X=X=X=X=X=X=X=X=X=X=X=X#X7 <.S.V.` =X",
"=X .x.j.-.a &X=X=X=X=X=X=X=X=X=X=X=X=X=X=X=X=X=X=X=X=X=X=X=X=X=X=X=X=X=X=X=X=X=X=X=X=X=X=X=X=X=X=X=X=X=X=X=X6 1.l.G./ =X",
"=X .x.g.! v &X=X=X=X=X=X=X=X=X=X=X=X=X=X=X=X=X=X=X=X=X=X=X=X=X=X=X=X=X=X=X=X=X=X=X=X=X=X=X=X=X=X=X=X=X=X=X=X7 ,.l.G.{ =X",
"=X .M.n.-.v &X=X=X=X=X=X=X=X=X=X=X=X=X=X=X=X=X=X=X=X=X=X=X=X=X=X=X=X=X=X=X=X=X=X=X=X=X=X=X=X=X=X=X=X=X=X=X=X3 <.G.S./ =X",
"=X&.y.y...a &X=X=X=X=X=X=X=X=X=X=X=X=X=X=X=X=X=X=X=X=X=X=X=X=X=X=X=X=X=X=X=X=X=X=X=X=X=X=X=X=X=X=X=X=X=X=X@X7 5.i.'./ =X",
"=X@.~.~.@.l *X=X=X=X=X=X=X=X=X=X=X=X=X=X=X=X=X=X=X=X=X=X=X=X=X=X=X=X=X=X=X=X=X=X=X=X=X=X=X=X=X=X=X=X=X=X=X$X8 0.~._.' =X",
"=XY R.^.( t |.=X=X=X=X=X=X=X=X=X=X=X=X=X=X=X=X=X=X=X=X=X=X=X=X=X=X=X=X=X=X=X=X=X=X=X=X=X=X=X=X=X=X=X=X=X=X|.e O.^.R.M =X",
"=XX C G Z d O =X=X=X=X=X=X=X=X=X=X=X=X=X=X=X=X=X=X=X=X=X=X=X=X=X=X=X=X=X=X=X=X=X=X=X=X=X=X=X=X=X=X=X=X=X=X& g A +.V & =X",
"=X  g G Q.' o =X=X=X=X=X=X=X=X=X=X=X=X=X=X=X=X=X=X=X=X=X=X=X=X=X=X=X=X=X=X=X=X=X=X=X=X=X=X=X=X=X=X=X=X=X=X& &.Q.Z d # =X",
"=X  &.^.).' & =X=X=X=X=X=X=X=X=X=X=X=X=X=X=X=X=X=X=X=X=X=X=X=X=X=X=X=X=X=X=X=X=X=X=X=X=X=X=X=X=X=X=X=X=X=X6 @.).`.@.# =X",
"=XH b q.[.9.b i =X=X=X=X=X=X=X=X=X=X=X=X=X=X=X=X=X=X=X=X=X=X=X=X=X=X=X=X=X=X=X=X=X=X=X=X=X=X=X=X=X=X=X=X0 P t.].0.p =X=X",
"=X=X3 ;.D.,./ 4 =X=X=X=X=X=X=X=X=X=X=X=X=X=X=X=X=X=X=X=X=X=X=X=X=X=X=X=X=X=X=X=X=X=X=X=X=X=X=X=X=X=X=X=X@ | D.! } $ =X=X",
"=X=X4 *.F.v.r.b } =X=X=X=X=X=X=X=X=X=X=X=X=X=X=X=X=X=X=X=X=X=X=X=X=X=X=X=X=X=X=X=X=X=X=X=X=X=X=X=X=X=XH b 2.v.K.| : =X=X",
"=X=Xo.p K.h.F./ v =X=X=X=X=X=X=X=X=X=X=X=X=X=X=X=X=X=X=X=X=X=X=X=X=X=X=X=X=X=X=X=X=X=X=X=X=X=X=X=X=X=X4 { A.n.,.l .X=X=X",
"=X=X=Xy :.8.r.W.b =X=X=X=X=X=X=X=X=X=X=X=X=X=X=X=X=X=X=X=X=X=X=X=X=X=X=X=X=X=X=X=X=X=X=X=X=X=X=X=X=XI Y W.y.8. .a =X=X=X",
"=X=X=XoX6 E.~.^.m 6 =X=X=X=X=X=X=X=X=X=X=X=X=X=X=X=X=X=X=X=X=X=X=X=X=X=X=X=X=X=X=X=X=X=X=X=X=X=X=X=XI ^ ^.~.E.r XX=X=X=X",
"=X=X=X=X2 w.^.+.S p v =X=X=X=X=X=X=X=X=X=X=X=X=X=X=X=X=X=X=X=X=X=X=X=X=X=X=X=X=X=X=X=X=X=X=X=X=X=XL m A #.W.&.3 =X=X=X=X",
"=X=X=X=Xu.w +.S ~.W.M ` =X=X=X=X=X=X=X=X=X=X=X=X=X=X=X=X=X=X=X=X=X=X=X=X=X=X=X=X=X=X=X=X=X=X=X=XQ C W.~.Z +., =X=X=X=X=X",
"=X=X=X=X=X7 d ^.^.y.1.J Q =X=X=X=X=X=X=X=X=X=X=X=X=X=X=X=X=X=X=X=X=X=X=X=X=X=X=X=X=X=X=X=X=X=X:.E 1.t.^.!.t 7 =X=X=X=X=X",
"=X=X=X=X=X=Xy @.].F.f.J.q Q =X=X=X=X=X=X=X=X=X=X=X=X=X=X=X=X=X=X=X=X=X=X=X=X=X=X=X=X=X=X=X=XR x N.k.P.].] I =X=X=X=X=X=X",
"=X=X=X=X=X=X=Xu | I.g.z.M.l W =X=X=X=X=X=X=X=X=X=X=X=X=X=X=X=X=X=X=X=X=X=X=X=X=X=X=X=X=X=Xo.z J.z.j.3.` a =X=X=X=X=X=X=X",
"=X=X=X=X=X=X=X=Xa  .K.g.d.3.M a =X=X=X=X=X=X=X=X=X=X=X=X=X=X=X=X=X=X=X=X=X=X=X=X=X=X=X=XQ ^ K.f.j.P.{ p =X=X=X=X=X=X=X=X",
"=X=X=X=X=X=X=X=Xp ' ].P.V.r.W.b v =X=X=X=X=X=X=X=X=X=X=X=X=X=X=X=X=X=X=X=X=X=X=X=X=XI a m W.r.B.I.].^ u =X=X=X=X=X=X=X=X",
"=X=X=X=XH H H L '  X' ] '.Q.~.S g b T e.=X=X=X=X=X=X=X=X=X=X=X=X=X=X=X=X=X=X=X=Xe.o.N g +.~.W.[.^ ] ^.^ a H H I =X=X=X=X",
"=X=X=XL Y Y g d }.M p a @.).S G ^.W.Y Y i 4 =X=X=X=X=X=X=X=X=X=X=X=X=X=X=X=X0 H m ^ W.^.G G (.( y 3 _ }.t N M U P =X=X=X",
"=X=XI e W.^.~.+.f 2 =X=X6 g +.~.~.y.F.6.T u o O O =X=X=X=X=X=X=X=X=X=XX o O a T 7.L.y.~.Q.( g u =X=Xb f +.~.^.R.w P =X=X",
"=Xp ^ #.Z Q.~.W.t =X=X=X=X- < 0.~.p.c.v.K.*._ _ t y p i i p u i i i w d _ _ t.F.b.c.i.~.@.5 2 =X=X=XH N ^.~.R.Z %.^ P =X",
"8 e R.^.#.Z R.^.m =X=X=X=X=X2 t B *.L.F.V.].~.).A S &.| -.! ! -. .&.A G ).~.t.B.L.P.*.B e y =X=X=X=X9 _ ^.Y.Z $.!.$.5 2 ",
"4 ( Z $.!.#.G /.N =X=X=X=X=Xy @.@.> y 9.:.q.`.G O.).~.{.M.j.h.Z.[.^.^.G G `.q.>.9.r 2 =.' b =X=X=X=X> ^ /.D $.).Y.Z ^ $ ",
"4 [ R.D Y.).#.e H =X=X=X=X2 ` ^.] 1 =X% % p w.h V W.~.y.S.j.j.Z.[.^.R.h V w.r = % =X> @.^.Y & =X=X=X=Xy w %.!.Y.Z Q.( + ",
"4 ( ~.Y.D $.M & =X=X=X=X=XO ] R.9 =X=X=X=X=XX X X m @.&.X.;.;.X.&.0.N X X o =X=X=X=X=X2 W.Y   =X=X=X=X=X& ( $.D T.!.V $ ",
"0 f !. X!.d 1 =X=X=X=X=X=X& &.].u =X=X=X=X=X=X=X=X=XO =X=X=X=X=X=X=X=X=X=X=X=X=X=X=X=Xr }.] & =X=X=X=X=X=X6 g ^. XR.d 2 "
};
