/* XPM */
static char *result[] = {
/* columns rows colors chars-per-pixel */
"30 30 73 1 ",
"  c #AB7C01",
". c #AF8001",
"X c #B38401",
"o c #B78801",
"O c #BC8D01",
"+ c #BF9001",
"@ c #C49501",
"# c #C79800",
"$ c #CB9B00",
"% c #C7A002",
"& c #CDA201",
"* c #D4A401",
"= c #D8A701",
"- c #D3AC01",
"; c #DCAC01",
": c #D4B301",
"> c #DBB402",
", c #DCBA02",
"< c #DEBF0F",
"1 c #E0AF01",
"2 c #E3B302",
"3 c #E8B700",
"4 c #E4BC02",
"5 c #ECBB01",
"6 c #DEC204",
"7 c #E3C202",
"8 c #EDC101",
"9 c #E5C902",
"0 c #E9CD02",
"q c #E8CA0A",
"w c #F4C301",
"e c #F8C702",
"r c #F2CC01",
"t c #FECD01",
"y c #EDD302",
"u c #EDD20A",
"i c #F4D302",
"p c #FDD401",
"a c #F5DD01",
"s c #FEDB01",
"d c #F3D30C",
"f c #FED60D",
"g c #ECCF1A",
"h c #FFD310",
"j c #F0DB1B",
"k c #FDE301",
"l c #F7E907",
"z c #FDEB02",
"x c #FBE30A",
"c c #FEF301",
"v c #FFFB00",
"b c #FEFA08",
"n c #FFED11",
"m c #FEE71E",
"M c #FEFE1D",
"N c #E9CF22",
"B c #F6DC2C",
"V c #F8D334",
"C c #FFFC26",
"Z c #FEEC3B",
"A c #FEFA3E",
"S c #EFD747",
"D c #EDD44C",
"F c #FDED43",
"G c #FCEC49",
"H c #FFF251",
"J c #FFFF66",
"K c #FDEE7E",
"L c #FFF877",
"P c #FFFC85",
"I c #FFF58F",
"U c #FFFB8A",
"Y c None",
/* pixels */
"YYYYYYYYYYYrpasptwwYYYYYYYYYYY",
"YYYYYYYYYppmZnzzkspteYYYYYYYYY",
"YYYYYYYpxZUIGxkaassppt5YYYYYYY",
"YYYYY7azHPS<:::::&*4ttw52YYYYY",
"YYYY7izzd::9jlzzz0=@@55552YYYY",
"YYY;0zk7-qGUJbzaidpe1O#135;YYY",
"YYY2ak,:BLPAzky6&2tttw@o=32YYY",
"YY;4p7:kCMzksay7O2pttt5OO=2*YY",
"Y=282$kvvzssdDf8O2httte1X#==YY",
"Y*;3O>vvkssiNVp5O2tttt55$ $*$Y",
"Y*=*+lvspsp0>3t5O2tttw552 O*$Y",
"$$$X:vktpe9,@4p5O2ptw5555# $$@",
"*#@ ycppt4,*;gf5O2te55555= O$@",
"*@OXyktttteeeDf5O;55555551 X$#",
"*@XX90etttpttdp3O=5555555;  @#",
"*@X 4855wwww50p3@;w555552* X@$",
"$@X =35555553yp3O;55555;;& .@@",
"#@o $15555w530p3O;5553;;;# .@@",
"@@X @*3555553yp2O=531;;>*o X@@",
"Y#o  **3558550p3O*;;;1;=$  o$Y",
"Y@@X O$*;33320p2O$;;;=*$O X@$Y",
"Y@@X  @$$$=;;9p;O*;;=*$@  X@YY",
"YY#OX  $$$$$$7t;@@&$$$$  XO#YY",
"YYY$XX  @$$$$4w=o@$$$@. Xo#YYY",
"YYY@@XX  O#$$&*@O@$@o  XX@@YYY",
"YYYY@@XX   o++@@@@o   XoO@YYYY",
"YYYYY@@OXX.        ..Xo@@YYYYY",
"YYYYYYY@OoXXXX.. XXXoO@YYYYYYY",
"YYYYYYYYY@@OOoooXoO@@YYYYYYYYY",
"YYYYYYYYYYY@@@@@@$@YYYYYYYYYYY"
};
