/* XPM */
static char *result[] = {
/* columns rows colors chars-per-pixel */
"60 60 197 2 ",
"   c #1F1B12",
".  c #1E1818",
"X  c #221D15",
"o  c #1D231E",
"O  c #2A281D",
"+  c #1E2622",
"@  c #1F2825",
"#  c #2D2626",
"$  c #242825",
"%  c #2C2A23",
"&  c #252D2B",
"*  c #2A2B29",
"=  c #222722",
"-  c #352B2B",
";  c #382F2E",
":  c #302827",
">  c #2C322A",
",  c #3B3926",
"<  c #31362C",
"1  c #39322D",
"2  c #33382E",
"3  c #3B382F",
"4  c #2D3633",
"5  c #3C3433",
"6  c #323936",
"7  c #3C3F35",
"8  c #363D3A",
"9  c #383F3B",
"0  c #4E3E1E",
"q  c #473C22",
"w  c #403737",
"e  c #413C34",
"r  c #443C3B",
"t  c #3D4234",
"y  c #36403E",
"u  c #3D433C",
"i  c #634719",
"p  c #6A4D1C",
"a  c #714C14",
"s  c #775117",
"d  c #594A2B",
"f  c #454136",
"g  c #4C4935",
"h  c #444639",
"j  c #4A433C",
"k  c #4D4D3C",
"l  c #42483E",
"z  c #5E4F31",
"x  c #514E3D",
"c  c #4D513F",
"v  c #53513E",
"b  c #59553D",
"n  c #5F5D3D",
"m  c #6F5024",
"M  c #715124",
"N  c #785726",
"B  c #7A5B29",
"V  c #695B35",
"C  c #615E3E",
"Z  c #6D5F39",
"A  c #645435",
"S  c #7B5D34",
"D  c #735D36",
"F  c #65603F",
"G  c #7A6536",
"H  c #75633A",
"J  c #3B4442",
"K  c #3E4846",
"L  c #474040",
"P  c #4B4443",
"I  c #434B42",
"U  c #4C4B43",
"Y  c #4D4848",
"T  c #434C4A",
"R  c #514D45",
"E  c #524C4C",
"W  c #504747",
"Q  c #4D5141",
"!  c #48514F",
"~  c #535443",
"^  c #565A45",
"/  c #595D45",
"(  c #55514C",
")  c #53594C",
"_  c #5A5D49",
"`  c #5A5647",
"'  c #495250",
"]  c #565251",
"[  c #595555",
"{  c #555B53",
"}  c #5D5C54",
"|  c #5D5758",
" . c #5E5B5B",
".. c #615E5E",
"X. c #605E54",
"o. c #5B6047",
"O. c #5D624B",
"+. c #5F6251",
"@. c #636144",
"#. c #61654E",
"$. c #6B674C",
"%. c #6D694C",
"&. c #6B6545",
"*. c #746A4B",
"=. c #796E4B",
"-. c #736747",
";. c #7F7148",
":. c #626651",
">. c #666A55",
",. c #696C56",
"<. c #63635C",
"1. c #6A6D5A",
"2. c #67685D",
"3. c #756F52",
"4. c #6E725D",
"5. c #73735C",
"6. c #797258",
"7. c #797457",
"8. c #666565",
"9. c #6B6C61",
"0. c #686666",
"q. c #6E7162",
"w. c #727563",
"e. c #757966",
"r. c #7D7A62",
"t. c #75766A",
"y. c #777A69",
"u. c #7A7D6D",
"i. c #777C74",
"p. c #7B7E70",
"a. c #865C1D",
"s. c #855F27",
"d. c #8D6425",
"f. c #8D6629",
"g. c #8F6A2D",
"h. c #83632B",
"j. c #906626",
"k. c #916728",
"l. c #956B2C",
"z. c #986E2E",
"x. c #8C6A31",
"c. c #836734",
"v. c #976F33",
"b. c #9C7233",
"n. c #9A753A",
"m. c #9C793D",
"M. c #967134",
"N. c #A07736",
"B. c #A17836",
"V. c #A37A39",
"C. c #A87E3E",
"Z. c #A17738",
"A. c #897243",
"S. c #85754B",
"D. c #987843",
"F. c #81785B",
"G. c #887955",
"H. c #947E56",
"J. c #9A7D56",
"K. c #A37E47",
"L. c #7D806F",
"P. c #7E8172",
"I. c #7D8179",
"U. c #AC803F",
"Y. c #9C8353",
"T. c #9B835C",
"R. c #AC8243",
"E. c #A58149",
"W. c #AB844A",
"Q. c #AF884B",
"!. c #B58B4C",
"~. c #B3894A",
"^. c #A28654",
"/. c #A68A57",
"(. c #A98A55",
"). c #A48958",
"_. c #AA8B59",
"`. c #B28D53",
"'. c #B88F51",
"]. c #BB9154",
"[. c #B79259",
"{. c #BC9458",
"}. c #B59056",
"|. c #878167",
" X c #828575",
".X c #84877A",
"XX c #868A7B",
"oX c #888C7E",
"OX c #878876",
"+X c #948C70",
"@X c #B09260",
"#X c #A09578",
"$X c #C09659",
"%X c #8A8E81",
"&X c #8E9183",
"*X c #929589",
"=X c None",
/* pixels */
"=X=X=X=X=X=X=X=X=X=X=X=X=X=X=X=X=X=X=X=X=X=X=X=X=X=X=X=X=X=X=X=X=X=X=X=X=X=X=X=X=X=X=X=X=X=X=X=X=X=X=X=X=X=X=X=X=X=X=X=X",
"=X=X=X=X=X=X=X=X=X=X=X=X=X=X=X=X=X=X=X=X=X=X=X=Xt.p.p.u.u.t.9.=X=X=X=X=X=X=X=X=X=X=X=X=X=X=X=X=X=X=X=X=X=X=X=X=X=X=X=X=X",
"=X=X=X=X=X=X=X=X=X=X=X=X=X=X=X=X=X=X=X=X=X=Xt.u.u.u.u.u.4.>.t.q.=X=X=X=X=X=X=X=X=X=X=X=X=X=X=X=X=X=X=X=X=X=X=X=X=X=X=X=X",
"=X=X=X=X=X=X=X=X=X=X=X=X=X=X=X=X=X=X=X=X=Xw.u.u.u.u.u.p.4.o.:.,.} =X=X=X=X=X=X=X=X=X=X=X=X=X=X=X=X=X=X=X=X=X=X=X=X=X=X=X",
"=X=X=X=X=X=X=X=X=X=X=X=X=X=X=X=X=X=X=X=Xt.u.u.u.u.u.u.u.u.#.o.^ =X=X=X=X=X=X=X=X=X=X=X=X=X=X=X=X=X=X=X=X=X=X=X=X=X=X=X=X",
"=X=X=X=X=X=X=X=X=X=X=X=X=X=X=X=X=X=X=X=Xy.p.u.u.u.u.u.u.y.#.^ =X=X=X=X=X=X=X=X=X=X=X=X=X=X=X=X=X=X=X=X=X=X=X=X=X=X=X=X=X",
"=X=X=X=X=X=X=X=X=X=X=X=X=X=X=X=X=X=X=Xp.9.w.p.u.u.u.u.u.L.#.^ =X=X=X=X=X=X=X=X=X=X=X=X=X=X=X=X=X=X=X=X=X=X=X=X=X=X=X=X=X",
"=X=X=X=X=X=X=X=X=X=X=X=X=X=X=X=X=X=X=Xt.r j } t.u.u.u.u.u.:./ _ =X=X=X=X=X=X=X=X=X=X=X=X=X=X=X=X=X=X=X=X=X=X=X=X=X=X=X=X",
"=X=X=X=X=X=X=X=X=X=X=X=X=X=X=X=X=X=X=XP ; - - W t.u.u.u.u.:./ ^ =X=X=X=X=X=X=X=X=X=X=X=X=X=X=X=X=X=X=X=X=X=X=X=X=X=X=X=X",
"=X=X=X=X=X=X=X=X=X=X=X=X=X=X=X=X=X=X=X- - - - - ( u.u.u.y.#./ ^ =X=X=X=X=X=X=X=X=X=X=X=X=X=X=X=X=X=X=X=X=X=X=X=X=X=X=X=X",
"=X=X=X=X=X=X=X=X=X=X=X=X=X=X=X=X=X=X=X=X- - - - U u.u.u.,./ / / j =X=X=X=X=X=X=X=X=X=X=X=X=X=X=X=X=X=X=X=X=X=X=X=X=X=X=X",
"=X=X=X=X=X=X=X=X=X=X=X=X=X=X=X=X=X=X=X=X=X- - - 5 2.u.u.,./ / x r L r r r w =X=X=X=X=X=X=X=X=X=X=X=X=X=X=X=X=X=X=X=X=X=X",
"=X=X=X=X=X=X=X=X=X=X=X=X=X=X=X=X=X=X=X=X1 - - - - X.u.4.O./ k f Y E E E  .Y 5 =X=X=X=X=X=X=X=X=X=X=X=X=X=X=X=X=X=X=X=X=X",
"=X=X=X=X=X=X=X=X=X=X=X=X=X=X=X=X=X=X; 1 f 5 - ; ` w.#.o.o.^ e E [ 8. .W | W 5 =X=X=X=X=X=X=X=X=X=X=X=X=X=X=X=X=X=X=X=X=X",
"=X=X=X=X=X=X=X=X=X=X=X=X=X=X=X=X=X; P W e ~ 5 w w.#./ / / k r | 8.8. .| [ W - - =X=X=X=X=X=X=X=X=X=X=X=X=X=X=X=X=X=X=X=X",
"=X=X=X=X=X=X=X=X=X=X=X=X=X=X=X=X; W ..[ R / ^ w.p.w.w.w.w.j P  .0. .r r | [ ; - =X=X=X=X=X=X=X=X=X=X=X=X=X=X=X=X=X=X=X=X",
"=X=X=X=X=X=X=X=X=X=X=X=X=X=X=X# r ..| E ^ / / #.OX&Xp.u.u.R E 0.0. .- - w ] w w 5 =X=X=X=X=X=X=X=X=X=X=X=X=X=X=X=X=X=X=X",
"=X=X=X=X=X=X=X=X=X=X=X=X=X=X=X5 ] ..R ^ / / / g / u.%Xu.u.2.] ..0...! 5 - w 9 P L # =X=X=X=X=X=X=X=X=X=X=X=X=X=X=X=X=X=X",
"=X=X=X=X=X=X=X=X=X=X=X=X=X=X=Xw ..[ ` / / >.) , d 2 I.P.u.u.2. .0.8.0. .[ ....[ [ 5 =X=X=X=X=X=X=X=X=X=X=X=X=X=X=X=X=X=X",
"=X=X=X=X=X=X=X=X=X=X=X=X=X=X=X5 [ ( ^ / O.u.{ g A % i..Xu.u.u.2.+.2.0.0.8.....E P r =X=X=X=X=X=X=X=X=X=X=X=X=X=X=X=X=X=X",
"=X=X=X=X=X=X=X=X=X=X=X=X=X=X=X# r R / / #.y.{ k -.< { %Xp.u.u.u.>._ :.} j r r w 3 R ~ =X=X=X=X=X=X=X=X=X=X=X=X=X=X=X=X=X",
"=X=X=X=X=X=X=X=X=X=X=X=X=X=X=X=X=Xe ^ _ 5.u.{ x *.8 6 .Xp.u.u.u.w.w.>._ ~ f 1 h v / ^ =X=X=X=X=X=X=X=X=X=X=X=X=X=X=X=X=X",
"=X=X=X=X=X=X=X=X=X=X=X=X=X=X=X=X=X=X=X/ q.t.) x *.r 6 i.%X Xu.u.u.u.u.t.w.#.O.:.O./ / ~ =X=X=X=X=X=X=X=X=X=X=X=X=X=X=X=X",
"=X=X=X=X=X=X=X=X=X=X=X=X=X=X=X=X=X=X=X^ #.4.Q k *.l & 9 oX*XoXoXXX.Xu.u.u.u.y.u.e.,.>./ c =X=X=X=X=X=X=X=X=X=X=X=X=X=X=X",
"=X=X=X=X=X=X=X=X=X=X=X=X=X=X=X=X=X=X=X_ O.4.c v -.3 @ > :.%XXX%X*X*XXXP.L.u.L.u.u.L.y.O./ ~ ^ =X=X=X=X=X=X=X=X=X=X=X=X=X",
"=X=X=X=X=X=X=X=X=X=X=X=X=X=X=X=X=X=X=X/ >.y.c T.K.q + < _  XP.w.,.4.OX.X&XP.P.P.u.L.L.y.:.O.w.2.=X=X=X=X=X=X=X=X=X=X=X=X",
"=X=X=X=X=X=X=X=X=X=X=X=X=X=X=X=X=X=X=XV %.L.b ).W.q O < _  XP.u.y.o.o.O.y.L.L.&XXXXX&Xw./ o.4.u.=X=X=X=X=X=X=X=X=X=X=X=X",
"=X=X=X=X=X=X=X=X=X=X=X=X=X=X=X=X=X=XN B %.+XY.[.'.D.d , ^  XoXu.>.o.o.o.o.^ o.4.5.4.4.O.>.4.w.u.q.=X=X=X=X=X=X=X=X=X=X=X",
"=X=X=X=X=X=X=X=X=X=X=X=X=X=X=X=X=XN d.s.-.#X[.{.].(.H O h q.&Xw.:.w.e.#./ =X/ / ^ o.4.w.u.u.u.4.O.=X=X=X=X=X=X=X=X=X=X=X",
"=X=X=X=X=X=X=X=X=X=X=X=X=X=X=XS M.z.n.n.*. X3./.R.A t = t t.&Xu.u.u.u.4._ =X=X/ o.o.4.u.u.u.u.u.1._ =X=X=X=X=X=X=X=X=X=X",
"=X=X=X=X=X=X=X=X=X=X=X=X=X=XS Q.!.V.V.m.-.4.@._.W.z y = t +.XXu.u.u.u.y.O.^ =X=Xo.@.o.%.,.e.u.u.t._ =X=X=X=X=X=X=X=X=X=X",
"=X=X=X=X=X=X=X=X=X=X=X=X=XS Q.!.V.V.V.D.F.P.5.).R.z y @ t :.oXP.u.u.u.u.:.^ =X=XT.^.(._.S.%.7.r.w._ =X=X=X=X=X=X=X=X=X=X",
"=X=X=X=X=X=X=X=X=X=X=X=X=XK.].V.V.n.z.g.7.oX7._.W.z 9 @ < _ P.&XP.L.u.u.5.o.o.Y.E.R.{.$X{.}.`.Y.@./ _ =X=X=X=X=X=X=X=X=X",
"=X=X=X=X=X=X=X=X=X=X=X=X=XM.'.R.V.k.s i 6.P.5.^.E.z J 4 + k :. X%XL.u.u.5.o.S.E.U.].{.].!.~.C.!.Y.S.=X=X=X=X=X=X=X=X=X=X",
"=X=X=X=X=X=X=X=X=X=X=X=X=XM b.~.U.z.a i 5.L.,.^ x 7 8 8 > c w.4.4.L.e.>.#.;.E.R.~.R.{.'.b.j.n.V.U.W.J.=X=X=X=X=X=X=X=X=X",
"=X=X=X=X=X=X=X=X=X=X=X=X=Xs.a.k.V.V.g.p *.XXw.e e # O X   c y.y.e.,.$.=.G m.U.R.{.!.~.z.a.j.B.V.V.V.D.=X=X=X=X=X=X=X=X=X",
"=X=X=X=X=X=X=X=X=X=X=X=XT.W.V.V.j.j.b.B F  X5.e j j w     x y.L.e.$.Y.~.k.U.V.z.].!.z.a.j.V.V.V.V.d.m =X=X=X=X=X=X=X=X=X",
"=X=X=X=X=X=X=X=X=X=X=X=X=X[.R.z.d.z.k.B |.P.#.t e W e %   k y.L.,.;.`.B.z.Q.z.a.V.V.a.j.V.B.V.b.f.M =X=X=X=X=X=X=X=X=X=X",
"=X=X=X=X=X=X=X=X=X=X=X=X=XJ.K.b.n.z.d.H OX4.^ u u J J 6 O Q e.y.%./.Q.B.k.!.'.z.a.a.j.b.B.V.B.j.m =X=X=X=X=X=X=X=X=X=X=X",
"=X=X=X=X=X=X=X=X=X=X=X=X=X=XJ.`.V.z.M.G.L.O.o.T T J J 8 + Q t.u.5.A.M.B.j.z.U.B.a.a.j.B.V.V.g.m =X=X=X=X=X=X=X=X=X=X=X=X",
"=X=X=X=X=X=X=X=X=X=X=X=X=X=X=X=X_.W.A.r.p.1.^ I T J J y > c y.L.e.H l.B.j.b.l.a.j.d.a.z.B.g.m =X=X=X=X=X=X=X=X=X=X=X=X=X",
"=X=X=X=X=X=X=X=X=X=X=X=X=X=X=X=X=X$.5.y.u.,.^ Q ' K J J 4 c e.y.$.c.b.V.j.z.a.k.V.n.j.b.d.M =X=X=X=X=X=X=X=X=X=X=X=X=X=X",
"=X=X=X=X=X=X=X=X=X=X=X=X=X=X=X=X=X>.P.i.w.o./ l K ' K y & Q y.,.F E.U.U.l.a.j.z.z.V.N.g.M =X=X=X=X=X=X=X=X=X=X=X=X=X=X=X",
"=X=X=X=X=X=X=X=X=X=X=X=X=X=X=X=X=X>.u.u.w.:.:.I J K 6 & + Q y.4.@.).].U.B.l.d.d.d.j.d.M =X=X=X=X=X=X=X=X=X=X=X=X=X=X=X=X",
"=X=X=X=X=X=X=X=X=X=X=X=X=X=X=X=XO.y.%Xy.:.1.>.I J y * * = Q t.y.>.=.D.m.R.R.V.V.b.h.M =X=X=X=X=X=X=X=X=X=X=X=X=X=X=X=X=X",
"=X=X=X=X=X=X=X=X=X=X=X=X=X=X=X=XO.t.XXP.4.t.>.I y & * ; % ~ y.L.y.>.o.x.V.V.~.R.l.S =X=X=X=X=X=X=X=X=X=X=X=X=X=X=X=X=X=X",
"=X=X=X=X=X=X=X=X=X=X=X=X=X=X=X=X+.t.P.XXP.u.>.l & $ - - - ~ u..XL.y.5.$.V G x.h.Z =X=X=X=X=X=X=X=X=X=X=X=X=X=X=X=X=X=X=X",
"=X=X=X=X=X=X=X=X=X=X=X=X=X=X=X=Xy.u.u.4.XXL.>.u * - - - - ~ w.e.P.L.L.e.#./ C n / =X=X=X=X=X=X=X=X=X=X=X=X=X=X=X=X=X=X=X",
"=X=X=X=X=X=X=X=X=X=X=X=X=X=X=X=Xq.p.L.4.u. X>.u * - - - - ~ w.$.P.P.u.u.e.O.o.o./ =X=X=X=X=X=X=X=X=X=X=X=X=X=X=X=X=X=X=X",
"=X=X=X=X=X=X=X=X=X=X=X=X=X=X=X=X_ 2.y.y.>.y.4.6 $ - - - - ~ y.1..XP.u.u.L.4.o./ / =X=X=X=X=X=X=X=X=X=X=X=X=X=X=X=X=X=X=X",
"=X=X=X=X=X=X=X=X=X=X=X=X=X=X=X=X` ^ >.e.4.4.4.> =X=X- - - k >.,.L.XXP.u.L.y.4.O./ =X=X=X=X=X=X=X=X=X=X=X=X=X=X=X=X=X=X=X",
"=X=X=X=X=X=X=X=X=X=X=X=X=X=X=X=X=X^ o.O.>.o.^ 3 =X=X=X: - 1 +.,.o.>.P.P.y.L.P.#./ ~ =X=X=X=X=X=X=X=X=X=X=X=X=X=X=X=X=X=X",
"=X=X=X=X=X=X=X=X=X=X=X=X=X=X=X=X=X=X=Xf ^ / / k =X=X=X=X=X=X#.w.O./ >.P.oXoXy.O._ _ =X=X=X=X=X=X=X=X=X=X=X=X=X=X=X=X=X=X",
"=X=X=X=X=X=X=X=X=X=X=X=X=X=X=X=X=X=X=X- 1 f ~ / =X=X=X=X=X=X:.e.#.o.^ $.>.:./ ~ ~ =X=X=X=X=X=X=X=X=X=X=X=X=X=X=X=X=X=X=X",
"=X=X=X=X=X=X=X=X=X=X=X=X=X=X=X=X=X=X5 ; w L f U =X=X=X=X=X=X_ O.o.^ ~ k h 1 1 ; =X=X=X=X=X=X=X=X=X=X=X=X=X=X=X=X=X=X=X=X",
"=X=X=X=X=X=X=X=X=X=X=X=X=X=X=X=X=XW r L 8.0.E =X=X=X=X=X=X=X=XQ =X=X=X- - - - - =X=X=X=X=X=X=X=X=X=X=X=X=X=X=X=X=X=X=X=X",
"=X=X=X=X=X=X=X=X=X=X=X=X=X=X=X=XP P w [ 8...w =X=X=X=X=X=X=X=X=X=X=X[ L P 5 5 Y =X=X=X=X=X=X=X=X=X=X=X=X=X=X=X=X=X=X=X=X",
"=X=X=X=X=X=X=X=X=X=X=X=X=X=X+.| L P  . .E P 5 =X=X=X=X=X=X=X=X=X=X+...[ E L [ 0.0.=X=X=X=X=X=X=X=X=X=X=X=X=X=X=X=X=X=X=X",
"=X=X=X=X=X=X=X=X=X=X=X=X=X- P W Y Y P w w ; ; =X=X=X=X=X=X=X=X=X; P [ 8.0. .Y Y Y =X=X=X=X=X=X=X=X=X=X=X=X=X=X=X=X=X=X=X",
"=X=X=X=X=X=X=X=X=X=X=X=X=X=X. =X=X=X=X=X=X=X=X=X=X=X=X=X=X=X=X=X=X=X=X=X=X=X=X. =X=X=X=X=X=X=X=X=X=X=X=X=X=X=X=X=X=X=X=X"
};
