/* XPM */
static char *_852331356cd4e43cc609235e3f5cbc040fIMCq7QTsO14tz[] = {
/* columns rows colors chars-per-pixel */
"30 30 89 1 ",
"  c None",
". c #9F7100",
"X c #A17300",
"o c #AB7C00",
"O c #AF8000",
"+ c #B28400",
"@ c #B78800",
"# c #BB8C00",
"$ c #BF9000",
"% c #C39400",
"& c #C69900",
"* c #CB9C00",
"= c #C1940D",
"- c #C7A100",
"; c #CCA100",
": c #D2A300",
"> c #D6AA00",
", c #DBAB00",
"< c #DDAF09",
"1 c #D4B300",
"2 c #DAB700",
"3 c #DBB901",
"4 c #D4A711",
"5 c #D5AA19",
"6 c #DBBA18",
"7 c #E3B300",
"8 c #E5B900",
"9 c #ECBC00",
"0 c #E4C300",
"q c #EAC400",
"w c #EBCB00",
"e c #EBCF0F",
"r c #F3C300",
"t c #F4CA00",
"y c #FDCD00",
"u c #F7C80A",
"i c #EED200",
"p c #F3D301",
"a c #FDD500",
"s c #F4DC01",
"d c #FDDD01",
"f c #F2D408",
"g c #FFDF10",
"h c #F7DA1D",
"j c #F7E100",
"k c #FDE501",
"l c #FEEC00",
"z c #FEE10B",
"x c #FEF100",
"c c #FFFC00",
"v c #F6E415",
"b c #FFE210",
"n c #FBE91D",
"m c #FFFD17",
"M c #F5DC2D",
"N c #ECCF36",
"B c #EBD034",
"V c #F1D235",
"C c #FDDA36",
"Z c #FDE725",
"A c #FFEE28",
"S c #FFEA2E",
"D c #FFFC25",
"F c #FFF62A",
"G c #FBF12F",
"H c #F9F73C",
"J c #FFFE38",
"K c #EECD44",
"L c #F2D343",
"P c #F3DE4C",
"I c #FEDB4D",
"U c #FFF940",
"Y c #F8F249",
"T c #FFF14B",
"R c #FFE857",
"E c #FFF351",
"W c #FFFF53",
"Q c #FCFB54",
"! c #FEF15C",
"~ c #F4D86F",
"^ c #FCEC77",
"/ c #F4E67C",
"( c #FFF277",
") c #FFFF73",
"_ c #FFFA7E",
"` c #FFFE8D",
"' c #FFF990",
"] c #FDF4AF",
"[ c #FFF5CD",
/* pixels */
"          paaat98,,,          ",
"       tazSAllkayyrrtr        ",
"      pzT'(njsjddayr9yat      ",
"     pkE^B31111;>ray9wGUY     ",
"    wklf22evlxlw:#>r99NQWH    ",
"   8slq1e!`Jxspayr&#>89ills   ",
"  >qkw1M_)FZw1>yyyy:+>87ryy9  ",
"  ,tp1sDmlbPp:*yyyyy&#>7>998  ",
" >7r*wcclgR]C4*yyyyr8+&>>>77> ",
" >7>&lckdh/[I5*yyyyr9*+:>>77, ",
" :>#0ckaaw6~y:*yyyy998+%:*,77 ",
"**&#kxyyq2=Ky:*yyyr999%+&&,77>",
":&#&xdyq3:<Vy:*yyr9999:o%&>77,",
":%+;layyyyuLy:*r999999>o#&*>>:",
":%O-iryyyytfy:&9999999>o+&%%%#",
":$o&q99rrr9py:&9999998:o+&%%%$",
"*%o#7999998iy:&999997,*o+&%%%#",
"&%++>999998iy*&99987,,%o+&%%%#",
"&%+O:799998iy*&997,,,>#o#&%%%#",
" &+o&>79998iy*&7,,,,>&oo#&%%% ",
" &#o+*:,897iy*%,,,,>*#o+%$### ",
" &%+o#&&:>>wr*&,,>:*&oo#&+++O ",
"  &@oo&*&**wr*%:;*&&+o+%#++O  ",
"  &%+oo&*&&q9&#&&&&@o+#&+++o  ",
"   &#+oo#&&::#$&&&+o++%#++O   ",
"    &#+ooO#%&&%%+oo++$#++O    ",
"     &#++oooooooo+++##++O     ",
"      &$+++++o++++#%@ooO      ",
"        &%##+++##$@oXX        ",
"          &&&&%#+oX.          "
};
