/* XPM */
static char *d239934059394089d16d27cb55c31ba3hn6T4OOV89EleoEB[] = {
/* columns rows colors chars-per-pixel */
"6 30 81 1 ",
"  c #D5A500",
". c #E0B000",
"X c #E0B100",
"o c #E0B000",
"O c #D5A600",
"+ c #ECBB00",
"@ c #ECBB00",
"# c #F1C500",
"$ c #F1C500",
"% c #F2E638",
"& c #F2E738",
"* c #F3EE47",
"= c #F3EF48",
"- c #F4DF00",
"; c #F4E000",
": c #F4C400",
"> c #F5C400",
", c #E3B300",
"< c #E3B300",
"1 c #DCAC00",
"2 c #DCAC00",
"3 c #DCAC00",
"4 c #DCAD00",
"5 c #DDAD00",
"6 c #DDAD00",
"7 c #DDAD00",
"8 c #DDAD00",
"9 c #DEAE00",
"0 c #DEAE00",
"q c #D3A300",
"w c #D3A300",
"e c #BF9000",
"r c #BF9000",
"t c #BF9000",
"y c #BF9000",
"u c #BF9000",
"i c #BF9000",
"p c #BF9000",
"a c #B98B00",
"s c #B98B00",
"d c #AF8100",
"f c #AF8100",
"g c #AE8000",
"h c #AF8100",
"j c #AE8000",
"k c #AE8000",
"l c #AE8000",
"z c #AE8000",
"x c #AE8000",
"c c #AE8000",
"v c #AE8000",
"b c #AE8000",
"n c #AB7D00",
"m c #AC7E00",
"M c #A17300",
"N c #A27400",
"B c #A07200",
"V c None",
"C c #A07200",
"Z c #A07200",
"A c #FAC900",
"S c #FFD300",
"D c #FFF83E",
"F c #FFFF54",
"G c #FFEE00",
"H c #FFCE00",
"J c #FECE00",
"K c #EABA00",
"L c #E2B200",
"P c #E3B300",
"I c #D7A700",
"U c #C19200",
"Y c #BC8D00",
"T c #BB8D00",
"R c #B08200",
"E c #AC7E00",
"W c #AD7F00",
"Q c #AE8000",
"! c #A17300",
"~ c #A27400",
"^ c white",
/* pixels */
" .XXoO",
"+AAAA@",
"#SSSS$",
"%DDDD&",
"*FFFF=",
"-GGGG;",
":HJJH>",
",KKKK<",
"1LLLL2",
"3LLLL4",
"5LLLL6",
"7LLLL8",
"9PPPP0",
"qIIIIw",
"eUUUUr",
"eUUUUr",
"eUUUUr",
"tUUUUy",
"uUUUUt",
"iUUUUp",
"aYTTYs",
"dRRRRf",
"gRRRRh",
"jRRRRk",
"lRRRRz",
"xRRRRc",
"vRRRRb",
"nEWWQm",
"M!!!~N",
"BVCCVZ"
};
