/* XPM */
static char *_2f99bd73f4d43cce1ce83e566f672049lN4B5e2hpfx0UfI[] = {
/* columns rows colors chars-per-pixel */
"30 30 92 1 ",
"  c None",
". c #AB7C00",
"X c #AF8000",
"o c #B38400",
"O c #B78800",
"+ c #BC8D00",
"@ c #BF9000",
"# c #C49500",
"$ c #C79800",
"% c #CB9C00",
"& c #C7A000",
"* c #CCA200",
"= c #D4A400",
"- c #D6A800",
"; c #DCAC00",
": c #D4B300",
"> c #DCB300",
", c #DDBA00",
"< c #DFBF0D",
"1 c #E3B300",
"2 c #E8B700",
"3 c #E5BC00",
"4 c #ECBC00",
"5 c #DFC200",
"6 c #E3C201",
"7 c #EDC100",
"8 c #E5C900",
"9 c #EACD00",
"0 c #E8CA08",
"q c #F3C300",
"w c #F1CD00",
"e c #FECD00",
"r c #EDD200",
"t c #EED208",
"y c #F4D400",
"u c #FDD400",
"i c #F6DD00",
"p c #FEDD00",
"a c #F4D30B",
"s c #FFD50D",
"d c #EDD018",
"f c #F1DB19",
"g c #F6E000",
"h c #FBE700",
"j c #FEE400",
"k c #FFE400",
"l c #FEE500",
"z c #FFE600",
"x c #F9E506",
"c c #FCE201",
"v c #F9E900",
"b c #FEEA00",
"n c #FFEA00",
"m c #FFEB00",
"M c #FFEB01",
"N c #FFE902",
"B c #FBEF00",
"V c #FFED00",
"C c #FCEF00",
"Z c #F8E905",
"A c #FFED05",
"S c #FEE10A",
"D c #FFEE0F",
"F c #FFF000",
"G c #FFF201",
"H c #FFF700",
"J c #FFF900",
"K c #FFFB00",
"L c #FFFC00",
"P c #FFFB07",
"I c #FFE71D",
"U c #FFFE1C",
"Y c #EAD020",
"T c #F6DD2C",
"R c #F9D332",
"E c #FFFC27",
"W c #FFED3B",
"Q c #FFFB3C",
"! c #EFD24A",
"~ c #EDD54B",
"^ c #F0D845",
"/ c #FFEF40",
"( c #FCEB46",
") c #FDED47",
"_ c #FFF353",
"` c #FFFF64",
"' c #FDEE7D",
"] c #FFF878",
"[ c #FFFF83",
"{ c #FFF986",
"} c #FFF68F",
"| c #FFFB8B",
/* pixels */
"           wyyyyeqq           ",
"        wypIWDVbjueeq         ",
"       yS/{})xgicppuue4       ",
"     6yb_'^<:::::*=4eeq4>     ",
"    6yVba::8fZVVvr-##4q441    ",
"   ;9bj6:0(|`PFiyuue;+#;44;   ",
"   1ij,:T][QAcy5*1eeeq#+;11   ",
"  ;2u6:cEUFcpyr7+1eeee4++;1=  ",
" -171&iLLbppa~s4+1eeeeq;o#;-% ",
" -;4+,KKjppyYRu4+1eeee44%.%-% ",
" =-%+hKpuuy9>4u4+1eeeq441o+=% ",
"%%%O:Kjeee8,@3u4+1eeq4444#.%%#",
"=%#XrHuee3,=;du4+1eq44444-.+%#",
"=#+orceeeeeee!s4+;q444444;.O%$",
"=#OX8wqeeeeeetu4+;4444444;.o#%",
"=#oX,444qqqq4ru4+;4444441-.X#%",
"%#o.-444444449u4+;444441;%.o#$",
"$#O.%144444449u2+;4441;;;#.o##",
"##O.@-14444449u1+-41;;;;-+.O##",
" $O.X=-1444449u1+=1;;;;-%..+# ",
" $+o.+%=;14419u1+%;;;;-%+.o@$ ",
" ##O..#%%*-;;8u;+%;;-%%#..O#  ",
"  $+o.X$%%%%%6e;+%=%%%$X.o+$  ",
"   #Oo.X#%%%%3q-+#%%%#X.o+#   ",
"   ##Oo..+%%%=-#+#%%+..oO##   ",
"    ##Oo...+#####@+...oO##    ",
"     ##+oo..........ooO##     ",
"       #@OooooXXooooO+#       ",
"         ##++OOOO++##         ",
"           ########           "
};
