/* XPM */
static char *f56ce99458b347c1a3bc056ef05867dagXJOwbf1q7bB5gew[] = {
/* columns rows colors chars-per-pixel */
"27 30 104 2 ",
"   c None",
".  c #9F7100",
"X  c #A17300",
"o  c #AB7D00",
"O  c #AF8000",
"+  c #B28300",
"@  c #B78800",
"#  c #BC8D00",
"$  c #BF9000",
"%  c #C29300",
"&  c #C79900",
"*  c #CB9C00",
"=  c #CDA200",
"-  c #D3A400",
";  c #D8A700",
":  c #D7A800",
">  c #DCAD00",
",  c #D4B300",
"<  c #DCB300",
"1  c #DCBA00",
"2  c #D4B408",
"3  c #DABC17",
"4  c #E2B300",
"5  c #E8B700",
"6  c #E5B900",
"7  c #ECBC00",
"8  c #E5BC0B",
"9  c #F1BF00",
"0  c #CFA932",
"q  c #E2C300",
"w  c #ECC501",
"e  c #EDCD00",
"r  c #F3C300",
"t  c #F8C700",
"y  c #F2CC00",
"u  c #FDCD00",
"i  c #F1C30F",
"p  c #EDD302",
"a  c #F4D301",
"s  c #FDD400",
"d  c #F4DC00",
"f  c #FDDB00",
"g  c #E4C71E",
"h  c #EEC81F",
"j  c #F2C71D",
"k  c #F6D811",
"l  c #F0D61B",
"z  c #F7E200",
"x  c #FCE302",
"c  c #FEEB00",
"v  c #FEE20E",
"b  c #FFEC0B",
"n  c #FEF401",
"m  c #FFFD05",
"M  c #FFFB0E",
"N  c #FEE513",
"B  c #FAED11",
"V  c #FFF81C",
"C  c #EDD52E",
"Z  c #FADE25",
"A  c #EED43A",
"S  c #F4DC31",
"D  c #F2DF3D",
"F  c #FBD93A",
"G  c #FFEA22",
"H  c #F2ED28",
"J  c #FFEB2D",
"K  c #FFFB22",
"L  c #FAE033",
"P  c #FFEC36",
"I  c #FBF131",
"U  c #D8B858",
"Y  c #FFF941",
"T  c #F4EE51",
"R  c #FDEF53",
"E  c #FFE658",
"W  c #FFF352",
"Q  c #FEFF52",
"!  c #FFF35A",
"~  c #FFFD58",
"^  c #F6DB6F",
"/  c #EAD37F",
"(  c #F2E166",
")  c #FFE561",
"_  c #FEE164",
"`  c #FFE566",
"'  c #F9E76D",
"]  c #FFEC6E",
"[  c #FFF775",
"{  c #FFEF89",
"}  c #FFFC83",
"|  c #FFED9E",
" . c #FFF891",
".. c #FFFA90",
"X. c #EBDCA8",
"o. c #F8E8A8",
"O. c #FFFFA3",
"+. c #FFF7C4",
"@. c #FEF8D6",
"#. c #FFFAD9",
"$. c #FCF9E1",
"%. c #FFFDF5",
"&. c #FFFEF9",
"*. c white",
/* pixels */
"                y a s s y 7 4 > 4 > >                 ",
"            y f N P b c x s u t r t t t 7             ",
"          a v !  .R x d z f f s t 7 u s s y           ",
"        e x W ' g 3 2 , , = > u u 7 w I Y Y T         ",
"      q f c p , 1 D B n c w & % 7 7 7 A Q Q Q H       ",
"      e c e , l [ O.V z a s u 4 # - 6 7 d c c c       ",
"    > d a , S } ~  .L q = r u u 5 # - 6 4 t u u t     ",
"    6 a 1 p K M b +.( w % 7 u u u : # ; > 4 7 7 7     ",
"  ; 7 < 1 n M J { &.#.^ 0 i u u u 7 # & ; - 4 4 4 >   ",
"  ; 6 % p m G ] @.*.%.o.U j u u t 7 - @ - - > 4 4 >   ",
"* - - & n c s s C $.| r % 7 u u r 7 4 + & * - 4 4 4 - ",
"* * # 1 n s u w 1 X.` r % 7 u t 7 7 7 # # * - 4 4 4 ; ",
"* % @ p c u t 1 - / E r % 7 t 7 7 7 7 * O & = 4 4 4 > ",
"* % + p f u u t t _ ) 9 % 6 7 7 7 7 7 - o % * - - - - ",
"* # + q r t u u u F Z r % 4 7 7 7 7 7 - o $ % % % % $ ",
"* # O < 7 7 r t t h k r % 4 7 7 7 7 6 * o # % % % % $ ",
"* # o : 7 7 7 7 7 8 a 9 % 4 7 7 7 4 > & o # % % % % $ ",
"& # o & 6 7 7 7 7 6 a 7 % 4 7 7 4 > > $ o # % % % % # ",
"% # o % > 7 7 7 7 6 a 7 % < 7 4 > > - @ o % % % % % # ",
"% % O @ - 4 7 7 7 6 a 7 % : > > > ; * o + % % % % % # ",
"  % @ o % - > 7 7 4 a 7 % - > > ; - $ o @ % # # # #   ",
"  % # o @ & * - ; : y 7 % - > - * & O o # # + + + O   ",
"    % + o $ * & * = y 6 % * * & & # o + % @ + + +     ",
"    % # o o % * & * w > # % & * $ o + # $ + + + O     ",
"      % + o o % & & : & # % & # o o @ % @ + + +       ",
"      % # + o o @ % % % % # + o O + # # + + + O       ",
"        % # + + o o o o o o o + + # # + + + O         ",
"          % $ @ + + + O + + + @ # # O o o o           ",
"              % # # @ @ @ # # # o X X X               ",
"                % % % % % # + X . X X                 "
};
