/* XPM */
static char *_5508108944c4c6dec86a029c5081278WMUppRFyYMAJ238M[] = {
/* columns rows colors chars-per-pixel */
"14 30 199 2 ",
"   c None",
".  c #A07200",
"X  c #A17300",
"o  c #A27400",
"O  c #AA7C00",
"+  c #AB7C00",
"@  c #AC7E00",
"#  c #AD7F00",
"$  c #AE8000",
"%  c #AF8000",
"&  c #AF8100",
"*  c #B08100",
"=  c #B08200",
"-  c #B18300",
";  c #B28300",
":  c #B28400",
">  c #B38400",
",  c #B38500",
"<  c #B48500",
"1  c #B48600",
"2  c #B58600",
"3  c #B58700",
"4  c #B68700",
"5  c #B68800",
"6  c #B78800",
"7  c #B88900",
"8  c #B88A00",
"9  c #B98A00",
"0  c #BA8B00",
"q  c #BA8C00",
"w  c #BB8C00",
"e  c #BB8D00",
"r  c #BC8D00",
"t  c #BC8E00",
"y  c #BD8E00",
"u  c #BE8F00",
"i  c #BE9000",
"p  c #BF9000",
"a  c #BF9100",
"s  c #C09100",
"d  c #C19200",
"f  c #C29200",
"g  c #C29300",
"h  c #C39300",
"j  c #C29400",
"k  c #C39400",
"l  c #C39500",
"z  c #C49500",
"x  c #C59600",
"c  c #C59700",
"v  c #C69700",
"b  c #C99A00",
"n  c #CA9B00",
"m  c #CB9C00",
"M  c #CC9C00",
"N  c #CD9D00",
"B  c #CD9E00",
"V  c #CD9F00",
"C  c #CE9E00",
"Z  c #CE9F00",
"A  c #CFA000",
"S  c #CDA200",
"D  c #CFA202",
"F  c #D0A000",
"G  c #D1A100",
"H  c #D3A300",
"J  c #D4A400",
"K  c #D4A500",
"L  c #D4A600",
"P  c #D5A600",
"I  c #D6A600",
"U  c #D6A700",
"Y  c #D7A700",
"T  c #D6A800",
"R  c #D7A800",
"E  c #D6A900",
"W  c #D1AF00",
"Q  c #D7AF05",
"!  c #D8A800",
"~  c #D9A900",
"^  c #D8AA00",
"/  c #DAAB00",
"(  c #DBAB00",
")  c #D9AC00",
"_  c #DAAD00",
"`  c #D9AE00",
"'  c #DBAE00",
"]  c #DAAC02",
"[  c #DCAC00",
"{  c #DDAD00",
"}  c #DCAE00",
"|  c #DDAE00",
" . c #DEAE00",
".. c #DEAF00",
"X. c #DFAF00",
"o. c #DCAE07",
"O. c #D8B200",
"+. c #DCB000",
"@. c #DFB000",
"#. c #D9B500",
"$. c #DDBB00",
"%. c #E0B000",
"&. c #E0B100",
"*. c #E1B100",
"=. c #E2B200",
"-. c #E3B300",
";. c #E3B400",
":. c #E4B400",
">. c #E5B700",
",. c #E7B700",
"<. c #E8B700",
"1. c #E0B800",
"2. c #E5B800",
"3. c #E6B800",
"4. c #E1BD00",
"5. c #E8B800",
"6. c #E9B800",
"7. c #EABA00",
"8. c #EBBC00",
"9. c #ECBC00",
"0. c #ECBD00",
"q. c #EDBD00",
"w. c #EEBE00",
"e. c #EEBF00",
"r. c #EFBF00",
"t. c #ECBD0B",
"y. c #E0B515",
"u. c #ECBF11",
"i. c #E0C200",
"p. c #E7C300",
"a. c #E7C400",
"s. c #E4C600",
"d. c #EAC300",
"f. c #E5CC07",
"g. c #E8C900",
"h. c #EAC900",
"j. c #E6C90D",
"k. c #F1C100",
"l. c #F0C300",
"z. c #F2C200",
"x. c #F3C200",
"c. c #F2C300",
"v. c #F4C300",
"b. c #F3C400",
"n. c #F3C600",
"m. c #F4C400",
"M. c #F5C500",
"N. c #F5C600",
"B. c #F1C205",
"V. c #F4CB00",
"C. c #F7CD00",
"Z. c #F9C800",
"A. c #FAC900",
"S. c #FBC900",
"D. c #FBCA00",
"F. c #F8CD00",
"G. c #FBCF00",
"H. c #FECD00",
"J. c #FECE00",
"K. c #FFCE00",
"L. c #ECD000",
"P. c #F1D600",
"I. c #F8D200",
"U. c #FCD100",
"Y. c #FFD400",
"T. c #FFDA00",
"R. c #FDDD00",
"E. c #E4C01A",
"W. c #E0C31E",
"Q. c #F7E307",
"!. c #F8E400",
"~. c #F9E400",
"^. c #F8E104",
"/. c #FAEB03",
"(. c #FFEE00",
"). c #FFEA06",
"_. c #FBE30D",
"`. c #FCEF0B",
"'. c #F7EA10",
"]. c #FEEC15",
"[. c #F6E319",
"{. c #F5E11F",
"}. c #FDE619",
"|. c #EEDA3A",
" X c #FBE026",
".X c #FBE73B",
"XX c #F4F03B",
"oX c #FFF338",
"OX c #FDF642",
"+X c #FFF840",
"@X c #FFF940",
"#X c #FCF44F",
"$X c #FDFC52",
"%X c #FFFF52",
"&X c #FEF15B",
"*X c #E8CD6B",
"=X c #FFEF7C",
"-X c #ECD68D",
";X c #FBEEA3",
/* pixels */
"      [ *.*.*.*.d.I.e.      ",
"      Z.Z.Z.Z.V.}.).U.      ",
"    F.Y.Y.Y.F. X&X^.T.b.    ",
"    OX+X+X+X[..XW.W +.M.    ",
"  XX%X%X%X%X{.L.f./.O.*.:.  ",
"  ~.(.(.(.~.P.j.#XQ.b.F +.  ",
"  Z.J.J.J.c.h.|.oX#.8.[ K   ",
"  6.6.6.6.;.p.'._.Q 6.e.B   ",
"~ *.*.*.*.[ 4.`.=X*Xt.c.b B ",
"~ *.*.*.*.~ $.].;X-Xu.M.b b ",
"[ *.*.*.*.F i.R.E.y.<.v.B z ",
"[ *.*.*.[ b a.C.S ~ :.c.S s ",
"[ *.*.*.[ z h.c.S ] *.e.F y ",
"F K K K K j a.J.B.o.[ e.K w ",
"s s s s s i 1.J.M.[ ~ e.K 8 ",
"s s s s s y ] c.e.] ~ e.S 8 ",
"s s s s s y T e.:.] ~ 6.b 8 ",
"s s s s s 8 F e.3.] ~ :.z 8 ",
"s s s s s 8 b e.3.] K [ s 8 ",
"i s s s s 8 s 6.3.] F [ y 8 ",
"8 w w w w 8 8 [ ;.~ F K 5 8 ",
"$ = = = = 5 2 m T T B B 2 y ",
"  = = = = 2 > z B K z j >   ",
"  $ = = = 2 2 y m B s w 2   ",
"  $ = = = > 2 > z s i = 8   ",
"  $ = = = = 8 $ 8 j 2 $ 8   ",
"    = = = = 5 2 + + + 2     ",
"    @ @ @ @ $ 8 = = = w     ",
"      . . . . = y 2 y       ",
"      . . . . o 5 z s       "
};
