/* XPM */
static char *_6e627781c7e4f43809cbb0a740d65a8PXKsjzYEHce0X8MX[] = {
/* columns rows colors chars-per-pixel */
"23 30 98 2 ",
"   c None",
".  c #A17300",
"X  c #AB7D00",
"o  c #AF8000",
"O  c #B28300",
"+  c #B78800",
"@  c #BC8D00",
"#  c #BF9000",
"$  c #C29300",
"%  c #C79800",
"&  c #CA9B00",
"*  c #CCA100",
"=  c #CDA900",
"-  c #D3A300",
";  c #D8A700",
":  c #D7AB00",
">  c #DBAB00",
",  c #D9AB0C",
"<  c #D2B100",
"1  c #DDB501",
"2  c #DDBB02",
"3  c #D5B60D",
"4  c #DABB14",
"5  c #E3B300",
"6  c #E8B700",
"7  c #E5B900",
"8  c #ECBC00",
"9  c #E7BD08",
"0  c #DFC006",
"q  c #E2C301",
"w  c #EEC200",
"e  c #E6CA03",
"r  c #EDCB00",
"t  c #F3C200",
"y  c #F8C700",
"u  c #F3CB00",
"i  c #FDCD00",
"p  c #F5D401",
"a  c #FED400",
"s  c #F5DC01",
"d  c #FEDB00",
"f  c #F6D208",
"g  c #F2DC09",
"h  c #F2CA18",
"j  c #FFD213",
"k  c #F1D31C",
"l  c #FCDA18",
"z  c #F7E302",
"x  c #FCE500",
"c  c #FEEC01",
"v  c #FEE40E",
"b  c #FFF80C",
"n  c #FBF01B",
"m  c #FFFB1B",
"M  c #FFD523",
"N  c #FFDC2C",
"B  c #EACF33",
"V  c #E6C13A",
"C  c #F1DE3A",
"Z  c #FFEB2F",
"A  c #FFF52B",
"S  c #FFED30",
"D  c #F1E33E",
"F  c #FCF335",
"G  c #FEDB46",
"H  c #F3DC4A",
"J  c #FFDF4B",
"K  c #ECCE5F",
"L  c #FFF941",
"P  c #FDFD4A",
"I  c #F3EB51",
"U  c #FDEE52",
"Y  c #FCEE5D",
"T  c #FFFF51",
"R  c #FFFF52",
"E  c #FDF05D",
"W  c #E5C864",
"Q  c #E8D07F",
"!  c #FFE262",
"~  c #FFEC60",
"^  c #FFFE65",
"/  c #FEF06A",
"(  c #FFEE7A",
")  c #E6D48E",
"_  c #F6E785",
"`  c #FFE884",
"'  c #FFFA82",
"]  c #FFF888",
"[  c #FFFFA1",
"{  c #EFE1B2",
"}  c #FFF5B0",
"|  c #FFF2B8",
" . c #FFF7C7",
".. c #F8F3CD",
"X. c #FFFCE7",
"o. c #FFFDF2",
"O. c #FFFEF9",
"+. c white",
/* pixels */
"            8 8 8 6 5 7 r p p t               ",
"          t i i i i p v S c x d i t           ",
"        u a a a i p Z ] U z s d d i 8         ",
"      I L L L F p v / B 4 3 < * 5 i t 5       ",
"      P R R R D s x q 2 C n c r % - t 8       ",
"    z c c c x r x q 0 E [ A s i i - % 7 7     ",
"    i i i i 8 r p 2 Y ^ ' H < 1 i i % & 7     ",
"  5 8 8 8 8 5 u 2 g m c } _ : > i i 7 @ > -   ",
"  > 5 5 5 > 5 7 1 b A ( o.X.Q V j i t $ & -   ",
"  5 5 5 5 > > * e m ~  .+.O.{ K M i t - @ -   ",
"> 5 5 5 5 - - % z x d k ..| , > i i 8 5 + & % ",
"> 5 5 5 5 - % * c a i 2 ) ` > > i t 8 8 + % % ",
"> 5 5 5 5 - @ < x i w : W ! > > y 8 8 8 $ @ % ",
"- - - - - & + < d i i y G J > - 8 8 8 8 % + % ",
"# $ $ $ $ & + = u i i i N N > - 8 8 8 8 % O % ",
"# $ $ $ $ & O * 8 8 t t h l ; - 8 8 8 7 $ O % ",
"# $ $ $ $ & + $ 8 8 8 8 9 f ; - 8 8 7 > @ O % ",
"@ $ $ $ $ % + @ 5 8 8 8 7 u ; - 8 7 > > + + % ",
"@ $ $ $ # $ + + > 8 8 8 7 u - - 7 > > - O + % ",
"@ $ $ $ $ $ + X & 5 8 8 7 u - & > > > & X + $ ",
"  @ @ @ + @ @ X # - 5 8 5 u - & > > - @ X #   ",
"  o O O o O $ O O & & > : u - & > - & O O $   ",
"  o O O O O @ + X $ & & * w - $ & & $ X + $   ",
"    O O O O + @ o O & & & 8 & @ & % o o @     ",
"    o O O O O # + X O & & * $ $ & O X + $     ",
"      O O O O + @ O X o @ $ $ @ o X O @       ",
"      o O O O O @ + O X X X X X X O + $       ",
"        o O O O O @ @ O O O O O O + $         ",
"          o X X X X + # + + + + # $           ",
"            . . . . . X @ $ % $               "
};
