/* XPM */
static char *_e554e1ea7e14ba7f59816c41794e908pk2Rf0IaUqOiVG7V[] = {
/* columns rows colors chars-per-pixel */
"30 30 92 1 ",
"  c None",
". c #9F7100",
"X c #A17300",
"o c #AB7D00",
"O c #AF8000",
"+ c #B28300",
"@ c #B78800",
"# c #BB8D00",
"$ c #BF9000",
"% c #C39400",
"& c #C79800",
"* c #CB9C00",
"= c #CEA600",
"- c #CDA800",
"; c #D3A400",
": c #D8A700",
"> c #D3AE00",
", c #DCAC00",
"< c #D4B300",
"1 c #DBB500",
"2 c #DDBC00",
"3 c #E3B400",
"4 c #E8B700",
"5 c #E4BB00",
"6 c #EBBB00",
"7 c #F0BF00",
"8 c #DFC100",
"9 c #DFC015",
"0 c #E3C201",
"q c #EDC700",
"w c #EBCD00",
"e c #E2C30C",
"r c #F3C300",
"t c #F8C700",
"y c #F5CB00",
"u c #FDCC00",
"i c #ECD202",
"p c #F2D301",
"a c #FED200",
"s c #F5DC00",
"d c #FDDB01",
"f c #F2D30A",
"g c #FFD108",
"h c #FDDC0C",
"j c #E2C317",
"k c #EDCE16",
"l c #F1C51A",
"z c #FED616",
"x c #F0DA17",
"c c #FFD218",
"v c #F5E100",
"b c #FDE201",
"n c #FDEC00",
"m c #FFEF0C",
"M c #FFF300",
"N c #FFF200",
"B c #FFF500",
"V c #FBF000",
"C c #FFFB00",
"Z c #FFFD00",
"A c #FFFE00",
"S c #FFF708",
"D c #FFFA08",
"F c #FFE616",
"G c #FEEF10",
"H c #FFEE19",
"J c #EDD835",
"K c #FFE922",
"L c #F7E12C",
"P c #FFFF27",
"I c #FBF22F",
"U c #FFED38",
"Y c #F9F73C",
"T c #EFD142",
"R c #FDEE4D",
"E c #FFF940",
"W c #F9F349",
"Q c #FFFC4D",
"! c #FEEE55",
"~ c #F6E05C",
"^ c #FFFF53",
"/ c #FCFB54",
"( c #FEEB6F",
") c #FFFF69",
"_ c #FFF771",
"` c #FFF377",
"' c #FFF980",
"] c #FFFF8A",
"[ c #F5E891",
"{ c #F6EB94",
"} c #FFF793",
"| c #FFEDA0",
/* pixels */
"          ,,15qpaatr          ",
"        tttydFUmnndaut        ",
"      yaaydK_}Rbsssddau6      ",
"     WEIpdH`~j<<<<>*3uar4     ",
"    Y^/Jsnb0<8xnVnv5&%4r64    ",
"   snniwns12L')Dnspau3#*363   ",
"  7uur3sb<e!]Qmbw<=tuur#%,4;  ",
"  46634a22GPSbhfp,&tuuu4@*,,  ",
" ,33,,63-nZMbh([z,&tuuur;@;;* ",
" ,33,,6#0ZMddh{|c,&tuut64@#;; ",
" 333;;;$nBdddw9lu,&tuur66*o** ",
",33,;*@>Cduuq2%5a,&tut6663O%*&",
",33,*%+wMaur2;,ka,&tt66666@+*&",
";;;;*#+ibuuutttTg,&6666666%o&&",
"$%%&*@O0ytuuuutia,%6666666$o%*",
"$%%&*@o166rrtt6wa,%666666,#o#*",
"#%%&*@o;6666666wa:%66664,,@o#&",
"#%%%*@o&3666666wa;%6664,,;+o$&",
"#%%%&@o#,466666wa;%443,,,*o+%&",
" %%%&#oO;,66666wu;%,,,,,;#o@& ",
" ###$%+o$*;3464qu;%,,,,;*+o@& ",
" O+++&@oo&**;,,qu;%,,;**#o+%& ",
"  O++#%+o@*****0t;#****%oo@&  ",
"  O+++%@Oo@***&56*#***&oo+%&  ",
"   O++@%@+o+&**;;$#**#oo+@&   ",
"    O++#%@+oo@%%&&%#Ooo+@%    ",
"     O++#%@+Ooooooooo++@%     ",
"      Ooo@%#@+++O++++@#%      ",
"        XXo@%#@@@@@@#%        ",
"          .Xo@#%&&%&          "
};
