/* XPM */
static char *_c51c67e4512492bd3ff4738b7b18c629QWbRfzELjAL3fh7[] = {
/* columns rows colors chars-per-pixel */
"27 30 93 2 ",
"   c None",
".  c #9F7100",
"X  c #A17300",
"o  c #AB7D00",
"O  c #AF8000",
"+  c #B28300",
"@  c #B78800",
"#  c #BC8D00",
"$  c #BF9000",
"%  c #C29300",
"&  c #C79800",
"*  c #CB9B00",
"=  c #CC9F0B",
"-  c #CEA200",
";  c #CEAC00",
":  c #D3A400",
">  c #D5AC00",
",  c #DCAC00",
"<  c #D5B300",
"1  c #DEB000",
"2  c #DCBC00",
"3  c #CDA111",
"4  c #D7AB14",
"5  c #E3B300",
"6  c #E4BA00",
"7  c #ECBC00",
"8  c #F0BF00",
"9  c #CDA722",
"0  c #DEC400",
"q  c #E4C200",
"w  c #ECC000",
"e  c #E7C900",
"r  c #ECCB00",
"t  c #EFCE08",
"y  c #F3C300",
"u  c #F8C700",
"i  c #F5CA00",
"p  c #FDCC00",
"a  c #F9CA0B",
"s  c #F4D401",
"d  c #FDD400",
"f  c #F5DC01",
"g  c #FDDB00",
"h  c #FEDF09",
"j  c #EACE11",
"k  c #EED616",
"l  c #FCE200",
"z  c #FEEC00",
"x  c #FCE40A",
"c  c #F9EA0A",
"v  c #FDF400",
"b  c #FFFD00",
"n  c #FFE017",
"m  c #FFEE11",
"M  c #FEE21A",
"N  c #FFFA16",
"B  c #FFFB1B",
"V  c #E8CC2A",
"C  c #EFD423",
"Z  c #FBD529",
"A  c #EED131",
"S  c #E8D13A",
"D  c #EFDC3A",
"F  c #F0D033",
"G  c #FBD539",
"H  c #F1D938",
"J  c #FCE028",
"K  c #FFE42B",
"L  c #F2EC28",
"P  c #FFF327",
"I  c #FFEC34",
"U  c #FBF331",
"Y  c #FFF23F",
"T  c #EFD043",
"R  c #FDDC54",
"E  c #FEF840",
"W  c #FFF941",
"Q  c #FFF14B",
"!  c #FEFF4F",
"~  c #F4ED52",
"^  c #FEEF5B",
"/  c #FFFF52",
"(  c #FEFE54",
")  c #FFFE65",
"_  c #FEF469",
"`  c #FCEB75",
"'  c #FFED7E",
"]  c #FFF97B",
"[  c #FFFF7B",
"{  c #F6EB9D",
"}  c #FFF990",
"|  c #F8EEA6",
" . c #FFF1B4",
/* pixels */
"                , , 5 1 6 r s d p y 7                 ",
"            7 u p p i s x I m z l d p p 7             ",
"          i d d p i h Q } ^ x f l g g d p 5           ",
"        ~ W W U s l Y ` V < < < < - , p p y 5         ",
"      L ! / ( D f z s < 2 k c v z r - % 5 y 6 5       ",
"      z z z f r z s < j _ [ N z s s p 6 # * 5 6       ",
"    u p p p 5 s f < C ] ) P M e ; 5 p p 7 # * 5 ,     ",
"    6 6 6 5 5 s 2 e B N z K H r * 1 p p p , @ : ,     ",
"  , 5 5 5 , 6 5 > z b z n ' | Z = 1 p p p 7 % % , :   ",
"  , 5 5 , > 5 & q b z h J {  .G 3 , p p p 7 , + : :   ",
": 5 5 5 , : : % z z d g r S R p & , p p y 7 6 # % : % ",
", 5 5 5 : * % - v g p i q 9 F p & 1 p p 7 7 7 & @ & & ",
", 5 5 5 : & @ 2 z p p 6 > 4 A p & , p 7 7 7 7 : o & & ",
": : : : : % + 0 g p p p p a T p & , 8 7 7 7 7 , o $ & ",
"$ % % % * % O 2 i p p p p p t p & : 7 7 7 7 7 , o # & ",
"$ % % % * $ o > w 7 y u u 7 r p & : 7 7 7 7 5 : o # & ",
"$ % % % & % o * 6 7 7 7 7 6 e p & : 7 7 7 5 , * o # & ",
"# % % % & % o % 5 7 7 7 7 6 e p & : 7 6 5 , , & o # & ",
"# % % % % % o # , 6 7 7 7 6 r p & : 6 5 , , , # o # & ",
"# % % % % % + O : , 6 7 7 6 r p & * , , , , * + O % % ",
"  # # # # % @ o $ * , 5 6 5 e u & * , , , : % o @ &   ",
"  O + + + # # o + & & : , , q u & * , , : & @ o # &   ",
"    + + + @ % + o # & & * * q y & & - * & $ o + %     ",
"    O + + + $ # + o $ * & & 6 6 % % & * % o O # &     ",
"      + + + @ % @ o o # & & - * # % & % o o + %       ",
"      O + + + # $ + O o + $ % & % $ + o o + # %       ",
"        O + + + # # + + o o o o o o o + + # %         ",
"          o o o O # % @ + + + O + + + @ # %           ",
"              X X X o # $ # @ @ @ # # %               ",
"                X X . X + # % & & & %                 "
};
