/* XPM */
static char *dc8a2309b7c14917eb5a1bca3f59c383AOCTkxKUzL6n8aPd[] = {
/* columns rows colors chars-per-pixel */
"23 30 93 2 ",
"   c None",
".  c #A17300",
"X  c #AB7D00",
"o  c #AF8000",
"O  c #B28300",
"+  c #B78800",
"@  c #BC8D00",
"#  c #BF9000",
"$  c #C29300",
"%  c #C79800",
"&  c #CC9C00",
"*  c #CDA100",
"=  c #CDAB00",
"-  c #D3A400",
";  c #D3AC00",
":  c #DCAC00",
">  c #D0A30B",
",  c #D3B300",
"<  c #DAB600",
"1  c #DCBB02",
"2  c #DAB009",
"3  c #E3B300",
"4  c #E4BA00",
"5  c #EBBC00",
"6  c #F0BF00",
"7  c #E0BC1D",
"8  c #DFC006",
"9  c #E4C301",
"0  c #EAC303",
"q  c #E6C900",
"w  c #ECCB01",
"e  c #F2C300",
"r  c #F5CB00",
"t  c #FDCD00",
"y  c #F7CD09",
"u  c #F5D300",
"i  c #FED400",
"p  c #F7DE00",
"a  c #FEDB00",
"s  c #F2DC09",
"d  c #FADA0C",
"f  c #F0C517",
"g  c #F7CD17",
"h  c #FACC10",
"j  c #F0DA12",
"k  c #F9DA1C",
"l  c #F7E401",
"z  c #FFE100",
"x  c #F9E600",
"c  c #FFE400",
"v  c #FDE700",
"b  c #F8E100",
"n  c #FFE800",
"m  c #FFE900",
"M  c #FEE902",
"N  c #FBEE00",
"B  c #FBEE02",
"V  c #FFED00",
"C  c #FFEE00",
"Z  c #FEEF00",
"A  c #FFEE06",
"S  c #FDE20C",
"D  c #FEE70F",
"F  c #FFED0C",
"G  c #FCF101",
"H  c #FFF000",
"J  c #FFF800",
"K  c #FFF900",
"L  c #FFE011",
"P  c #FFFE1E",
"I  c #EACF34",
"U  c #F0DD3F",
"Y  c #FFEA2E",
"T  c #FFEC2D",
"R  c #FCF336",
"E  c #FDED49",
"W  c #FFF841",
"Q  c #FFF941",
"!  c #FFF942",
"~  c #FDFD4A",
"^  c #F3EB51",
"/  c #FCEE5D",
"(  c #FFFF51",
")  c #FFFF52",
"_  c #FFFF5C",
"`  c #FBE265",
"'  c #FDF060",
"]  c #FEF06A",
"[  c #FFFE69",
"{  c #FEE57F",
"}  c #FDEE8A",
"|  c #FFF888",
" . c #F7EDAC",
/* pixels */
"              u u u 5 3 3 4 4 4 4             ",
"          u S T A M a t e r t t t e           ",
"        u Y | E b p a a t 6 r i i i r         ",
"      w D ] I , , , * 3 t e 0 R W W W ^       ",
"      p M 9 < j V V w % - e 5 U ) ) ) ~       ",
"    9 v 9 8 ' _ G u i t - % 3 0 x V V V b     ",
"    w u 1 / [ F w = 4 i r % & 3 5 t t t t     ",
"  : r 1 s P V d w - 3 t t 3 @ : : 4 4 4 4 3   ",
"  3 3 < J G L } ` > 3 t t e $ & - : 3 3 3 :   ",
"  : * q J z k  .{ > 3 t t e - @ - : 3 3 3 3   ",
"& - % x v i q 7 h & 3 t r 5 3 + & - 3 3 3 3 : ",
"& % * V i e < & r & 3 t e 5 4 @ $ & 3 3 3 3 : ",
"& @ ; M t 4 ; 2 y & 3 r 5 5 5 $ + & 3 3 3 3 : ",
"& + , a t t r f g & 3 5 5 5 5 % + % - - - - - ",
"% + = r t t t e r & : 5 5 5 5 % O % $ $ $ $ # ",
"% O * 5 5 e e 5 r & : 5 5 5 3 $ O % $ $ $ $ # ",
"% + $ 4 5 5 5 4 r & : 5 5 3 : # O % $ $ $ $ # ",
"% + @ 3 5 5 5 4 r & : 5 3 : : + + % $ $ $ $ @ ",
"$ + + : 4 5 5 4 r & : 3 : : - O + % $ $ $ $ @ ",
"$ + o & 3 5 5 4 r & - : : : % X + $ $ $ $ $ @ ",
"  @ X # - 3 4 3 r % * : : - @ X @ @ @ @ @ @   ",
"  $ O O % & - : r % * : - % O O $ O O O O o   ",
"  $ + X $ % % - e % % & & $ X + @ o O O O o   ",
"    @ o O % % * 4 $ $ & % o o @ + o O O O     ",
"    $ + X O % % & @ % % O X + @ O O O O o     ",
"      @ O X o @ $ $ @ o X O @ + O O O O       ",
"      $ + O X X X X X X O + @ O O O O o       ",
"        $ @ O O O O O O + @ O O O O o         ",
"          $ $ + + + + @ + X X X X o           ",
"              % % $ @ X . . . . .             "
};
