/* XPM */
static char *_e8e3418b9084da79081614c5870e416p5tNCSpDmprukKFK[] = {
/* columns rows colors chars-per-pixel */
"116 46 234 2 ",
"   c None",
".  c #BF5C18",
"X  c #AB6E00",
"o  c #A67400",
"O  c #AD7300",
"+  c #AD7B00",
"@  c #A67800",
"#  c #B27500",
"$  c #B57B00",
"%  c #BB7D00",
"&  c #BA7600",
"*  c #BF621E",
"=  c #BE6500",
"-  c #BE5F22",
";  c #B9652E",
":  c #BC6224",
">  c #B36B3D",
",  c #CC5600",
"<  c #CC5E00",
"1  c #C75B07",
"2  c #D65701",
"3  c #D35C01",
"4  c #DA5C00",
"5  c #D35C0D",
"6  c #DB5A07",
"7  c #C25B14",
"8  c #CC5D14",
"9  c #CC5D1B",
"0  c #C95818",
"q  c #D25B16",
"w  c #D35A1C",
"e  c #C56400",
"r  c #CC6201",
"t  c #C56B00",
"y  c #CC630C",
"u  c #C86506",
"i  c #D26102",
"p  c #DB6400",
"a  c #D46A00",
"s  c #DA6805",
"d  c #C27E00",
"f  c #C97900",
"g  c #CD6417",
"h  c #D46516",
"j  c #DA7410",
"k  c #E27819",
"l  c #E47819",
"z  c #E16600",
"x  c #C95E26",
"c  c #C45F34",
"v  c #C26225",
"b  c #C2632D",
"n  c #CC6525",
"m  c #D07032",
"M  c #E27A25",
"N  c #BB754C",
"B  c #BC6B42",
"V  c #CB7C44",
"C  c #D17D46",
"Z  c #D17C4B",
"A  c #D97E4B",
"S  c #D97F47",
"D  c #D47E54",
"F  c #C6764A",
"G  c #AE8000",
"H  c #B58300",
"J  c #BC8300",
"K  c #B58B00",
"L  c #BC8B00",
"P  c #BC9200",
"I  c #BE9A01",
"U  c #BF9B27",
"Y  c #C18400",
"T  c #C48A00",
"R  c #CA8D00",
"E  c #CA8700",
"W  c #D48D00",
"Q  c #D38600",
"!  c #C49400",
"~  c #CC9300",
"^  c #C59B00",
"/  c #CD9B00",
"(  c #D29400",
")  c #DA9500",
"_  c #D49B00",
"`  c #DB9D00",
"'  c #D19E16",
"]  c #F18F00",
"[  c #E39B00",
"{  c #EC9100",
"}  c #F29D00",
"|  c #C4A200",
" . c #CCA200",
".. c #CCAB00",
"X. c #C7A704",
"o. c #D5A200",
"O. c #DCA200",
"+. c #D3AA00",
"@. c #DBAA00",
"#. c #DDB200",
"$. c #DBB800",
"%. c #D3B300",
"&. c #C1A31D",
"*. c #D3B612",
"=. c #E3A400",
"-. c #E4AB00",
";. c #EAAD00",
":. c #E6A809",
">. c #F3AA00",
",. c #E4B300",
"<. c #ECB300",
"1. c #E3BA00",
"2. c #EDBC00",
"3. c #F3B500",
"4. c #FBB600",
"5. c #F4BB00",
"6. c #FABB00",
"7. c #EDA813",
"8. c #FFAA1F",
"9. c #F3B111",
"0. c #C39928",
"q. c #CC8237",
"w. c #C49C33",
"e. c #D39435",
"r. c #D49C29",
"t. c #E9872A",
"y. c #FA932A",
"u. c #E98936",
"i. c #F58E33",
"p. c #F5963B",
"a. c #F99634",
"s. c #C2A02F",
"d. c #C4A43C",
"f. c #F7B227",
"g. c #FCB635",
"h. c #E3A529",
"j. c #DEC400",
"k. c #DECC00",
"l. c #E3C200",
"z. c #ECC400",
"x. c #EBCB00",
"c. c #E6CA00",
"v. c #F3C400",
"b. c #FEC400",
"n. c #F4CC00",
"m. c #FECC00",
"M. c #E7D700",
"N. c #F2D500",
"B. c #FED300",
"V. c #F4DA00",
"C. c #FEDC00",
"Z. c #FCDB0E",
"A. c #E9CF13",
"S. c #F5E500",
"D. c #FEE300",
"F. c #FEEC00",
"G. c #F7E800",
"H. c #FFF400",
"J. c #FFFC00",
"K. c #FFEA1C",
"L. c #F9C13A",
"P. c #F0D133",
"I. c #FFFA2B",
"U. c #FFF93B",
"Y. c #CC8242",
"T. c #CF8947",
"R. c #D4844D",
"E. c #DE844D",
"W. c #DB814B",
"Q. c #D78649",
"!. c #DE8350",
"~. c #DF8451",
"^. c #D28451",
"/. c #EF9844",
"(. c #EE9745",
"). c #FC9C42",
"_. c #F59848",
"`. c #E58954",
"'. c #D5AF51",
"]. c #FEAC44",
"[. c #FFA54C",
"{. c #FFAD4E",
"}. c #FFA242",
"|. c #FFBE41",
" X c #FFB04E",
".X c #FAB648",
"XX c #FFAC53",
"oX c #FDAC5B",
"OX c #F4AA57",
"+X c #FFB354",
"@X c #FFBF55",
"#X c #FFB45B",
"$X c #FFBD5F",
"%X c #F7B055",
"&X c #E1B543",
"*X c #EE9669",
"=X c #D3AA64",
"-X c #FDB665",
";X c #FFBE66",
":X c #FFBE6B",
">X c #FDB46A",
",X c #FEA873",
"<X c #FFBE71",
"1X c #FFBE7C",
"2X c #FFB474",
"3X c #FFC346",
"4X c #FFC34C",
"5X c #FFC354",
"6X c #FFC25B",
"7X c #FFC85F",
"8X c #E9D050",
"9X c #FFFF4E",
"0X c #FFFF41",
"qX c #FFFF5F",
"wX c #FFF159",
"eX c #FFC065",
"rX c #FFC16A",
"tX c #F9C86E",
"yX c #FFC474",
"uX c #FFC875",
"iX c #FFC27C",
"pX c #FFCC7D",
"aX c #FFFF64",
"sX c #F6A885",
"dX c #FFC382",
"fX c #FFCC82",
"gX c #FFCE89",
"hX c #FFD584",
"jX c #FFD588",
"kX c #FFDA95",
"lX c #FFD39B",
"zX c #FFDA99",
"xX c #FFD595",
"cX c #FFE08A",
/* pixels */
"                                      C.C.B.B.B.m.m.B.B.                                                                                                                                                                                ",
"                              8XP.A.V.V.C.C.C.C.C.B.n.n.n.l.8X                                                                                                                                                                          ",
"                          M.M.V.M.S.I.H.H.H.F.F.D.D.B.B.B.m.n.B.A.                                                                                                                                                                      ",
"                      8XM.V.D.H.I.U.0XH.H.F.F.F.F.D.C.C.C.B.m.n.B.z.&X                                                                                                                                                                  ",
"                    c.D.D.K.qXaXU.D.C.N.x.c.l.l.l.n.n.n.m.B.B.C.m.B.5.;.h.e.q.Y.^.D D A S S A A E.E.!.E.!.E.!.E.~.E.!.W.W.W.A S W.W.!.E.!.E.E.W.A A A W.A W.A W.A A A W.A W.A W.A S A W.E.E.                                            ",
"                  N.C.D.F.U.wXP.v.1. .| | | ......| P K / 2.m.m.B.m.5.6.4.) f e 1 9 q 5 3 3 3 3 3 3 3 3 3 3 3 3 3 3 3 3 3 3 3 3 3 3 3 3 3 3 3 3 3 3 3 3 3 3 3 3 3 3 3 3 3 3 3 3 3 3 3 3 3 3 3 3 4 3 3 5 8 9 v ; >                       ",
"              M.M.D.F.F.C.B.l...| +.l.N.D.F.F.D.F.D.n.@.J O T ;.m.B.v.5.5.4.[ t r 3 5 2 4 4 4 3 3 3 3 3 3 3 3 3 3 3 < 3 3 3 3 3 3 3 3 3 3 3 3 3 3 3 3 3 3 3 3 3 3 3 3 3 3 3 3 3 3 3 3 3 3 3 3 2 2 4 2 3 3 < i y g 7 m                   ",
"              k.D.F.F.C.n.+.| $.N.D.H.J.H.J.J.J.F.F.D.B.m.6.) & T -.5.5.5.6.4.} r i 3 3 3 i i i r r r r r r r r r r r r < < < < < < < < < < < < < < < < < < < < < < < < < < < < < < < < < < r 3 3 3 3 r r < 3 3 2 4 < *                 ",
"            x.V.F.D.D.l.| %.B.Z.wXqXI.J.H.H.F.C.C.C.m.m.b.m.m.4.E % ( =.;.3.4.4.{ ] y.a.a.a.i.a.p.p.p.p.p.p.p.p.p.p.p.p.p.p.p.p.p.p.p.p.p.p.p.p.p.p.p.p.p.p.p.p.p.p.p.p.p.p.p.p.p.p.p.p.p.p.p.p.p.p./.(.(.u.k p 2 4 p , : N             ",
"          #.n.D.D.C.$.| j.D.H.9XaX9XH.G.G.S.V.1.#.@.-.b.m.m.B.m.b.=.& T =.;.3.4.>.} 8.].].{.XXXXXX{.{.{.{.{.{.{.{.{.{.{.{.{.{.{.{.{.{.{.{.{.{.{.{.{.{.{.{.{.{.{.{.{.{.{.{.{.{.{.{.{.{.{.{.{.{.{.+X+XoXoXoXXX[.}.y.z , p g : Z           ",
"        +.,.m.C.B.1...j.F.J.J.J.J.H.D.V.D.D.1.C.@.~ _ m.B.m.B.m.B.b.` % Y ` =.3.3.=.>.g.XXOX>XoX+X+X{. X{. X{. X{. X{. X{. X{. X{.{.{.{.{.{.{.{.{.{.{.{.{.{.{.{.{.{.{.{.{.{.{.{.{.{.{.{.].].].].].].].{.{.].{.].}.).l i < 1 n           ",
"      *.@.<.B.B.2.+.j.F.H.J.J.H.G.D.C.D.C.1.D.m.` T O.B.B.B.B.m.m.m.6.~ $ R O.@.<.-.` g.+X-X>X-X#X+X+X+X+X+X+X+X+X+X+X+X+X+X+X+X+X+X+X+X+X+X+X+X+X+X+X+X+X+X+X+X+X+X+X+X+X+X+X+X+X+X+X+X+X+X+X+X{. X X X.X].].{.+XXXoXM r 3 3 7         ",
"      %.<.3.m.3./ j.G.H.J.H.F.D.D.C.C.C.1.D.n.m._ Y ` m.m.B.B.m.m.m.3.3.( # ) O.-.-.` 3.6XrXrXrX;X;X;X;X;X;X;X;X;X;X;X;X;X;X;X;X;X;X;X;X;X;X;X;X;X;X;X;X;X;X;X;X;X;X;X;X;X;X;X;X;X;X;X;X;X;X;X;X;X$X#X+X+X+X+X%X#XOXoXoXM 3 3 i ;       ",
"    *.$.-.b.4.%  .V.J.J.J.H.C.C.C.B.C.1.F.B.B.m.=.Y ` m.m.m.m.m.b.m.5.6.;.# % ` O.=.O.` 4X;XrXeX;X;X:X;X:X;X:X;X:X;X:X;X:X;X:X;X:X;X:X;X:X;X:X;X:X:X:X:X:X:X:X:X:X:X:X:X:X:X:X:X:X:X:X:X:X;X:X:XrX:X;X;XeXeX;X;XOX-XOXoX).p p < 7       ",
"    ..#.-.m.) O n.F.J.J.F.D.C.C.C.C.2.D.B.B.B.n.O.Y ` m.m.m.m.m.m.b.5.2.5.` O J ` =.=.) f.@X6X;X;X;X;X;X;X;X;X;X;X;X;X;X;X;X:X;X;X;X;X;X;X;X;X;X;X;X;X;X;X;X;X;X;X;X;X;X;X;X;X;X;X;X;X;X;X;X;X;X;X;X;X;XeXeX$X$X$X+X#X[.XXi.< i i b     ",
"  '.o.o.<.;.$ / C.J.J.F.C.C.C.C.B.m.m.2.v.n.m.m._ T O.m.m.m.b.m.m.5.5.5.5.@.J $ _ O.O.` [ 4X6X;X;X;X;X;X;X;X;X;X;X;X;X;X;X;X;X;X;X;X;X;X;X;X;X;X;X;X;X;X;X;X;X;X;X;X;X;X;X;X;X;X;X;X;X;X;X;X;X;X:X:X;X;X;X;X;XeX$XeX{.XX[.[.a r 3 x     ",
"  X.o.( >.E + x.H.J.F.B.B.B.C.B.v.m.6.~ #.n.B.b.O.J O.m.m.m.m.m.6.5.5.5.3.3.O.X H _ O.( ) |.6X;X;X;X;X;X;X;X;X;X;X;X;X;X;X;X;X;X;X;X;X;X;X;X;X;X;X;X;X;X;X;X;X;X;X;X;X;X;X;X;X;X;X;X;X;X;X;X;X;X;X;X;X;X;X;X;X;X-XrX#X#X[.XXu.1 5 9 B   ",
"  ^ _ ( [ % P D.J.H.C.m.m.m.m.n.v.2.( Y 1.B.m.m.O.J O.m.m.m.m.b.6.6.5.5.5.5.=.$ $ ~ _ ( ( g.6X;X;X;X;X;X;X;X;X;X;X;X;X;X;X;X;X;X;X;X;X;X;X;X;X;X;X;X;X;X;X;X;X;X;X;X;X;X;X;X;X;X;X;X;X;X;X;X;X;X;X;X;X;X;X;X:X:XrXrX;X;XXXXX).a 3 8 b   ",
"P. ./ R ( # +.F.H.C.B.m.B.m.v.v.2.@.( -.z.C.b.b.O.J O.m.m.m.b.5.6.6.5.5.5.5.<.T O T ~ _ ( :.6X;X;X;X;X;X;X;X;X;X;X;X;X;X;X;X;X;X;X;X;X;X;X;X;X;X;X;X;X;X;X;X;X;X;X;X;X;X;X;X;X;X;X;X;X;X;X;X;X;X;X;X;X;X;X;X:X:XrX;X;XrX#XXXXXk 2 3 7   ",
"1.+.~ ~ E O 2.F.F.B.B.m.m.b.-.,.@._ =.m.n.D.m.b.O.J O.b.m.b.6.3.6.6.5.5.5.5.3.( O H ~ _ ( [ 5X;X;X;X;X;X;X;X;X;X;X;X;X;X;X;X;X;X;X;X;X;X;X;X;X;X;X;X;X;X;X;X;X;X;X;X;X;X;X;X;X;X;X;X;X;X;X;X;X;X;X;X;X;X;X;X:X:X;XeX;XrX$XXXXXt.3 3 <   ",
"_ @.~ ~ J o v.F.C.n.B.m.m.B.m.B.m.B.m.m.B.D.m.b.O.J ` 6.6.6.6.3.6.6.5.5.5.5.3.O.O $ T _ ( ) 5X;X;X;X;X;X;X;X;X;X;X;X;X;X;X;X;X;X;X;X;X;X;X;X;X;X;X;X;X;X;X;X;X;X;X;X;X;X;X;X;X;X;X;X;X;X;X;X;X;X;X;X;X;X;X;X:X:X;XrXeX;X;XXXXX).3 3 5 M ",
"_ O.T R H + z.C.B.n.B.m.m.m.b.m.m.m.m.m.B.C.m.b.O.J ` 5.5.5.5.5.3.6.5.5.5.5.2.@.# $ Y ~ ) ( 4X;X;X;X;X;X;X;X;X;X;X;X;X;X;X;X;X;X;X;X;X;X;X;X;X;X;X;X;X;X;X;X;X;X;X;X;X;X;X;X;X;X;X;X;X;X;X;X;X;X;X;X;X;X;X;X:X:XeXrXeX;XeX#X{.[.r 3 i s ",
"[ =.J T H + 1.n.v.v.b.m.m.m.m.B.m.m.m.B.n.B.m.6.O.J _ 5.5.5.6.5.3.6.5.5.5.5.<.O.O $ J ~ _ R 4X;X;X;X;X;X;X;X;X;X;X;X;X;X;X;X;X;X;X;X;X;X;X;X;X;X;X;X;X;X;X;X;X;X;X;X;X;X;X;X;X;X;X;X;X;X;X;X;X;X;X;X;X;X;X;X:X:XeX;XrX;X-X-X{.[.a 3 3 3 ",
"[ =.T T + + @.n.5.5.5.6.b.b.m.m.m.m.6.6.n.D.m.b.O.J _ 3.5.5.5.5.5.6.5.5.5.<.-._ O $ J R _ T 4XeX;X;X;X;X;X;X;X;X;X;X;X;X;X;X;X;X;X;X;X;X;X;X;X;X;X;X;X;X;X;X;X;X;X;X;X;X;X;X;X;X;X;X;X;X;X;X;X;X;X;X;X;X;X;X:X:XrX-XrXrX#X;XXX[.s 3 4 4 ",
"[ =.T L H @ @.2.5.5.5.6.6.5.5.5.5.5.6.6.v.C.m.b.O.J _ 5.6.5.5.5.6.5.5.5.,.-.,._ O % % R ( ( 3XeX;X;X;X;X;X;X;X;X;X;X;X;X;X;X;X;X;X;X;X;X;X;X;X;X;X;X;X;X;X;X;X;X;X;X;X;X;X;X;X;X;X;X;X;X;X;X;X;X;X;X;X;X;X;X:X:XrXeXrX;X;X;X{.[.s 3 4 4 ",
"=.O.R L H o o.,.5.5.6.5.5.5.5.5.5.5.4.6.v.C.m.6.O.J _ 5.5.5.5.5.5.5.<.<.-.-.@.~ O % % R _ _ 4X$X;X;X;X;X;X;X;X;X;X;X;X;X;X;X;X;X;X;X;X;X;X;X;X;X;X;X;X;X;X;X;X;X;X;X;X;X;X;X;X;X;X;X;X;X;X;X;X;X;X;X;X;X;X;X:X:XrX;XrX;X;X;XXX[.a 3 3 4 ",
"-._ ! J H O / @.<.5.6.6.3.6.5.5.5.5.4.6.v.C.m.6.O.J _ 5.5.5.5.5.3.3.-.-.-.-.O.T O % Y R _ O.5X;X;X;X;X;X;X;X;X;X;X;X;X;X;X;X;X;X;X;X;X;X;X;X;X;X;X;X;X;X;X;X;X;X;X;X;X;X;X;X;X;X;X;X;X;X;X;X;X;X;X;X;X;X;X;X:X:XeXeXrX;X;X-XXX[.< 3 3 i ",
"L.! ~ J J # T @.-.<.6.6.6.6.5.2.2.5.6.6.v.C.B.6.` J _ 5.6.5.3.<.;.;.-.-.-.-._ J # % Y R ) ;.5X;X;X;X;X;X;X;X;X;X;X;X;X;X;X;X;X;X;X;X;X;X;X;X;X;X;X;X;X;X;X;X;X;X;X;X;X;X;X;X;X;X;X;X;X;X;X;X;X;X;X;X;X;X;X;X:X:X;XeXrX;X;X;XXXp.< 3 3 h ",
"  L ! J Y % $ @.O.-.3.6.6.5.5.2.z.5.6.5.v.C.B.5.` J _ 3.3.3.<.;.;.-.;.;.@.@.( # $ J Y ~ ( f.@X:X;X;X;X;X;X;X;X;X;X;X;X;X;X;X;X;X;X;X;X;X;X;X;X;X;X;X;X;X;X;X;X;X;X;X;X;X;X;X;X;X;X;X;X;X;X;X;X;X;X;X;X;X;X;X:X:X;XrX:X;X;XrXXXt.3 4 3   ",
"  U ! Y d d O _ o.@.;.4.6.6.2.5.2.5.6.5.v.C.B.5.O.Y ( ;.;.;.;.;.;.-.<.;.O._ T O % J T ( ) |.$XrX;X;X;X;X;X;X;X;X;X;X;X;X;X;X;X;X;X;X;X;X;X;X;X;X;X;X;X;X;X;X;X;X;X;X;X;X;X;X;X;X;X;X;X;X;X;X;X;X;X;X;X;X;X;X:X:X;XrX;X;X;XrX[.j 4 2 1   ",
"  '.! T d d # J o.o.=.;.3.3.5.2.2.5.5.5.z.C.B.5.O.Y ( ;.;.;.;.;.;.-.-.O._ ( % # J % ~ ( =.4X;X:X;X;X;X;X;X;X;X;X;X;X;X;X;X;X;X;X;X;X;X;X;X;X;X;X;X;X;X;X;X;X;X;X;X;X;X;X;X;X;X;X;X;X;X;X;X;X;X;X;X;X;X;X;X;X:X:X;X;X;X:X;X#X).r 3 5 b   ",
"    ^ ~ d d $ o ^ / _ ` =.3.2.2.2.5.5.5.v.C.m.5.O.Y ( ;.;.;.;.-.-.;.O.( _ ~ # $ Y $ _ ) 7.5XeX:X;X;X;X;X;X;X;X;X;X;X;X;X;X;X;X;X;X;X;X;X;X;X;X;X;X;X;X;X;X;X;X;X;X;X;X;X;X;X;X;X;X;X;X;X;X;X;X;X;X;X;X;X;X;X;X:X:X;X;XrX;XXXi.< 5 9 F   ",
"    I ! T J J o H ! / _ _ _ @.-.-.-.-.;.v.B.B.<.` Y ) ;.-.-.-.<.=.` ( ) ( # $ J % T ) _ L.6X;X<X:X;X;X;X;X;X;X;X;X;X;X;X;X;X;X;X;X;X;X;X;X;X;X;X;X;X;X;X;X;X;X;X;X;X;X;X;X;X;X;X;X;X;X;X;X;X;X;X;X;XeXeX;X;X:X:X:XrXrXrX;XXXi 3 < v     ",
"      ^ ! J % H o L / / ~ ~ _ _ ` =.-.-.v.B.m.-.=.Y ~ =.-.,.O._ _ ( ( _ H # H H Y ~ R 9.3X6X<X<X:X;X;X;X;X;X;X;X;X;X;X;X;X;X;X;X;X;X;X;X;X;X;X;XeXeXeXeXrXrXeXeX;X;X;X;X;X;X;X;X:X;X:X;X:X;X:X;X;X;XeXeX;X;X;X;X:X-XuXeXrXt., 4 g ;     ",
"      s./ Y % Y # $ L / o._ ) ) ( _ _ O.5.B.m.-.O.T ~ ` _ _ _ _ ~ _ ~ L o $ L $ R ~ ) 3X5X6XrX:X:X:X:X:X:X:X:X:X:X:X:X:X:X:X:X:X:X:X:X:X:X:X:X:X:X:X:X:X:X:X:X:X:X:X:X:X:X:X:X:X:X:X:X:X:X:X:X:X:X:XrXrXrXrXrX:X:XrX#XrXXXa p , -       ",
"        ^ / % Y J # o L / _ ) ) _ _ ~ / 2.B.v.@._ Y E _ _ _ _ ~ / _ J O + H H L ~ ( f.5XeX;X;X;X:X:X:X:X:X:X:X:X:X:X:X:X:X:X:X:X:X:X:X:X:X:X:X:X:X:X:X:X:X:X:X:X<X:X:X:X:X:X<X<XyX<X<X<X<XyXyX<X:X:X:XrXrXrXrXrXrX:XrXoXk < , 8         ",
"          L _ % d % $ + J ~ ` ) ( _ / _ 2.n.2.@.~ Y T ( _ _ _ _ ~ J O O T $ % ( ( 7.6X;XyX;X:XrXrXrXrXrXrXrXrXrX:X:X:X:X:X:X:XrXrXrXrXrXrXrXrXrXrXrXrXrXrXrXrX:X:X:X:X<X:X:X:X:X:X:X:X:X:X:X:X:X:X:X:X;X;XrXtXtXpXhXgXu.< i , g         ",
"          d./ Y Y Y J $ + H R ) ( _ _ _ @.-.@.o.T Y ~ _ _ ~ ~ R % o % % Y J T ( =.6XyXuXiXyXuXyXyXyXuXyXuXyXuXyXyXyXyXyXyXyXyXyXuXuXuXuXuXuXuXuXpXpXpXpXpXpXpXpXfXfXfXfXfXfXfXfXfXfXfXfXfXfXfXpXuXyXyXyXuXpXhXhXhXpX_.g q h u           ",
"            &./ T d % % # O # J ~ ( ( ~ ~ ! ~ ! R T R _ _ ~ J O # $ Y % H T ( ) 7XcXjXzXzXkXzXkXkXkXkXkXkXkXkXkXkXkXkXkXkXkXkXkXkXkXkXkXkXkXkXkXkXkXkXkXkXkXkXkXkXkXzXkXzXkXzXkXzXzXzXzXzXzXkXxXzXlXlXlXlXlXgXpXXXl 4 6 0 c             ",
"              &.^ T % d Y J $ o # # J ~ / / _ ~ _ ( R J # o $ $ % Y % % T ( W .XyX<XiX1XdXdXiXdXiXiXiXiXiXiXiXiXiXiXiXiXiXiXiXiX1X1X1X1X1X1X1X1XiXiXiXiXiXiXiXiXdXdXdXdXdXdXdXdXdXdXdXdXdXdX1X2X2X2X,X,X*X`.m y 3 2 4 5 c               ",
"                d.^ T H J J H J $ $ # O O O # # # X # # $ $ J $ J $ H R W f t e r 8 8 9 8 9 9 9 y r r r r r r r r r r r r r r r r r r r r r r r r r r r r r r r r r r r r r r r r r r r r r r r e r g 9 x w q 4 2 p < v                 ",
"                    ! ! L J L G H % % % $ % % % % # % % H J J H H T R W f t e r 3 3 3 2 2 2 2 2 3 3 3 3 3 3 3 3 3 3 3 3 3 3 3 3 3 3 3 3 3 3 3 3 3 3 3 3 3 3 3 3 3 3 3 3 3 3 3 3 3 3 3 3 3 3 3 3 i r , , q w q 8 9 . V                   ",
"                      w.! P K K H H J T Y J % % % Y J J H H H L R W Q f = e r r i i 5 i r r r r i 5 5 5 5 5 5 5 5 5 5 5 5 5 5 3 5 5 5 5 5 5 5 5 5 5 5 5 5 5 5 3 3 3 5 5 3 3 3 3 3 5 5 3 3 3 3 r e e r r 5 8 n c N                       ",
"                          0.I P L L H $ $ % J Y % % $ H L P K ! ' r.e.T.T.^.R.V C C C V V Y.q.q.C Z Z Z Z Z Z Z Z Z Z Z Z Z Z Z Z Z Z Z Z Z Z Z Z Z Z Z Z Z Z Z C C C C C C C C C C V C C C C C Y.T.R.R.R.*XsX                          ",
"                              =X0.! ! ~ ~ ~ T T R / ~ ! L w.=X                                                                                                                                                                          ",
"                                    .X:.o._ _ _ _ o.@.                                                                                                                                                                                  "
};
