/* XPM */
static char *_6a2d3c858924f6efb24bd1e1130a350FXRdmDevw1d8lj4j[] = {
/* columns rows colors chars-per-pixel */
"14 30 192 2 ",
"   c None",
".  c #A07200",
"X  c #A17300",
"o  c #AA7C00",
"O  c #AB7C00",
"+  c #AC7E00",
"@  c #AD7F00",
"#  c #AE8000",
"$  c #AF8000",
"%  c #AF8100",
"&  c #B08100",
"*  c #B08200",
"=  c #B18300",
"-  c #B28300",
";  c #B28400",
":  c #B38400",
">  c #B48500",
",  c #B48600",
"<  c #B58600",
"1  c #B58700",
"2  c #B68700",
"3  c #B68800",
"4  c #B78800",
"5  c #B88900",
"6  c #B88A00",
"7  c #B98A00",
"8  c #BA8B00",
"9  c #BA8C00",
"0  c #BB8C00",
"q  c #BB8D00",
"w  c #BC8D00",
"e  c #BC8E00",
"r  c #BD8F00",
"t  c #BE8F00",
"y  c #BE9000",
"u  c #BF9000",
"i  c #BF9100",
"p  c #C09100",
"a  c #C19200",
"s  c #C29300",
"d  c #C29400",
"f  c #C39400",
"g  c #C39500",
"h  c #C49500",
"j  c #C59500",
"k  c #C59600",
"l  c #C79700",
"z  c #C99A00",
"x  c #CA9A00",
"c  c #CB9A00",
"v  c #CA9B00",
"b  c #CB9B00",
"n  c #CD9D00",
"m  c #CC9E00",
"M  c #CD9E00",
"N  c #CE9E00",
"B  c #CE9F00",
"V  c #CF9F00",
"C  c #CFA000",
"Z  c #CDA200",
"A  c #CFA202",
"S  c #D0A000",
"D  c #D0A100",
"F  c #D1A100",
"G  c #D3A300",
"H  c #D2A400",
"J  c #D3A400",
"K  c #D4A400",
"L  c #D5A600",
"P  c #D5A700",
"I  c #D6A600",
"U  c #D6A700",
"Y  c #D5AA00",
"T  c #D8A800",
"R  c #D8A900",
"E  c #D9A900",
"W  c #D8AA00",
"Q  c #D9AA00",
"!  c #DAAA00",
"~  c #DBAB00",
"^  c #D9AC00",
"/  c #DAAD00",
"(  c #D9AE00",
")  c #DBAE00",
"_  c #DBAF00",
"`  c #DBAD03",
"'  c #DCAC00",
"]  c #DDAC00",
"[  c #DDAD00",
"{  c #DCAF00",
"}  c #DEAE00",
"|  c #DFAF00",
" . c #D2B000",
".. c #D8B000",
"X. c #DDB000",
"o. c #DBB400",
"O. c #DBB700",
"+. c #DBB800",
"@. c #DDBC00",
"#. c #DEB008",
"$. c #DEB30E",
"%. c #E0B000",
"&. c #E1B100",
"*. c #E2B200",
"=. c #E3B300",
"-. c #E3B400",
";. c #E2B700",
":. c #E5B500",
">. c #E6B600",
",. c #E7B600",
"<. c #E6B700",
"1. c #E7B700",
"2. c #E1B900",
"3. c #E0BA00",
"4. c #E6B800",
"5. c #E2BF00",
"6. c #E8B800",
"7. c #E9B800",
"8. c #E9BA00",
"9. c #EABA00",
"0. c #EBBB00",
"q. c #EDBD00",
"w. c #ECBE00",
"e. c #EEBE00",
"r. c #E3B509",
"t. c #F0BF00",
"y. c #E0C100",
"u. c #E6C100",
"i. c #E4C400",
"p. c #E3C906",
"a. c #EAC900",
"s. c #E6C909",
"d. c #EECA0B",
"f. c #F0C000",
"g. c #F2C200",
"h. c #F3C200",
"j. c #F2C500",
"k. c #F5C500",
"l. c #F6C500",
"z. c #F6C600",
"x. c #F7C600",
"c. c #F6C700",
"v. c #F2C204",
"b. c #F9C700",
"n. c #F4C900",
"m. c #F2CF00",
"M. c #F7CC00",
"N. c #FAC900",
"B. c #FBC900",
"V. c #F9CB00",
"C. c #FBCA00",
"Z. c #F8CF00",
"A. c #FECD00",
"S. c #FECE00",
"D. c #FFCE00",
"F. c #FFCF00",
"G. c #EFD200",
"H. c #EED301",
"J. c #F8D300",
"K. c #FDD300",
"L. c #FFD300",
"P. c #FFD400",
"I. c #FEDB00",
"U. c #FDDF00",
"Y. c #F4D40A",
"T. c #EDCB1F",
"R. c #F1D71A",
"E. c #F9E400",
"W. c #F8E107",
"Q. c #FBE404",
"!. c #FEEA00",
"~. c #FBED00",
"^. c #FAEC03",
"/. c #FFEE00",
"(. c #F8E60B",
"). c #FFEB08",
"_. c #F5E711",
"`. c #FDE518",
"'. c #E2C624",
"]. c #F9DF24",
"[. c #ECD632",
"{. c #FBE737",
"}. c #F4EF3A",
"|. c #FFF43F",
" X c #FDF642",
".X c #FFF840",
"XX c #FFF940",
"oX c #FFF941",
"OX c #FBF14F",
"+X c #FDFD52",
"@X c #FFFF52",
"#X c #FEF15E",
/* pixels */
"      m.J.8.] *.*.*.]       ",
"      `.).K.f.V.V.V.b.      ",
"    ].#XW.I.c.V.P.P.K.M.    ",
"    {.'. .( c.R.oXoXoX X    ",
"  G.G.p.^.O.] T.@X@X@X@X}.  ",
"  G.s.OX(.n.S ;.E./././.E.  ",
"  a.[.|.+.8.*.K f.A.A.A.V.  ",
"  u._.Q...1.f.n ] 8.8.8.8.  ",
"~ 2.^.Y.$.1.c.b K *.*.*.*.~ ",
"S O.!.d.r.1.c.b S *.*.*.*.~ ",
"b @.U.2.*.1.c.n b *.*.*.*.] ",
"k y.Z.Z ~ 1.f.S k ] *.*.*.] ",
"a i.j.Z ( *.t.K a ] *.*.*.] ",
"u 5.A.v.#.] e.~ t J K K K S ",
"t O.A.c.X.~ e.~ 9 a a a a u ",
"t Y f.e.] ~ e.J 7 a a a a u ",
"9 J e.1.( ~ 8.n 7 a a a a u ",
"7 n e.4.( ~ 1.b 7 a a a a u ",
"7 k 8.4.( K *.k 7 a a a a u ",
"7 u 1.4.( S ] u 7 a a a a t ",
"7 4 ~ ;.( Z ~ 7 7 9 9 9 9 7 ",
"9 < b K ~ n n < 4 = = = = % ",
"  : d n K k k : < = = = =   ",
"  < 9 b S a t < < = = = %   ",
"  7 = k d a : < : = = = %   ",
"  9 % < d 4 % 4 = = = = %   ",
"    < O O O < < = = = =     ",
"    t : = = 7 % + + + +     ",
"      t < 9 % . . . .       ",
"      a k 4 . . . . .       "
};
