/* XPM */
static char *result[] = {
/* columns rows colors chars-per-pixel */
"60 60 198 2 ",
"   c #1B1B1B",
".  c #161616",
"X  c gray8",
"o  c #151515",
"O  c gray7",
"+  c gray6",
"@  c #111111",
"#  c #232323",
"$  c gray11",
"%  c gray10",
"&  c #181818",
"*  c #131313",
"=  c #202020",
"-  c gray13",
";  c #191919",
":  c gray9",
">  c gray5",
",  c #222222",
"<  c gray14",
"1  c gray12",
"2  c #1E1E1E",
"3  c #1D1D1D",
"4  c #0E0E0E",
"5  c #0C0C0C",
"6  c #2A2A2A",
"7  c #393939",
"8  c gray17",
"9  c #2D2D2D",
"0  c gray15",
"q  c #2C2C2C",
"w  c gray16",
"e  c #252525",
"r  c #2F2F2F",
"t  c #353535",
"y  c gray20",
"u  c #323232",
"i  c #343434",
"p  c #282828",
"a  c #202021",
"s  c #3E3E3E",
"d  c #272727",
"f  c gray18",
"g  c #303031",
"h  c gray19",
"j  c #1C1C1D",
"k  c #3F3F3F",
"l  c #313131",
"z  c #1C1D1D",
"x  c #2F3030",
"c  c #1E1E1F",
"v  c #444545",
"b  c #1F2020",
"n  c #313232",
"m  c gray28",
"M  c gray30",
"N  c #373737",
"B  c gray21",
"V  c gray22",
"C  c #3A3A3A",
"Z  c gray25",
"A  c #2B2B2A",
"S  c gray23",
"D  c #2B2C2C",
"F  c #2A2B2B",
"G  c #434344",
"H  c #4B4B4C",
"J  c #484848",
"K  c #494949",
"L  c #4B4B4B",
"P  c #464646",
"I  c gray29",
"U  c #4C4C4C",
"Y  c #414142",
"T  c #2D2D2E",
"R  c #3F3F40",
"E  c #3B3B3C",
"W  c #3C3C3C",
"Q  c gray24",
"!  c #29292A",
"~  c #333334",
"^  c #2C2C2D",
"/  c #343435",
"(  c #333434",
")  c #0A0B0B",
"_  c gray4",
"`  c #0B0B0B",
"'  c #0B0B0C",
"]  c #090909",
"[  c #060606",
"{  c #101010",
"}  c #0E0E0F",
"|  c gray3",
" . c #1A1A1B",
".. c #131314",
"X. c #111112",
"o. c #0F0F10",
"O. c #0D0D0E",
"+. c #0E0F0F",
"@. c #212222",
"#. c #232424",
"$. c #262727",
"%. c #121213",
"&. c #212122",
"*. c #191818",
"=. c #262627",
"-. c #2A2A2B",
";. c #171818",
":. c #171819",
">. c #141415",
",. c #222223",
"<. c #272828",
"1. c #242425",
"2. c #252626",
"3. c #252526",
"4. c #282829",
"5. c #282929",
"6. c #292A2A",
"7. c #202121",
"8. c #131414",
"9. c #353636",
"0. c #3D3D3E",
"q. c #242525",
"w. c #393A3A",
"e. c #323231",
"r. c gray26",
"t. c #1D1E1E",
"y. c #292828",
"u. c #2E2E2F",
"i. c #3E3F3F",
"p. c #404141",
"a. c #414242",
"s. c #3E3E3F",
"d. c #424343",
"f. c #414141",
"g. c #444444",
"h. c #363737",
"j. c gray32",
"k. c #505050",
"l. c #4E4E4E",
"z. c gray31",
"x. c #515151",
"c. c gray27",
"v. c #303131",
"b. c #181919",
"n. c #1B1C1C",
"m. c #222323",
"M. c #19191A",
"N. c #161617",
"B. c #171716",
"V. c #191A1A",
"C. c #161717",
"Z. c #1A1B1B",
"A. c #2F2F30",
"S. c #1D1D1E",
"D. c #1E1F1F",
"F. c #070707",
"G. c #09090A",
"H. c #111212",
"J. c #0F1010",
"K. c #171718",
"L. c #0A0A0B",
"P. c #1B1B1C",
"I. c #181717",
"U. c #1B1B1A",
"Y. c #181819",
"T. c #252627",
"R. c #101111",
"E. c #0D0E0E",
"W. c #0B0C0C",
"Q. c #101011",
"!. c #1F1F20",
"~. c #141516",
"^. c #161515",
"/. c #141515",
"(. c #151516",
"). c #151617",
"_. c #4F5050",
"`. c #272728",
"'. c #3C3C3D",
"]. c #3D3E3E",
"[. c #3F4040",
"{. c #3A3A3B",
"}. c #0C0D0D",
"|. c #151616",
" X c #0C0C0D",
".X c #232324",
"XX c #242324",
"oX c #3A3B3B",
"OX c #434343",
"+X c #5D5D5D",
"@X c gray35",
"#X c gray34",
"$X c gray33",
"%X c #5A5A5A",
"&X c gray36",
"*X c #5B5B5B",
"=X c #565656",
"-X c white",
/* pixels */
"  . X o X X X O O + @ #   $       % $ %   $     & * = - %     % % ; : : > $ - , , , < 1 2 3 . 4 3   % % : & % $ & : o 5 ",
"6 2 % $ %   3 ; % $   7 8 9 8 < 0 q < , w q e w 1 % r r 1 < - - e - = e ; 8 t y u u u y i i 9 . p # , # - - # 0 , - # . ",
"8 2 ; & o * & & :   a s e d 6 d d q e 1 p f , e # = g h 1 =   ; 3 2 3 - 3 9 y u i u u y y t u j w , , , # # # < - = #   ",
"q 3 & % & o ;   : . - k - e # e 8 < , , 0 p p 0 q 0 l r 3 - 1   2 , 1 $ z x t u l h y u u h u c 8 < e e e # , , # - ,   ",
"f 1 : &   & %   : o < v 6 p < w 8 0 # # e 1 p e 0 0 y u 2 3 , 1 = - = % b n i y l l u u l l l , r < 0 # , # # , - - , $ ",
"q = ; ; ; : . & . : e m r 8 # w d < # , # 1 8 p , 0 y l = 2 = 3 3 2 2 $ - u y u y y h h l l l - r , , - = # < - = - , 3 ",
"l p 3 1 3 2 # 1 1 < 6 M N B t B y i B B B t V N y f C Z w 6 8 d h q A h 9 C S V C B V N V 7 V 8 S 9 8 q 9 f r 9 9 r h q ",
"d f 8 D F q f 9 f r d G H J K L P J I K H U L H J Y T R E E W C Q Q s k i ! i ~ y y y y u u u < ^ i u u y / t ( ( i t l ",
"+ 5 5 5 ) _ ` > ' _ ] [ 4 O @ O @ O @ + { } |  .: X ......X O @ { 5 ; @ X.{ + { { { + { @ o.{ O.| :   . & & : : o * X ] ",
"X > 5 > 5 ` 5 + > ` 5 ` +.: . o o o . . : . 5 1 ; X o * * . X X & O @.: : : * O : O + * : O o + > b , &   & & $ % ; 2 X ",
"o > > > > > > > > ` 5 5 { : o o . o o . . . + = % X * @ 4 O * O X X #.O O X X o . X + X & * O X O - # ; ; . * . & : ; . ",
"o + 4 + 4 4 > 5 > 5 5 ` @ & o o X o o o X o { - ; O X X @ X . O @ o < * * * O : O { @ * O o X : o , , . ; ; . ;   & o : ",
": + + 4 5 5 > 5 5 ` 5 ` X.& o o o o o o o o @ , $ * O o * * X * { : $.& . @ X . * O @ * + X * @ X < e ; :   & & ; ; o % ",
": 4 5 5 ` 5 4 > ` 5 5 ` %.: o o . o X X o X @ &.  * X * @ * O @ O & 0 *.: * o o O O O O { o . O X # < ; & ; . & & . :   ",
"% o @ @ O * X * * X o * : $ & ; & & & & ; & . =.d 3 1 2 3 , 1 = < = -.# - - , = = , , , , # , - 2 8 u < e e # 6 d d 8 w ",
"& $  .% %   $ $  .% % ;.:.$ 3 2 3 1 j  .% & >.,.<.0 0 e 1.2.< 1.# c 2.p d d w 3.0 4.$.5.6.p p 0 , &.w d d =.0 d d 0 0 1 ",
"e - = - 1 1 = # = 2 2 * 7.l h r f r f 9 f w 8.9.< - # , # # 2 = 2 $ t w 6 d # e w < , d p < d 2 ;.- = ; $     $ ; & % > ",
"6 # , , - , # e , = # $ 3.i y i y u i i B i 2 V < 1 2     - 2 2 < 1.0.p 6 q 0 0 9 # 2 w 9 , 0 = 2 q., & ; . X ; & : $ . ",
"q # # < e < , , , = , j p B u u l u u y u y , w.e = = 3 ; 2 = 3 2 2.s - < < e 8 d < - d q 0 e 8 q.3., ; % : X : ; & : . ",
"h 0 0 e # # , , , - , 3 w N y u h u u u h e.e W e 3 1 = 2 , # $ $ 4.r.0 p e p q < , < e - w 0 w d d # : : % : %   ; o & ",
"y < < # - # e , - - , t.-.t y u y l h l l l e E y.1 = = 2 $ = 3 3 8 m r 6 - w p < , - # 2 6 0 - 0 <.< % &   & : & ; o   ",
"B < - , , # e # , # < 1 u.N y t u u l u y y w i.8 1 , 2 = e = 1 e ^ J h r q 9 6 8 8 q 8 w h f 6 p 6 d % % % : 3 % ; $ 2 ",
"W Q 7 w.S W s Q W Q p.C ~ a.s.k Q s s Q 0.Q y d.J k d.k f.g.r.g.m h.j.k.l.z.k.L M k.k.j.j.x.k.M c.f i q 9 9 q v.f r l f ",
"# - = - = - - 2 c $  .# b.3 3 n.$ j 3 n.j 3 ; % $ ;.q.$.@.# # , m.n.3 ,.M., , &., , , - - = $ : 3 * o . X X . : o X * > ",
"8 $ ; ; : &   & ; $ N.2.$ $ $ : & 3 B.X % 3 . % * { 7., & % : . % ; & $ o V.$   $     $ $ 3 ; 4 N.@ @ @ { @ O * @ { O ` ",
"q 3 ; ; . * & ; : ; V.d . & & ; $   & o % 3 & &   : ,.# & % : X : ; & & C.j 3   $   $ $ $ $   X.& O * * * O O O @ { @ > ",
"f 3 : ; % : %   . . $ w ; % : % 3 : o : & o   &   ; 1.< : : % : ;   ; X b.2 3 $     $ $   %   8.% * X * O O @ @ @ { @ > ",
"9 1 & ; ; : : & . : 2 q 2 $ .   % : . . : *   ; . ; 1.e % & % : : : & o Z.c $ $ $ $ % %       X   @ O @ { O * @ { @ @ 4 ",
"y p 1 , 1 = e - - 0 # A.e < < < , # < < < # 0 e , b 5.r - - , 1 0 # , 0 < m.- b = 1 1 1 1 1 1 ; &.& : & & % % ; ; %   & ",
"- < , # - , < < < < ; $ 0 < e d # 0 e # e < , ^ d < S.0 < e # # , < 5.e = C.V.% ; ; ; ; ; & ; * X = D.3 2 1 2 2 3 3   . ",
"@ 5 5 5 ` _ 5 4 5 _ ` F.{ o o X X X X X X O G.@.. o . o o . * o X H.2 . . o @ * . @ { X o O X 4 ` # 2 % $     3 ; ; $ > ",
"X > > > 5 5 > 4 5 ` > ` %.. o . . o . . : . } m.: X O { + * O O . C., * X . X X : O 4 o : @ * @ { e 1 & & o X & & : $ * ",
"X > 4 4 + 4 > 5 > ` 5 ` ..: o o X o o o o o J.#.. X X O + * o @ O K., { * O O : * @ @ X o X X : X 0 2 ; % : X & % : : X ",
". 4 + 4 > > 5 5 5 ` 5 L.X : o o o o o o X o @ 3.: O * o * o . @ @ M.1.o o O o : O @ O * { o * X X p = : : % & %   : . : ",
": > > > ` > 4 5 ` 5 5 ` >.. o o . o X X o o @ 1.; * X X O @ * @ O P.0 & . @ o X O @ @ @ 4 . X @ X d - ; ; ; : . & : : ; ",
"; 4 5 > > 4 + > > 4 + > C.& . : o . o . . . 8.p 3 o I.X . % . . % z d % % ; ; & & ; ; ; & U.% & : q 0   3     = $ $ - 3 ",
"    ; V.%   $ P.  $ 3 Z.M.j $ $ n.     .Z.Z.Y.T.F d 5.<.4.6 w -.q @.F D 6.F q p 6 8 F q 8 6 6 p 1.6.l 9 9 q 9 h f h u p ",
"o X @ R.{ { { { @ { @ R.o.{ E.W.X.{ Q.R.Q.X.+ +.{ > R.D , m.- = 7.!.= = - ,.- - 2 & ~.t.X X * O O O X * * o * X O > 4 @ ",
"  2 : & ^.@ X : { { . . O X 4 5 >.. . o o o . . . * H.W q 9 9 e e 9 e = d 9 < w = 3 /.# & : : * O : * 4 O & O X { > 5 + ",
"$ 1 O X o X o : O + . : { * O { (.. o . o o . . . o (.Z < e p d p 8 d 1 d f e # 0 # ).3.X O X * o . o { * & X @ X * > + ",
"$ 1 { X @ X . @ { O * X X X & O . : o o X o o o X o . f.< e < < q < - , e e w 0 q w N.q.o * X @ : * + @ * @ o X . : 4 + ",
"$ , o o O . . * @ O O { o O * * : . o o o o o o X X : P 9 w # p 8 0 < , e 2 p e # p ;.d % . O * : X O { * + * X { o + + ",
"$ # & o O . * O @ @ @ + : * O ..: . o . . X X o X X : m h q e w d < < < < = 6 6 , d Y.=.% : X o o O O O * { X : O X + + ",
"$ p 3 3 3 3 $ 3 3 2 3 3 1 2 $ ;   ; & & : & : & & : Z._.f.k s k W Q k Z Z Z f.Z Q 7 c w 0 # # < , , < # < < e < # - . + ",
"X 0 d 2.d d < 0 0 2.! w d `.3.&.;.% % M.M.V.V.; ; ; Y./ f.s.i.p.'.].k 0.p.a.i.[.Q {.j ;.= D.t.,.D.2 1 2 1 = 1 1 t.$ O 5 ",
"# & ; % ; ; ; o : { o   : : o o o . o >.C.. o . { }.a % ;.; b.& Y.o |.X ' . . . o . : o o X 5  XH.+ + 4 > > { { > > 5 F.",
"q ; % ; : ;   & % $   < 3 2 $ : % 3 o o $ $ : % * @ =.3 ; % : :   ; ; 2 X j 3 $ 3 $ $ 3 2 2 : @ . O O @ @ @ * X @ @ O _ ",
"f % % : o X & & : ; 2 # . & ; % $ $ : o $ 3 . ; % o d 1 % ; . * : & : ; o t.$   $   $ $ $ $ ; %.. @ * * * O O O @ { O 5 ",
"r & & % : :     o : 1 q.. % . % $ o o & : & % % 3 K.4.3 : ; ; . % $ : . K.1 $ $ %   $ $   % ; X & * X X * O @ O @ { @ 5 ",
"h $ : % % & & % o & , w 3 % . $   & . . . X   . & & w - & &   & : ; & . % 1 $ $ $ $         ; |.; O * @ @ * O @ { @ @ > ",
"r $ : % . & & : o % , w 2 $ ; $ & & & & : . 2 % & & w - & ; : : ; : . ;   1 $ $ $   %       % . ; @ { { @ * O { { O @ 4 ",
"S 8 e w e w q p 8 f `.u 6 6 6 6 p 6 8 8 q q q 8 w # h l d 6 p 4.f 6 8 h 0 e # # , , # - , , - $ e 3 3 2 1 = = 1 = - -   ",
"e 0 e q.# e 0 0 e < ; c =.0 w w d 6 0 e d .X&.q 0 , 1 1.< 1.,.# = 1.6 d !.  2 S.3 2 S.2 3 3 3 K.; j   % % % % ; ; & : O ",
"p = = = 2 2 = # 1 2 2 O < l r f f r f 9 f d X N , , # , # # 2 - 3 = y w 6 d # 0 w # # p p e d 2 : XX1 % $     $ ; ; % > ",
"f , , , , , # e , = < % w i y i y u i i B y 2 7 , = 3     = 2 1 # p S d 6 8 e d 9 , 1 6 q - 0 = 3 0 1 & ; o X ; & : 3 X ",
"f , # < e # , , , = ,   D t u u l u u u u y - oX, - 1 3 % 1 = 3 2 6.S = e # 0 8 0 # , p q e d 8 # d = ; % : X : ; : & X ",
"u e 0 e # # , , , - ,   9 B y l h u u u h l < Q , 3 = = 2 , #   3 q Z 0 p < w 8 # , < < - w e w e w = : & % : %   & o : ",
"t # < , - # < , - - , j f i y u y l h l l l < W 0 2 - = 2 $ = $ 2 r c.f w - 6 d < , , , 1 8 < , e w , ; & % & . & & . ; ",
"V # - , , < e , , # < 1 l B y t u u l y y y p k p 1 # 2 , e = = 0 r c.r r q 9 6 8 q q q 6 h 9 6 0 8 e ; % ; & 3 % ; 3 $ ",
"J OXk f.r.g.c.g.OXc.J Q S J c.c.g.c.c.OXg.g.t U l.P I c.K U I U l.S +X@X#X@X@X$X#X@X%X&X&X*X%X=XI y C u y u u N i B 7 r "
};
