/* XPM */
static char *result[] = {
/* columns rows colors chars-per-pixel */
"60 60 222 2 ",
"   c #050A1E",
".  c #070815",
"X  c #040821",
"o  c #0C132A",
"O  c #131A2C",
"+  c #1B1D2B",
"@  c #151826",
"#  c #1A1F31",
"$  c #131934",
"%  c #1D2435",
"&  c #1C233A",
"*  c #1C212E",
"=  c #24252B",
"-  c #212434",
";  c #252B3C",
":  c #2A2D3B",
">  c #242838",
",  c #2D303D",
"<  c #33353D",
"1  c #322F3A",
"2  c #1B2441",
"3  c #232B43",
"4  c #262E47",
"5  c #2B3343",
"6  c #2C344B",
"7  c #2C384C",
"8  c #313442",
"9  c #333845",
"0  c #3B3C45",
"q  c #303749",
"w  c #333B4C",
"e  c #3C3E4A",
"r  c #2D3953",
"t  c #2A3757",
"y  c #343D52",
"u  c #343C5B",
"i  c #2D3B60",
"p  c #343D6B",
"a  c #403F47",
"s  c #3C414B",
"d  c #36414F",
"f  c #3B4354",
"g  c #35415D",
"h  c #3C455B",
"j  c #394558",
"k  c #344464",
"l  c #354569",
"z  c #3A466D",
"x  c #36496B",
"c  c #3A4A6C",
"v  c #3C4763",
"b  c #3C4C73",
"n  c #43454D",
"m  c #434548",
"M  c #414655",
"N  c #444953",
"B  c #4B4D55",
"V  c #444C5C",
"C  c #4B4E59",
"Z  c #454553",
"A  c #4C515C",
"S  c #4C5157",
"D  c #515154",
"F  c #51525A",
"G  c #5A595B",
"H  c #56595F",
"J  c #514E57",
"K  c #444E67",
"L  c #445165",
"P  c #4C5363",
"I  c #43516B",
"U  c #4A566D",
"Y  c #4C596C",
"T  c #555964",
"R  c #5B5B64",
"E  c #525B6C",
"W  c #5B5E6A",
"Q  c #555664",
"!  c #424E73",
"~  c #435275",
"^  c #4A5674",
"/  c #4C5B74",
"(  c #44547A",
")  c #49567B",
"_  c #4D5C7B",
"`  c #47587A",
"'  c #545D73",
"]  c #505E7C",
"[  c #605F6B",
"{  c #5C626C",
"}  c #54606E",
"|  c #4E607D",
" . c #5B6473",
".. c #55647C",
"X. c #5A667B",
"o. c #5C6A7E",
"O. c #566577",
"+. c #636266",
"@. c #65646A",
"#. c #6A6A6B",
"$. c #686969",
"%. c #626574",
"&. c #6B6B75",
"*. c #676977",
"=. c #73737A",
"-. c #7C7D7E",
";. c #727374",
":. c #706E77",
">. c #485980",
",. c #4F6282",
"<. c #546584",
"1. c #596782",
"2. c #556885",
"3. c #5B6B84",
"4. c #546589",
"5. c #566A8A",
"6. c #5B6C8B",
"7. c #58678C",
"8. c #5D708C",
"9. c #5E7086",
"0. c #5C6D91",
"q. c #5C7191",
"w. c #636D87",
"e. c #6A7483",
"r. c #62728B",
"t. c #6D7A8D",
"y. c #697488",
"u. c #7A7A83",
"i. c #717C8E",
"p. c #787985",
"a. c #637495",
"s. c #6C7B94",
"d. c #657798",
"f. c #737E92",
"g. c #857F8B",
"h. c #7D818B",
"j. c #6E809B",
"k. c #7A8597",
"l. c #7A8BA3",
"z. c #7887A3",
"x. c #848584",
"c. c #84868A",
"v. c #8C8C8D",
"b. c #8A8C93",
"n. c #838C9A",
"m. c #888C97",
"M. c #8D939D",
"N. c #8C9197",
"B. c #9B9B9B",
"V. c #949594",
"C. c #8C95A2",
"Z. c #8D9AAB",
"A. c #8794A8",
"S. c #989CA6",
"D. c #909EB0",
"F. c #9CA1A9",
"G. c #9CA6B2",
"H. c #98A6BA",
"J. c #ABACAD",
"K. c #A3A2AA",
"L. c #AEACB5",
"P. c #A3ADBC",
"I. c #AFACB9",
"U. c #A6A9B4",
"Y. c #B0AEB7",
"T. c #B2AFBC",
"R. c #ACB6BF",
"E. c #A5B1BE",
"W. c #B2B2B4",
"Q. c #B4B1BC",
"!. c #BABABD",
"~. c #B8B5BE",
"^. c #A3AFC2",
"/. c #A5B2C2",
"(. c #ABB7C4",
"). c #B7B4C1",
"_. c #B9B6C2",
"`. c #B4BDC6",
"'. c #BCBAC3",
"]. c #B3BCCA",
"[. c #C1BFC5",
"{. c #C1BEC8",
"}. c #BBC4CD",
"|. c #B9C1C9",
" X c #B8C7D2",
".X c #C3C2C5",
"XX c #C4C2C9",
"oX c #C9C7CE",
"OX c #CBCBCD",
"+X c #C3CACE",
"@X c #C1CCD4",
"#X c #CDCCD2",
"$X c #C3CDDA",
"%X c #D0CED6",
"&X c #C9D3DD",
"*X c #CFD8DE",
"=X c #D3D3D6",
"-X c #D6D5DA",
";X c #DBDADE",
":X c #D8D7DC",
">X c #CAD5E2",
",X c #D2DBE2",
"<X c #DDDDE3",
"1X c #D1DEE8",
"2X c #E0DFE3",
"3X c #DCE5EA",
"4X c #E4E4E6",
"5X c #E4E6E9",
"6X c #ECECEC",
"7X c #E6E9EB",
"8X c #F1F1EF",
"9X c #EAEFF3",
"0X c #E3EBF0",
"qX c #F0EFF1",
"wX c #ECF3F7",
"eX c #F3F3F4",
"rX c #F8F8F7",
"tX c #F6F7F8",
"yX c #F2F9FC",
"uX c #FEFEFE",
"iX c #F8F7F7",
"pX c None",
/* pixels */
"pXpXpXpXpXpXpXpXpXpXpXpXpXpXpXpXpXpXpXpXpXpXpXpXpXpXpXpXpXpXpXpXpXpXpXpXpXpXpXpXpXpXpXpXpXpXpXpXpXpXpXpXpXpXpXpXpXpXpXpX",
"pXpXpXpXpXpXpXpXpXpXpXpXpXpXpXpXpXpXpX%.:.C , - ; E 3.3.n.C.C.n.X.9.Y > - 5 F &.B pXpXpXpXpXpXpXpXpXpXpXpXpXpXpXpXpXpXpX",
"pXpXpXpXpXpXpXpXpXpXpXpXpXpXpXpXpX@.Q ; % h r.l ) 0.6.6.3XuXuX3Xo.3.6.! z r.j % ; W &.pXpXpXpXpXpXpXpXpXpXpXpXpXpXpXpXpX",
"pXpXpXpXpXpXpXpXpXpXpXpXpXpXpX#.R q y f.A.3.5.` z 4.0.q.P.].(.P.6.8.<.p ) 6.2.Z.s.y q W @.pXpXpXpXpXpXpXpXpXpXpXpXpXpXpX",
"pXpXpXpXpXpXpXpXpXpXpXpXpXJ C e f s.E.@X}...8.a.k t w w 5 5 5 5 9 q 4 ! a.8.1. X XP.y.j w : n pXpXpXpXpXpXpXpXpXpXpXpXpX",
"pXpXpXpXpXpXpXpXpXpXpXpX&.% r 3.6.k.*XE.A.L f d 3 %.-.-.#.@.+.+.+.@.B 3 y d U Z./.,Xh.5.5.7 ; &.pXpXpXpXpXpXpXpXpXpXpXpX",
"pXpXpXpXpXpXpXpXpXpXpXQ M ! c 6.5.d.A.I & } F.K.S.4XuXrXXX_._._._.{.K.=.=.b.H % U A.y.5.5.c ! h T pXpXpXpXpXpXpXpXpXpXpX",
"pXpXpXpXpXpXpXpXpXpXF M <.6.~ x 6./ > T W.=XrXrXuXuXuXiX!.T.Q.T.T.T.)._.).-X%XJ.Q ; ' <.l ( 0.2.h @.pXpXpXpXpXpXpXpXpXpX",
"pXpXpXpXpXpXpXpXpX+.M X.3.5.5.I w A B..XuXuXuXuXuXuXuXrX_.I.Q.Q.T.T.T.T.I.-XuXuX.XB.n w I 6.5.8...j &.pXpXpXpXpXpXpXpXpX",
"pXpXpXpXpXpXpXpXS f X.].&Xs._ V W.OXuXuXuXuXuXuXrXuXuXrX_.Q.T.T.T.I.T.T.#XeXuXuXuXrXOXJ.n E j.>X].O.y W pXpXpXpXpXpXpXpX",
"pXpXpXpXpXpXpXR M o.].yX0Xy.d .XuXuXuXuXuXuXuXuXuXuXuXtX_.I.T.T.T.).T.T.-XuXuXuXuXuXuXuX!.< t.9XyX(.X.M W pXpXpXpXpXpXpX",
"pXpXpXpXpXpX&.h O.E.yX0Xh.S '.rXuXuXuXuXuXuXuXuXuXuXuXrX!.T.T.).T.).T.Y.<XuXuXuXuXuXrXuXrX!.S m.9XtXU.O.V p.pXpXpXpXpXpX",
"pXpXpXpXpXQ w 1.<.P.3Xc.S |.rXuXuXuXuXuXuXuXuXuXuXuXuXuX.XQ.T.T.).T.T.#XrXuXuXuXuXuXuXuXrXuXW.B n.5XU...2.6 *.pXpXpXpXpX",
"pXpXpXpX:.+ v 4.5.w. .s !.rXuXuXuXuXuXuXuXuXuXuXuXuXuXrXeX_.T.Q.T.T.I.#XuXuXuXuXuXuXuXuXuXuXrXW.e  .3.3.2.v & u.pXpXpXpX",
"pXpXpXK.%.y ) z 4._ V |.uXuXuXuXuXuXuXuXuXuXuXuXuXuXuXuXrX_.T.T.T.T.Q.<XuXuXuXuXuXuXuXuXuXuXuXrX!.B Y 2.c ( u *.pXpXpXpX",
"pXpXpXu.9 3.6.( v P !.uXuXuXuXuXuXuXuXuXuXuXuXuXuXuXuXuXtX_.T.T.T.T.oXtXuXuXuXuXuXuXuXuXuXuXuXuXuXW.S h ~ 0.6.7 m.pXpXpX",
"pXpXpX{ y <.2.8.6 N.uXuXuXuXuXuXuXuXuXuXuXuXuXuXuXuXuXuXrX'.).T.T.Y.oXuXuXuXuXuXuXuXuXuXuXuXuXuXuXuXx., r.5.<.g *.pXpXpX",
"pXpXpX# s.H.l.I T '.uXuXuXuXuXuXuXuXuXuXuXuXuXuXuXuXuXuXtX_.).T.T.).;XuXuXuXuXuXuXuXuXuXuXuXuXuXuXuXW.H Y l.D.t.O pXpXpX",
"pXpXs d Z.:XC.; N.uXuXuXuXuXuXuXuXuXuXuXuXuXuXuXuXuXuXuXtX_.T.T.T.oXuXuXuXuXuXuXuXuXuXuXuXuXuXuXuXuXuXv.8 Z.,Xn.w C pXpX",
"pXpX% h.}.|.L T .XuXuXuXuXuXuXuXuXuXuXuXuXuXuXuXuXuXuXuXtX).I.T.Y.{.uXuXuXuXuXuXuXuXuXuXuXuXuXuXuXuXuX!.S P |.|.t.; c.pX",
"pXpX- i.G.A.d b.uXuXuXuXuXuXuXuXuXuXuXuXuXuXuXuXuXuXuXuXuX:XQ.T.'.5XuXuXuXuXuXuXuXuXuXuXuXuXuXuXuXuXuXuX-.f Z.H.t.3 N.pX",
"pX: L 3.1.L W -XrXuXuXuXuXuXuXuXuXuXuXuXuXuXuXuXuXuXuXuXuXqX~.T.{.tXuXuXuXuXuXuXuXuXuXuXuXuXuXuXuXuXuXrXOXD A ..2.K M pX",
"pX- 1.6.q.j R #XoX4XrXuXuXuXuXuXuXuXuXuXuXuXuXuXuXuXuXuXuX8XQ.T.{.uXuXuXuXuXuXuXuXuXuXuXuXuXuXuXuXuXuXuXuXG m 9.5.4.# pX",
"pX@ u b 0.j D ~.L.'.XX.X6XuXiXiXuXuXuXuXuXuXuXuXuXuXuXuXuXeXQ._.7XuXuXuXuXuXuXuXuXuXuXuXuXuXuXuXuXuXuXuXuXG n 6.x i o pX",
"pX# _ ( i > Q _.I.I.I.I._.{.{.qXuXrXuXuXuXuXuXuXuXuXuXuXuXeXQ.'.tXuXuXuXuXuXuXuXuXuXuXuXuXuXuXuXuXuXuXuXtX+.= r ( ( $ pX",
"pX' 6.6.i Z U.T.).I.).I.I.I.I.{._.oXeXeXrXuXuXuXuXuXuXuXuX8XQ..XrXuXuXuXuXuXuXuXuXuXuXuXuXuXuXuXuXuXuXuXuX;XF h 6.6.<.pX",
"pX3.5.6.g F {.T.T.).I.).T.).I.I.T.Q.~.~.#XeXeXrXuXuXuXuXuX8X'.eXrXuXuXuXuXuXuXuXuXuXuXuXuXuXuXuXuXuXuXuXuXuX$.N 6.5.d.pX",
"pX1.d.s.f J _.T.T.T.).T.T.T.).I.Q.T.Y.T.Q.~.W.-XeXeXuXuXuXeX[.rXuXuXuXuXuXuXuXuXuXuXuXuXuXuXrXeXeXeXeXeXeXiX+.M s.d.d.pX",
"pXi.0X$Xe F _.).T.T.T.T.Q.T.T.T.T.T.T.T.T.T.I.Q.W.Q.;X6X6X6XOXuXuXuXuXuXuXuXuXeX6X6X6X6X6X6X2X~.Q.Q.Q.Q.Q.'.J N &X3Xk.pX",
"pXt.yX&Xw F _.T.T.).).T.T.T.T.T.Y.T.Y.Y.Q.{.XX'.[.[.XX.X.XeXeX4X4X4X7X4X7X4X7XXXW.Q.T.W.I.T.T.T.T.T.T.T.Q.~.B n ,X9Xk.pX",
"pXi.yX>Xd D ).I.I.Y.Y.Y.T.[.{.{.{.{.{.{.:XuXtXuXuXuXrXuXuX6XqX.X[.'.I.L.Y.Y.Y.Y.T.T.T.T.T.T.T.T.Q.T.T.T.T._.C N 1X9Xn.pX",
"pXt. XH.f R %X@XoXoXoXoX%XeXuXuXuXuXuXuXuXuXuXuXuXuXuXuXiX!.eXuXuX6XOXoX'.L.I.T.Q.Q.Q.T.).T.).T.T.).).T.Q._.B N E.].k.pX",
"pX3.X.3.d @.uXuXyXrXrXuXuXuXuXuXuXuXuXuXuXuXuXuXuXuXuXuXrX|.eXuXuXuXuXrX4X#X#X_.Y.Y.T.Q.T.T.T.T.).T.T.T.T.).J Z 1.1.a.pX",
"pX6.5.6.j @.uXuXuXuXuXuXuXuXuXuXuXuXuXuXuXuXuXuXuXuXuXrX;X!.eXrXuXuXuXuXuXuXuX2X%X#XT.I.T.T.Q.Q.T.T.T.T.T.{.J Z w.7.a.pX",
"pXh 6.,.6 0 J.uXuXuXuXuXuXuXuXuXuXuXuXuXuXuXuXuXuXuXuXrX~.~.eXuXuXuXuXuXuXuXuXuXrXuX;X-X%XT.Y.Y.T.T.T.).).g.8 e 2.4.k pX",
"pX@ k x ( 9 $.uXuXuXuXuXuXuXuXuXuXuXuXuXuXuXuXuXuXuXuXrX'.Q.eXuXuXuXuXuXuXuXuXuXuXuXuXuXtX2X<X%XL.I.T.T._.a 8 ! z k o pX",
"pX+ ! >.0.M $.uXuXuXuXuXuXuXuXuXuXuXuXuXuXuXuXuXuXuXuX=XW.~.eXuXuXuXuXuXuXuXuXuXuXuXuXuXuXuXuXeX<X<XoXY._.Z n r.( b $ pX",
"pX- 3.6.0.h $.eXrXuXuXuXuXuXuXuXuXuXuXuXuXuXuXuXuXuXrX_.I._.eXuXuXuXuXuXuXuXuXuXuXuXuXuXuXuXuXuXuXuXqX2X2XF n 6.8.4.& pX",
"pXpXq 6.5...f K.uXuXuXuXuXuXuXuXuXuXuXuXuXuXuXuXuXrXtX.XI.~.eXuXuXuXuXuXuXuXuXuXuXuXuXuXuXuXuXuXuXuXuXuXV.n  .6.5.y P pX",
"pXpX% k.$XP.d h.eXuXuXuXuXuXuXuXuXuXuXuXuXuXuXuXuXuX#XQ.Q.Q.oXuXuXuXuXuXuXuXuXuXuXuXuXuXuXuXuXuXuXuXuXqX;.n E. Xj.; pXpX",
"pXpX; 3.P.}...s J.uXuXuXuXuXuXuXuXuXuXuXuXuXuXuXuXiX{.I.).I.{.tXuXuXuXuXuXuXuXuXuXuXuXuXuXuXuXuXuXuXuXJ.n X. XG.X.5 pXpX",
"pXpXpX% C.0XH.4 v.rXuXuXuXuXuXuXuXuXuXuXuXuXuXuXuXiX{.T.T.T.{.tXuXuXuXuXuXuXuXuXuXuXuXuXuXuXuXuXuXuXeXx.9 (.3Xn.# E pXpX",
"pXpXpX,  .e.w.1.s B.uXuXuXuXuXuXuXuXuXuXuXuXuXuXuXoXI.T.T.T.{.tXuXuXuXuXuXuXuXuXuXuXuXuXuXuXuXuXuXuXv.0 %.r.e.} 3 pXpXpX",
"pXpXpXp.r 8.6.4.y =.6XrXuXuXuXuXuXuXuXuXuXuXuXuXuX{.I.T.T.T.{.tXuXuXuXuXuXuXuXuXuXuXuXuXuXuXuXuXuX4X$.9 3.5.6.7 h.pXpXpX",
"pXpXpX=.d ..<.z ^ f N.eXuXuXuXuXuXuXuXuXuXuXuXuXqX[.Y.T.T.T.{.tXuXuXuXuXuXuXuXuXuXuXuXuXuXuXuXuXqXc.m L c 5.] y p.pXpXpX",
"pXpXpXpXB 4 ! ~ 6.3.9 b.6XuXuXuXuXuXuXuXuXuXuXrXoXY.T.T.T.T.{.tXrXuXuXuXuXuXuXuXuXuXuXuXuXuXuX7Xx.s o.6.! b 4 p.pXpXpXpX",
"pXpXpXpXpX; i 8.2.z.D.A u.8XuXuXuXuXuXuXuXuXuXuXOXY.Q.Q.).I._.2XrXuXuXuXuXuXuXuXuXuXuXuXuXrX4X;.S F.k.2.0.t r g.pXpXpXpX",
"pXpXpXpXpXpXw _ 2.|.uXR.N v.eXuXuXuXuXuXuXuXuX6X[.T.Q.T.I.).T._.rXuXuXuXuXuXuXuXuXuXuXuXuXeXx.D |.yX(...` u w.pXpXpXpXpX",
"pXpXpXpXpXpXpX7 / Z.0XtX(.N v.6XuXuXuXuXuXuXuX#XU.T.T.T.).T.T.{.tXuXuXuXuXuXuXuXuXuXuXuX7Xx.B `.yX5XM.Y 7 pXpXpXpXpXpXpX",
"pXpXpXpXpXpXpXpX5 L C.0XeXf.j -.eXuXuXuXuXuXuX=XI.).).T.).T.I.{.rXuXuXuXuXuXuXuXuXrXuX6X;.m k.yX0XN.h j pXpXpXpXpXpXpXpX",
"pXpXpXpXpXpXpXpX9 Y 3.C.F.r.<.L &.V.8XrXuXuX4X'.I.).T.T.I.I.I._.tXuXuXuXuXuXuXuXrX8Xv.#.B o.r.G.N...U w pXpXpXpXpXpXpXpX",
"pXpXpXpXpX= < e E r.v / 1.5.2.h d N $.B.eXrX=XY.).).T.T.I.).T.{.tXuXuXuXuXuXrXeXB.#.n s h 3.2.2.U v 9./ d pXpXpXpXpXpXpX",
"pXpXpX1 F A 9 V 6.K pX& ` 3.l ) 6.1.V C m B.-XW.).T.T.T.T.T.T.'.rXuXrXuXrXrXv.m B C X.6.( x 7.` 4 M j 8.h e P C > pXpXpX",
"pXpX+ q w.6.<.z 6 ; pXpX3 t ` 5.5.s.^.1.A B m 0 0 b.Q.T.T.T.T.!.7X6X!.D D D B F X./.s.5.5.( t 6 pXpX+ 5 b 4.6.3.6 - pXpX",
"pX: E ~ c 2.6.4.5 + pXpXpX$ 2 _ <.z.,X$X/.E A P 8 8 e e 0 0 0 m D D 0 < A S } R.$X,Xf.4.| & $ pXpXpX. , 3.5.2.x ( ^ 4 pX",
"pXq 1.5.b b 5.6.6 + pXpXpXpX  6 p 1.y.G. X..6.5.z ! ' T  .{ { { T { K c 5.9.2. XG.e.O.k 4   pXpXpXpX. 9 8.<.x ( 4.<.y pX",
"pX) l 2.5.b b 5.y pXpXpXpXpX+ ' U O q O.o.<.q.c b 0.6.6.*X0X0X&Xo.3.6.b b q.,.3...6 @ Y / @ pXpXpXpXpXw X.c ~ 0.<.k 4.pX",
"% 1.) l ,.0.b & pXpXpXpXpXpXpX3.L pXpX+ O g _ t c 5.6.6.+X3X2X+Xo.q.4.k p ] g O #  .+ P 6.pXpXpXpXpXpXpX% ! 0.>.l >.d.pX",
"pX] 0.( z ,.g pXpXpXpXpXpXpXpXh o pXpXpXpXpX    X L 8.3.y.e.e.e.9.q.c   X   pXpXpXpXpXpXpXpXpXpXpXpXpXpXpXh ..l >.0.0.pX",
"pXpXpXpXb 3 pXpXpXpXpXpXpXpXpXpX+ pXpXpXpXpXpXpXpXpXpXpXpXpXpXpXpXpXpXpXpXpXpXpXpXpXpXpXpXpXpXpXpXpXpXpXpXpXpXpXpXpXpXpX"
};
