/* XPM */
static char *result[] = {
/* columns rows colors chars-per-pixel */
"60 60 190 2 ",
"   c #38211B",
".  c #76280D",
"X  c #722917",
"o  c #462A25",
"O  c #4A2921",
"+  c #542A2A",
"@  c #573B26",
"#  c #4C2C30",
"$  c #5D2E37",
"%  c #4C3B3E",
"&  c #493338",
"*  c #5B343E",
"=  c #543739",
"-  c #6A382B",
";  c #64343B",
":  c #6A3731",
">  c #733934",
",  c #5D422E",
"<  c #61422C",
"1  c #6A4D39",
"2  c #764F33",
"3  c #75513D",
"4  c #3B3143",
"5  c #4B3C49",
"6  c #594A54",
"7  c #7A5646",
"8  c #7A5957",
"9  c #684749",
"0  c #7F6A4E",
"q  c #796248",
"w  c #7A6A55",
"e  c #665667",
"r  c #745F71",
"t  c #776668",
"y  c #81361C",
"u  c #8E442B",
"i  c #844C3F",
"p  c #9C4D3D",
"a  c #965233",
"s  c #994E40",
"d  c #8B5449",
"f  c #9A5948",
"g  c #865350",
"h  c #8B5456",
"j  c #855A59",
"k  c #81694B",
"l  c #85684D",
"z  c #916649",
"x  c #826C52",
"c  c #876750",
"v  c #877155",
"b  c #897255",
"n  c #8B755A",
"m  c #8E7B5D",
"M  c #87785F",
"N  c #937A57",
"B  c #927B5B",
"V  c #9A7F5C",
"C  c #927054",
"Z  c #AD6546",
"A  c #AE664B",
"S  c #B86847",
"D  c #BA6A53",
"F  c #B7705C",
"G  c #896160",
"H  c #976E6D",
"J  c #927D60",
"K  c #9A7E6A",
"L  c #966D72",
"P  c #A0686C",
"I  c #B77668",
"U  c #C16A49",
"Y  c #CE775F",
"T  c #C57968",
"R  c #9B815F",
"E  c #9C8362",
"W  c #968060",
"Q  c #A28764",
"!  c #A78E6C",
"~  c #A98E6C",
"^  c #B98768",
"/  c #AC916E",
"(  c #B9996F",
")  c #A18F73",
"_  c #B78579",
"`  c #AF9573",
"'  c #AE977C",
"]  c #B29673",
"[  c #BB9276",
"{  c #B1957A",
"}  c #BA9775",
"|  c #C6856A",
" . c #C78566",
".. c #D78B67",
"X. c #DB976B",
"o. c #D78C71",
"O. c #C89376",
"+. c #D6917B",
"@. c #EE9F75",
"#. c #CBA97E",
"$. c #D2A77F",
"%. c #D3A077",
"&. c #ECA476",
"*. c #ECA47A",
"=. c #EAA675",
"-. c #8D8797",
";. c #928691",
":. c #A88882",
">. c #BC9F92",
",. c #BDA68A",
"<. c #B3ACA3",
"1. c #C89788",
"2. c #C59D98",
"3. c #C6A986",
"4. c #CCAB82",
"5. c #C5AA89",
"6. c #CAAD8A",
"7. c #CCA783",
"8. c #D1AF85",
"9. c #D4A783",
"0. c #CFB088",
"q. c #D4B286",
"w. c #D5B489",
"e. c #D9B689",
"r. c #DCBA8E",
"t. c #C4B199",
"y. c #C4B096",
"u. c #DDBD93",
"i. c #D5BC9D",
"p. c #D9BE9B",
"a. c #D6B893",
"s. c #E1A582",
"d. c #E6AA88",
"f. c #F3AF8A",
"g. c #F5B081",
"h. c #FFBE8B",
"j. c #F9B986",
"k. c #E1BE92",
"l. c #E6BA99",
"z. c #F8B494",
"x. c #FBBE92",
"c. c #F6BF9E",
"v. c #FFBF9B",
"b. c #F6BF97",
"n. c #D9ACA2",
"m. c #CABAA5",
"M. c #DBBFA4",
"N. c #D6BFA4",
"B. c #EEB8A9",
"V. c #F4BCA2",
"C. c #FCC08E",
"Z. c #E4C295",
"A. c #E2C39B",
"S. c #E8C598",
"D. c #F9C195",
"F. c #FFC39B",
"G. c #F8C49A",
"H. c #D4C5AB",
"J. c #D7C5A8",
"K. c #DBCDB4",
"L. c #DED4BC",
"P. c #DDD0B7",
"I. c #E8C7A6",
"U. c #F8C8A5",
"Y. c #FED9AF",
"T. c #E2D5BA",
"R. c #EBD4BA",
"E. c #E4D9BE",
"W. c #EED7B8",
"Q. c #F3D9BD",
"!. c #FCDEBD",
"~. c #F8D4B5",
"^. c #DFD5C0",
"/. c #D2CDD3",
"(. c #E2D7C1",
"). c #E3D8C2",
"_. c #EADEC5",
"`. c #E8D9C9",
"'. c #F4DDC3",
"]. c #EFE1C6",
"[. c #EDE2CC",
"{. c #F4E1C7",
"}. c #F2E6CD",
"|. c #FCE6CA",
" X c #F6E9CE",
".X c #FAE4C9",
"XX c #EFE5D0",
"oX c #F1E7D1",
"OX c #F4EAD3",
"+X c None",
/* pixels */
"+X+X+X+X+X+X+X+X+X+X+X+X+X+X+X+X+X+X+X+X+X+X+X+XS.Z.Z.S.+X+X+X+XZ.Z.Z.S.+X+X+X+X+X+X+X+X+X+X+X+X+X+X+X+X+X+X+X+X+X+X+X+X",
"+X+X+X+X+X+X+X+X+X+X+X+X+X+X+X+X+X+X+X+X+X+XA.Z.k.k.k.Z.e.( ( e.Z.k.k.k.S.Z.+X+X+X+X+X+X+X+X+X+X+X+X+X+X+X+X+X+X+X+X+X+X",
"+X+X+X+X+X+X+X+X+X+X+X+X+X+X+X+X+X+X+X+X+XA.k.k.k.k.k.k.k.q.w.A.k.k.k.k.k.k.Z.+X+X+X+X+X+X+X+X+X+X+X+X+X+X+X+X+X+X+X+X+X",
"+X+X+X+X+X+X+X+X+X+X+X+X+X+X+X+X+X+X+XZ.Z.k.k.k.k.k.k.k.u.r.r.u.Z.k.k.k.k.k.k.Z.S.+X+X+X+X+X+X+X+X+X+X+X+X+X+X+X+X+X+X+X",
"+X+X+X+X+X+X+X+X+X+X+X+X+X+X+X+X+X+XJ.Z.k.k.k.k.k.k.k.r.q.#.#.q.r.Z.r.r.k.k.k.k.k.S.+X+X+X+X+X+X+X+X+X+X+X+X+X+X+X+X+X+X",
"+X+X+X+X+X+X+X+X+X+X+X+X+X+X+X+X+X+Xp.Z.k.k.k.k.Z.Z.r.q.#.7.#.#.q.u.Z.Z.k.k.k.k.Z.r.+X+X+X+X+X+X+X+X+X+X+X+X+X+X+X+X+X+X",
"+X+X+X+X+X+X+X+X+X+X+X+X+X+X+X+X+X+Xw.u.k.k.k.k.q.q.8.#.#.#.#.#.#.q.q.q.k.k.k.k.k.q.+X+X+X+X+X+X+X+X+X+X+X+X+X+X+X+X+X+X",
"+X+X+X+X+X+X+X+X+X+X+X+X+X+X+X+X+X+X6.u.k.k.q.q.#.#.#.#.3.#.#.#.#.#.#.#.q.q.k.k.r.8.+X+X+X+X+X+X+X+X+X+X+X+X+X+X+X+X+X+X",
"+X+X+X+X+X+X+X+X+X+X+X+X+X+X+X+X+X+X+X6.6.8.7.3.#.#.7.#.#.#.7.#.#.#.7.7.7.4.q.q.6.+X+X+X+X+X+X+X+X+X+X+X+X+X+X+X+X+X+X+X",
"+X+X+X+X+X+X+X+X+X+X+X+X+X+X+X+X+X+X+X+X7.3.3.5.3.3.3.7.$.9.3.7.$.7.3.3.3.3.3.7.+X+X+X+X+X+X+X+X+X+X+X+X+X+X+X+X+X+X+X+X",
"+X+X+X+X+X+X+X+X+X+X+X+X+X+X+X+X+X+X+X+X+X+X@ , , E 1 { [ z z [ [ 1 K $ , @ +X+X+X+X+X+X+X+X+X+X+X+X+X+X+X+X+X+X+X+X+X+X",
"+X+X+X+X+X+X+X+X+X+X+X+X+X+X+X+X+X+X+X+X+X+X  o O = % 5 8 [  .d % % % o O   +X+X+X+X+X+X+X+X+X+X+X+X+X+X+X+X+X+X+X+X+X+X",
"+X+X+X+X+X+X+X+X+X+X+X+X+X+X+X+X+X+X+X+X+X+X5 # L 9 -.4 e >.o.7 5 -.6 L + = +X+X+X+X+X+X+X+X+X+X+X+X+X+X+X+X+X+X+X+X+X+X",
"+X+X+X+X+X+X+X+X+X+X+X+X+X+X+X+X+X+X+X+X+X+X* h g G /.5 r n.d.j 5 /.t 7 h ; +X+X+X+X+X+X+X+X+X+X+X+X+X+X+X+X+X+X+X+X+X+X",
"+X+X+X+X+X+X+X+X+X+X+X+X+X+X+X+X+X+X+X+X+X+X* P h 2.`.) 2.U.v.1.:.`.>.g P ; +X+X+X+X+X+X+X+X+X+X+X+X+X+X+X+X+X+X+X+X+X+X",
"+X+X+X+X+X+X+X+X+X+X+X+X+X+X+X+X+X+X+X+X+X+X+X5 ; I V.b.b.x.h.x.b.x.^ : $ +X+X+X+X+X+X+X+X+X+X+X+X+X+X+X+X+X+X+X+X+X+X+X",
"+X+X+X+X+X+X+X+X+X+X+X+X+X+X+X+X+X+X+X+X+X+X+X+X* g z.x.C.C.C.C.C.*.a - +X+X+X+X+X+X+X+X+X+X+X+X+X+X+X+X+X+X+X+X+X+X+X+X",
"+X+X+X+X+X+X+X+X+X+X+X+X+X+X+X+X+X+X+X+X+X+X+X+X+X> A o.*.&.&.=...Z y +X+X+X+X+X+X+X+X+X+X+X+X+X+X+X+X+X+X+X+X+X+X+X+X+X",
"+X+X+X+X+X+X+X+X+X+X+X+X+X+X+X+X+X+X+X+X+X+X+X+X+X+XX u Z Z Z Z u . +X+X+X+X+X+X+X+X+X+X+X+X+X+X+X+X+X+X+X+X+X+X+X+X+X+X",
"+X+X+X+X+X+X+X+X+X+X+X+X+X+X+X+X+X+X+X+X+X+XE.T.R.M.f F +.+.+.+.F f B.~.W.T.+X+X+X+X+X+X+X+X+X+X+X+X+X+X+X+X+X+X+X+X+X+X",
"+X+X+X+X+X+X+X+X+X+X+X+X+X+X+X+X+X+X+X+X+X(.)._.).B.| z.F.F.v.v.z. .V.Q._.].L.+X+X+X+X+X+X+X+X+X+X+X+X+X+X+X+X+X+X+X+X+X",
"+X+X+X+X+X+X+X+X+X+X+X+X+X+X+X+X+X+X+X+X_.].OXOXOXQ.U.g.=.C.h.=.g.D.Y.|.XXOX[.).+X+X+X+X+X+X+X+X+X+X+X+X+X+X+X+X+X+X+X+X",
"+X+X+X+X+X+X+X+X+X+X+X+X+X+X+X+X+X+X+XT._.OXOXOXOX{.I.%.j.C.h.j.X.G.!. XOXOXOX].E.+X+X+X+X+X+X+X+X+X+X+X+X+X+X+X+X+X+X+X",
"+X+X+X+X+X+X+X+X+X+X+X+X+X+X+X+X+X+X+XT.].OXOXOXOXOXQ.S.C.j.j.h.G.Y.|.OXOXOXOX[.E.+X+X+X+X+X+X+X+X+X+X+X+X+X+X+X+X+X+X+X",
"+X+X+X+X+X+X+X+X+X+X+X+X+X+X+X+X+X+X+XT.}.OXXX).OXOX].W.C.=.&.h.G.!. XOX].[.OX}.E.+X+X+X+X+X+X+X+X+X+X+X+X+X+X+X+X+X+X+X",
"+X+X+X+X+X+X+X+X+X+X+X+X+X+X+X+X+X+X+XE.}.OX[.).OXOX XQ.G.=.&.F.Y.|.OXOX^.[.OXXXE.+X+X+X+X+X+X+X+X+X+X+X+X+X+X+X+X+X+X+X",
"+X+X+X+X+X+X+X+X+X+X+X+X+X+X+X+X+X+X^.[.OXOX[.(.}.OXOX].~.9.@.U.'. XOXoX).[.OXOX].T.+X+X+X+X+X+X+X+X+X+X+X+X+X+X+X+X+X+X",
"+X+X+X+X+X+X+X+X+X+X+X+X+X+X+X+X+X+XL.{.OXOX[.(.[.oXOXXX_.l.b.'.OXoXoX[.).XXOXOX].L.+X+X+X+X+X+X+X+X+X+X+X+X+X+X+X+X+X+X",
"+X+X+X+X+X+X+X+X+X+X+X+X+X+X+X+X+X+XE.[.OX}.[.(.`.[.XXoX}.'..X.XoX[.[.[.).[.}.OX[.T.+X+X+X+X+X+X+X+X+X+X+X+X+X+X+X+X+X+X",
"+X+X+X+X+X+X+X+X+X+X+X+X+X+X+X+X+X+X^.].OX[.[.(.XXXXoXOXOXOXOXOXOXoX[.[.).[.XXOX].L.+X+X+X+X+X+X+X+X+X+X+X+X+X+X+X+X+X+X",
"+X+X+X+X+X+X+X+X+X+X+X+X+X+X+X+X+X+XL.[.OXXX[.^.[.XXOXOXOXOXOXOXOXOXXX].(.[.[.OX}.].+X+X+X+X+X+X+X+X+X+X+X+X+X+X+X+X+X+X",
"+X+X+X+X+X+X+X+X+X+X+X+X+X+X+X+X+X+X).OXOX[.[.^.[.[.OXOXOXOXOXOXOXOX[.[.(.[.XXOXOX[.+X+X+X+X+X+X+X+X+X+X+X+X+X+X+X+X+X+X",
"+X+X+X+X+X+X+X+X+X+X+X+X+X+X+X+X+X_.}.OXOX[.[.).[.OXOXOXOXOXOXOXOXOXOXXX).[.[.oXOX].+X+X+X+X+X+X+X+X+X+X+X+X+X+X+X+X+X+X",
"+X+X+X+X+X+X+X+X+X+X+X+X+X+X+X+X+X].OXOX[.[.[.(.[.OXOXOXOXOXOXOXOXOXOX[.).`.[.oXOX].+X+X+X+X+X+X+X+X+X+X+X+X+X+X+X+X+X+X",
"+X+X+X+X+X+X+X+X+X+X+X+X+X+X+X+X+XR.R.W.].].[.(.[.OXOXOXOXOXOXOXOXOXOX[.(.).R.W._.,.+X+X+X+X+X+X+X+X+X+X+X+X+X+X+X+X+X+X",
"+X+X+X+X+X+X+X+X+X+X+X+X+X+X+X+X+X+XO.9.p.P.E.K.`.XXXXOXOXOXOXOXOXXX[.[.P.+XC O.s.| +X+X+X+X+X+X+X+X+X+X+X+X+X+X+X+X+X+X",
"+X+X+X+X+X+X+X+X+X+X+X+X+X+X+X+X+X+XD ..^ 7 +Xm H.K.P.[.].[.[.[.[.L.H.H.w +X2  ...S +X+X+X+X+X+X+X+X+X+X+X+X+X+X+X+X+X+X",
"+X+X+X+X+X+X+X+X+X+X+X+X+X+X+X+X+X+XU o.z < +Xw J J ) J.H.H.H.H.H.) W W M +X< z o.U +X+X+X+X+X+X+X+X+X+X+X+X+X+X+X+X+X+X",
"+X+X+X+X+X+X+X+X+X+X+X+X+X+X+X+X+X+XD Y T i g m J W W B B m W m W W R W W q 3 I T U +X+X+X+X+X+X+X+X+X+X+X+X+X+X+X+X+X+X",
"+X+X+X+X+X+X+X+X+X+X+X+X+X+X+X+X+X+X+Xp p +Xc J E ' ` B B m n B M ! ` E m 0 +Xd s +X+X+X+X+X+X+X+X+X+X+X+X+X+X+X+X+X+X+X",
"+X+X+X+X+X+X+X+X+X+X+X+X+X+X+X+X+X+X+X+X+X+Xx B ] ] / R B b b B E / ] / B k +X+X+X+X+X+X+X+X+X+X+X+X+X+X+X+X+X+X+X+X+X+X",
"+X+X+X+X+X+X+X+X+X+X+X+X+X+X+X+X+X+X+X+X+X+Xw m ] ] ( ~ B b b m / ] ] ( B k +X+X+X+X+X+X+X+X+X+X+X+X+X+X+X+X+X+X+X+X+X+X",
"+X+X+X+X+X+X+X+X+X+X+X+X+X+X+X+X+X+X+X+X+X+Xw J ` ] ] / B b b J ! ] ] ] N k +X+X+X+X+X+X+X+X+X+X+X+X+X+X+X+X+X+X+X+X+X+X",
"+X+X+X+X+X+X+X+X+X+X+X+X+X+X+X+X+X+X+X+X+X+Xw B ] ] ] ~ N b b J ! ] ] ] B k +X+X+X+X+X+X+X+X+X+X+X+X+X+X+X+X+X+X+X+X+X+X",
"+X+X+X+X+X+X+X+X+X+X+X+X+X+X+X+X+X+X+X+X+X+X+Xb E ] ] / B b b B ! ] ] Q b +X+X+X+X+X+X+X+X+X+X+X+X+X+X+X+X+X+X+X+X+X+X+X",
"+X+X+X+X+X+X+X+X+X+X+X+X+X+X+X+X+X+X+X+X+X+X+Xw B ] ] ! B b b B ! ] ] B k +X+X+X+X+X+X+X+X+X+X+X+X+X+X+X+X+X+X+X+X+X+X+X",
"+X+X+X+X+X+X+X+X+X+X+X+X+X+X+X+X+X+X+X+X+X+X+Xk B E ] ! B b b m ! ] Q N k +X+X+X+X+X+X+X+X+X+X+X+X+X+X+X+X+X+X+X+X+X+X+X",
"+X+X+X+X+X+X+X+X+X+X+X+X+X+X+X+X+X+X+X+X+X+X+X0 B V ] ~ B b b J ! ] V N k +X+X+X+X+X+X+X+X+X+X+X+X+X+X+X+X+X+X+X+X+X+X+X",
"+X+X+X+X+X+X+X+X+X+X+X+X+X+X+X+X+X+X+X+X+X+X+Xn R E ] R E m n E E ] Q W b +X+X+X+X+X+X+X+X+X+X+X+X+X+X+X+X+X+X+X+X+X+X+X",
"+X+X+X+X+X+X+X+X+X+X+X+X+X+X+X+X+X+X+X+X+X+XJ.i.p.p.u.p.p.] ' i.p.u.u.p.p.p.+X+X+X+X+X+X+X+X+X+X+X+X+X+X+X+X+X+X+X+X+X+X",
"+X+X+X+X+X+X+X+X+X+X+X+X+X+X+X+X+X+X+X+X+X+XJ.u.u.u.k.k.A.+XJ.p.u.k.u.k.u.k.+X+X+X+X+X+X+X+X+X+X+X+X+X+X+X+X+X+X+X+X+X+X",
"+X+X+X+X+X+X+X+X+X+X+X+X+X+X+X+X+X+X+X+X+X+X+Xk.r.k.k.k.r.a.m.i.u.k.k.u.k.+X+X+X+X+X+X+X+X+X+X+X+X+X+X+X+X+X+X+X+X+X+X+X",
"+X+X+X+X+X+X+X+X+X+X+X+X+X+X+X+X+X+X+X+X+X+X+X+X#.k.k.u.0.5.<.y.r.k.Z.#.+X+X+X+X+X+X+X+X+X+X+X+X+X+X+X+X+X+X+X+X+X+X+X+X",
"+X+X+X+X+X+X+X+X+X+X+X+X+X+X+X+X+X+X+X+X+X+X+X+X0.e.k.r.6.5.<.t.u.k.e.4.+X+X+X+X+X+X+X+X+X+X+X+X+X+X+X+X+X+X+X+X+X+X+X+X",
"+X+X+X+X+X+X+X+X+X+X+X+X+X+X+X+X+X+X+X+X+X+X+X+X+X4.k.r.8.3.<.t.u.k.7.+X+X+X+X+X+X+X+X+X+X+X+X+X+X+X+X+X+X+X+X+X+X+X+X+X",
"+X+X+X+X+X+X+X+X+X+X+X+X+X+X+X+X+X+X+X+X+X+X+X+X6.e.k.r.0.3.<.t.u.k.r.4.+X+X+X+X+X+X+X+X+X+X+X+X+X+X+X+X+X+X+X+X+X+X+X+X",
"+X+X+X+X+X+X+X+X+X+X+X+X+X+X+X+X+X+X+X+X+X+X+X+X6.k.u.e.0.5.<.t.e.u.u.#.+X+X+X+X+X+X+X+X+X+X+X+X+X+X+X+X+X+X+X+X+X+X+X+X",
"+X+X+X+X+X+X+X+X+X+X+X+X+X+X+X+X+X+X+X+X+X+X+X6.a.u.e.q.0.3.+Xt.q.e.r.r.4.+X+X+X+X+X+X+X+X+X+X+X+X+X+X+X+X+X+X+X+X+X+X+X",
"+X+X+X+X+X+X+X+X+X+X+X+X+X+X+X+X+X+X+X+X+X+X+X7.e.e.q.q.0.+X+Xt.e.q.e.w.#.+X+X+X+X+X+X+X+X+X+X+X+X+X+X+X+X+X+X+X+X+X+X+X",
"+X+X+X+X+X+X+X+X+X+X+X+X+X+X+X+X+X+X+X+X+X+X+X+X#.#.#.#.7.+X+X6.3.#.#.#.+X+X+X+X+X+X+X+X+X+X+X+X+X+X+X+X+X+X+X+X+X+X+X+X"
};
