/* XPM */
static char *result[] = {
/* columns rows colors chars-per-pixel */
"60 60 193 2 ",
"   c #3F1806",
".  c #351C13",
"X  c #39211A",
"o  c #361F23",
"O  c #2C2125",
"+  c #322124",
"@  c #3C2423",
"#  c #3A292A",
"$  c #392E32",
"%  c #43241A",
"&  c #4B281A",
"*  c #562A1E",
"=  c #532B17",
"-  c #4C2C26",
";  c #462C27",
":  c #572D25",
">  c #41312D",
",  c #4D3128",
"<  c #5D342C",
"1  c #55312C",
"2  c #46373A",
"3  c #543535",
"4  c #5C3431",
"5  c #59373B",
"6  c #6C2D20",
"7  c #6C392C",
"8  c #683836",
"9  c #524139",
"0  c #75402F",
"q  c #6E453D",
"w  c #744533",
"e  c #6F523D",
"r  c #493E54",
"t  c #5D3648",
"y  c #584348",
"u  c #5E4951",
"i  c #614347",
"p  c #744C4C",
"a  c #7B5B46",
"s  c #735D4B",
"d  c #735644",
"f  c #725A50",
"g  c #7D664D",
"h  c #7E684D",
"j  c #7C6552",
"k  c #7B6952",
"l  c #624B67",
"z  c #8D452E",
"x  c #914734",
"c  c #8B503F",
"v  c #AE5C3E",
"b  c #834E45",
"n  c #865944",
"m  c #925546",
"M  c #895551",
"N  c #AA5B42",
"B  c #836B4D",
"V  c #886048",
"C  c #907B4B",
"Z  c #8A6353",
"A  c #816953",
"S  c #8B635A",
"D  c #88655C",
"F  c #966A5A",
"G  c #8C7555",
"H  c #89725C",
"J  c #8E785A",
"K  c #8F7854",
"L  c #917B57",
"P  c #90765A",
"I  c #937B5B",
"U  c #997E5B",
"Y  c #967157",
"T  c #AB6C57",
"R  c #B26D59",
"E  c #A3725D",
"W  c #AC7359",
"Q  c #B1725A",
"!  c #8E7761",
"~  c #91777E",
"^  c #A56F62",
"/  c #AE7264",
"(  c #AE766A",
")  c #BD7F71",
"_  c #A8767A",
"`  c #C27654",
"'  c #9D815C",
"]  c #9D8361",
"[  c #A18561",
"{  c #A68969",
"}  c #AA8F6B",
"|  c #AA906D",
" . c #B2976D",
".. c #AE8C73",
"X. c #B88676",
"o. c #AE9472",
"O. c #AD947E",
"+. c #B29672",
"@. c #BA9B74",
"#. c #BA9477",
"$. c #BFA079",
"%. c #C7846E",
"&. c #C9856E",
"*. c #D48769",
"=. c #D98D6C",
"-. c #C78675",
";. c #D78970",
":. c #DF9C7D",
">. c #E39D75",
",. c #E69C7B",
"<. c #E99A77",
"1. c #CBAA7F",
"2. c #DFA87B",
"3. c #C2B17A",
"4. c #E9A67A",
"5. c #877B8A",
"6. c #BB9F83",
"7. c #AA8590",
"8. c #BFA190",
"9. c #C59B84",
"0. c #D99780",
"q. c #C5A985",
"w. c #CBAB82",
"e. c #C3AB8B",
"r. c #CAAE8A",
"t. c #C2A681",
"y. c #D0AF84",
"u. c #DEA981",
"i. c #CEB089",
"p. c #C9B188",
"a. c #D4B286",
"s. c #D5B48A",
"d. c #D8B58A",
"f. c #DBBA8D",
"g. c #C9AF93",
"h. c #D2A398",
"j. c #CAB596",
"k. c #C5B297",
"l. c #D5B994",
"z. c #DDBC92",
"x. c #DABF9B",
"c. c #D6B79A",
"v. c #E6A888",
"b. c #F3AE8C",
"n. c #FEBE8C",
"m. c #F6B489",
"M. c #E1BE92",
"N. c #ECB79D",
"B. c #F5B293",
"V. c #F7BD93",
"C. c #FEBE93",
"Z. c #F4BA9B",
"A. c #F1B499",
"S. c #CDB8A4",
"D. c #D5B8A2",
"F. c #E4BDA4",
"G. c #DBC09E",
"H. c #DFC796",
"J. c #FFC08C",
"K. c #E5C296",
"L. c #E3C39A",
"P. c #F9C199",
"I. c #D7C0A1",
"U. c #E1C6A2",
"Y. c #F2CCA9",
"T. c #F2CAA5",
"R. c #F6CDB0",
"E. c #ECD2B5",
"W. c #E3D5BA",
"Q. c #EBD6BC",
"!. c #E6D7BC",
"~. c #F3DCBE",
"^. c #F8D2B1",
"/. c #F2E5BD",
"(. c #DFD4C1",
"). c #D9CED4",
"_. c #E2D7C1",
"`. c #E5D8C1",
"'. c #EBDEC5",
"]. c #EBDFC8",
"[. c #F5DDC5",
"{. c #F2DFC9",
"}. c #E2D5D5",
"|. c #EFE1C4",
" X c #EDE2CC",
".X c #F2E2C6",
"XX c #F3E5CC",
"oX c #F4E8CF",
"OX c #EFE4D0",
"+X c #F2E7D1",
"@X c #F4EBD4",
"#X c #F2E3D9",
"$X c None",
/* pixels */
"$X$X$X$X$X$X$X$X$X$X$X$X$X$X$X$X$X$X$X$X$X$X$X+.+. .@.M.K.M.M.M.M.K.M.#. . .$X$X$X$X$X$X$X$X$X$X$X$X$X$X$X$X$X$X$X$X$X$X",
"$X$X$X$X$X$X$X$X$X$X$X$X$X$X$X$X$X$X$X$X$X$X+.+.@.@.z.M.M.M.M.M.M.M.M.z.@.+.+.+.$X$X$X$X$X$X$X$X$X$X$X$X$X$X$X$X$X$X$X$X",
"$X$X$X$X$X$X$X$X$X$X$X$X$X$X$X$X$X$X$X$XG.q.+.@.z.L.M.M.M.M.M.M.M.M.M.M.z.@.+.+.+.$X$X$X$X$X$X$X$X$X$X$X$X$X$X$X$X$X$X$X",
"$X$X$X$X$X$X$X$X$X$X$X$X$X$X$X$X$X$X$X$Xq.l.w.z.K.M.M.M.M.M.M.M.M.M.M.M.M.f.+.+.#.i.U.$X$X$X$X$X$X$X$X$X$X$X$X$X$X$X$X$X",
"$X$X$X$X$X$X$X$X$X$X$X$X$X$X$X$X$X$X$X$X$Xe.d.z.M.z.K.z.M.M.M.M.M.M.M.M.H.d.@.@.a.K.G.L.$X$X$X$X$X$X$X$X$X$X$X$X$X$X$X$X",
"$X$X$X$X$X$X$X$X$X$X$X$X$X$X$X$X$X$X$X$X$X$Xq.a.z.K.z.z.M.M.M.M.M.M.M.z.s.y.d.a.K.z.K.z.x.$X$X$X$X$X$X$X$X$X$X$X$X$X$X$X",
"$X$X$X$X$X$X$X$X$X$X$X$X$X$X$X$X$X$X$X$X$X$X$Xw.s.d.d.d.s.d.M.M.M.M.s.y.1.1.w.z.M.f.K.d.a.$X$X$X$X$X$X$X$X$X$X$X$X$X$X$X",
"$X$X$X$X$X$X$X$X$X$X$X$X$X$X$X$X$X$X$X$X$X$X$X$Xg.e.g.e.g.r.l.l.l.s.1.1.1.1.1.1.f.K.f.w.q.$X$X$X$X$X$X$X$X$X$X$X$X$X$X$X",
"$X$X$X$X$X$X$X$X$X$X$X$X$X$X$X$X$X$X$X$X$X$X$X$Xs j a H A ! j a I r.r.r.r.r.i.r.r.s.r.q.$X$X$X$X$X$X$X$X$X$X$X$X$X$X$X$X",
"$X$X$X$X$X$X$X$X$X$X$X$X$X$X$X$X$X$X$X$X$X$X$X$X. & . , . & &   = a e j j d f ! g.e.e.$X$X$X$X$X$X$X$X$X$X$X$X$X$X$X$X$X",
"$X$X$X$X$X$X$X$X$X$X$X$X$X$X$X$X$X$X$X$X$X$X$X$X$X@ D : S S : F M , j @ > . $ 9 s d $X$X$X$X$X$X$X$X$X$X$X$X$X$X$X$X$X$X",
"$X$X$X$X$X$X$X$X$X$X$X$X$X$X$X$X$X$X$X$X$X$X$X$X$X+ y 4 X.-.T p y r y @ - % , > 2 $ $X$X$X$X$X$X$X$X$X$X$X$X$X$X$X$X$X$X",
"$X$X$X$X$X$X$X$X$X$X$X$X$X$X$X$X$X$X$X$X$X$X$X$X$X2 ~ 8 ) ;.) 5 y 5.r D 7 9.D > 2 2 O $X$X$X$X$X$X$X$X$X$X$X$X$X$X$X$X$X",
"$X$X$X$X$X$X$X$X$X$X$X$X$X$X$X$X$X$X$X$X$X$X$X$X$X5 ).p ) b.&.t l ).q %.*.Z.Y # $ # O $X$X$X$X$X$X$X$X$X$X$X$X$X$X$X$X$X",
"$X$X$X$X$X$X$X$X$X$X$X$X$X$X$X$X$X$X$X$X$X$X$X$X$X2 }.7.A.C.B._ 7.#X%.*.<.0.7 # O O $X$X$X$X$X$X$X$X$X$X$X$X$X$X$X$X$X$X",
"$X$X$X$X$X$X$X$X$X$X$X$X$X$X$X$X$X$X$X$X$X$X$X$X$X4 h.Z.C.n.n.Z.Z.P.V.B.v.^ 1 $ O $X$X$X$X$X$X$X$X$X$X$X$X$X$X$X$X$X$X$X",
"$X$X$X$X$X$X$X$X$X$X$X$X$X$X$X$X$X$X$X$X$X$X$X$X$X4 b v.C.n.n.n.n.n.m.W 7 4 3 + $X$X$X$X$X$X$X$X$X$X$X$X$X$X$X$X$X$X$X$X",
"$X$X$X$X$X$X$X$X$X$X$X$X$X$X$X$X$X$X$X$X$X$X$X$X$X$X8 / v.m.n.n.n.n.:.7 5 . + $X$X$X$X$X$X$X$X$X$X$X$X$X$X$X$X$X$X$X$X$X",
"$X$X$X$X$X$X$X$X$X$X$X$X$X$X$X$X$X$X$X$X$X$X$X$X$X$X$X6 z ` >.>.>.>.R q 3 $X$X$X$X$X$X$X$X$X$X$X$X$X$X$X$X$X$X$X$X$X$X$X",
"$X$X$X$X$X$X$X$X$X$X$X$X$X$X$X$X$X$X$X$X$X$X$X$X$X$X$X$Xz v v v N N m S $X$X$X$X$X$X$X$X$X$X$X$X$X$X$X$X$X$X$X$X$X$X$X$X",
"$X$X$X$X$X$X$X$X$X$X$X$X$X$X$X$X$X$X$X$X$X$X$X$X`.!.Q.E ,.,.,.<.,.:.#.[.`.`.'.$X$X$X$X$X$X$X$X$X$X$X$X$X$X$X$X$X$X$X$X$X",
"$X$X$X$X$X$X$X$X$X$X$X$X$X$X$X$X$X$X$X$X$X$X$X`. XoX~.v.4.C.J.4.P.Y.[.+X@XOXOX`.$X$X$X$X$X$X$X$X$X$X$X$X$X$X$X$X$X$X$X$X",
"$X$X$X$X$X$X$X$X$X$X$X$X$X$X$X$X$X$X$X$X$X$X!.'. X@X.X^.2.n.n.2.T.~.@X@X@X@X@XOX`.$X$X$X$X$X$X$X$X$X$X$X$X$X$X$X$X$X$X$X",
"$X$X$X$X$X$X$X$X$X$X$X$X$X$X$X$X$X$X$X$X$X$XW.].+X@XoX~.Y.2.P.Y.[.XX@X@X@X@X@X@X XW.$X$X$X$X$X$X$X$X$X$X$X$X$X$X$X$X$X$X",
"$X$X$X$X$X$X$X$X$X$X$X$X$X$X$X$X$X$X$X$X$X$XW.|.].+X@XXXE.d.T.[.+X@X@X@X@X+X@X@X.XW.$X$X$X$X$X$X$X$X$X$X$X$X$X$X$X$X$X$X",
"$X$X$X$X$X$X$X$X$X$X$X$X$X$X$X$X$X$X$X$X$X$XW.'._.+X@X+X'.E.~.XX@X@X@X+X'.OX@X@X XW.$X$X$X$X$X$X$X$X$X$X$X$X$X$X$X$X$X$X",
"$X$X$X$X$X$X$X$X$X$X$X$X$X$X$X$X$X$X$X$X$X$XW.|.!.+X@XOX X].oX@X@X@X@X X_.OX@X@X XW.$X$X$X$X$X$X$X$X$X$X$X$X$X$X$X$X$X$X",
"$X$X$X$X$X$X$X$X$X$X$X$X$X$X$X$X$X$X$X$X$X$XW.'._. XOX X X XXX+XOXOX X]._.OX@X@X|.W.$X$X$X$X$X$X$X$X$X$X$X$X$X$X$X$X$X$X",
"$X$X$X$X$X$X$X$X$X$X$X$X$X$X$X$X$X$X$X$X$X(.].|.(. XOX@X@X@X@X+XOXOX X]._.OX@X@XoX|.$X$X$X$X$X$X$X$X$X$X$X$X$X$X$X$X$X$X",
"$X$X$X$X$X$X$X$X$X$X$X$X$X$X$X$X$X$X$X$X$X(. X X_. XOX@X@X@X@X@XOXOX X].`.+X@X@X@XXX(.$X$X$X$X$X$X$X$X$X$X$X$X$X$X$X$X$X",
"$X$X$X$X$X$X$X$X$X$X$X$X$X$X$X$X$X$X$X$X$XW.|. X_.+X@X@X@X@X@X@X@X+X X].`. X@X@X@X X(.$X$X$X$X$X$X$X$X$X$X$X$X$X$X$X$X$X",
"$X$X$X$X$X$X$X$X$X$X$X$X$X$X$X$X$X$X$X$XW.]. X X`.+X@X@X@X@X@X@X@X@XOXOX].`.oX@X@X X_.$X$X$X$X$X$X$X$X$X$X$X$X$X$X$X$X$X",
"$X$X$X$X$X$X$X$X$X$X$X$X$X$X$X$X$X$X$X$XW.].XX X!.+X@X@X@X@X@X@X@X@X@X X}.`.XX@X@X@X XW.$X$X$X$X$X$X$X$X$X$X$X$X$X$X$X$X",
"$X$X$X$X$X$X$X$X$X$X$X$X$X$X$X$X$X$X$X$X_.]..X[.Q.XX@X@X@X@X@X@X@X@X@X X{.'.XX@X@X@X.XE.$X$X$X$X$X$X$X$X$X$X$X$X$X$X$X$X",
"$X$X$X$X$X$X$X$X$X$X$X$X$X$X$X$X$X$X$X$X$X8.c.F.E..X+X+X@X@X@X@X@X@X@X X(.k.{.oXXXXX.X$X$X$X$X$X$X$X$X$X$X$X$X$X$X$X$X$X",
"$X$X$X$X$X$X$X$X$X$X$X$X$X$X$X$X$X$X$X$X$X: ^ E 1.Q..X|././.oXoX@X@X@X+XD.a F.L.R.c.O.$X$X$X$X$X$X$X$X$X$X$X$X$X$X$X$X$X",
"$X$X$X$X$X$X$X$X$X$X$X$X$X$X$X$X$X$X$X$X$X6 / F n 6.e.3.H.p.8.`. X|. XoXI.w T =.B.X.& $X$X$X$X$X$X$X$X$X$X$X$X$X$X$X$X$X",
"$X$X$X$X$X$X$X$X$X$X$X$X$X$X$X$X$X$X$X$X$X$XM Z Z H L C | ' ' j.8.I.j.j.} w R =.:.( : $X$X$X$X$X$X$X$X$X$X$X$X$X$X$X$X$X",
"$X$X$X$X$X$X$X$X$X$X$X$X$X$X$X$X$X$X$X$X$X$X$X$Xg P I L ' J h o. .o.o.o.B n m c m p $X$X$X$X$X$X$X$X$X$X$X$X$X$X$X$X$X$X",
"$X$X$X$X$X$X$X$X$X$X$X$X$X$X$X$X$X$X$X$X$X$X$X$XA P I I K J h [  . .+.o.} Y c e $X$X$X$X$X$X$X$X$X$X$X$X$X$X$X$X$X$X$X$X",
"$X$X$X$X$X$X$X$X$X$X$X$X$X$X$X$X$X$X$X$X$X$X$X$Xh J I I I I B I +.+.+.+.o.{ G B $X$X$X$X$X$X$X$X$X$X$X$X$X$X$X$X$X$X$X$X",
"$X$X$X$X$X$X$X$X$X$X$X$X$X$X$X$X$X$X$X$X$X$X$X$Xh J I I I I B ' O.+.+.+.+.o.G h $X$X$X$X$X$X$X$X$X$X$X$X$X$X$X$X$X$X$X$X",
"$X$X$X$X$X$X$X$X$X$X$X$X$X$X$X$X$X$X$X$X$X$X$X$Xk J I I I I G B +.+.+.+.+.| G h $X$X$X$X$X$X$X$X$X$X$X$X$X$X$X$X$X$X$X$X",
"$X$X$X$X$X$X$X$X$X$X$X$X$X$X$X$X$X$X$X$X$X$X$X$X$Xk J I I I I B ] +.+.+.+.| G h $X$X$X$X$X$X$X$X$X$X$X$X$X$X$X$X$X$X$X$X",
"$X$X$X$X$X$X$X$X$X$X$X$X$X$X$X$X$X$X$X$X$X$X$X$X$Xk J I I I I B I +.+.+.+.| G j $X$X$X$X$X$X$X$X$X$X$X$X$X$X$X$X$X$X$X$X",
"$X$X$X$X$X$X$X$X$X$X$X$X$X$X$X$X$X$X$X$X$X$X$X$X$Xk J I I U I B I o.+.+.+.} G h $X$X$X$X$X$X$X$X$X$X$X$X$X$X$X$X$X$X$X$X",
"$X$X$X$X$X$X$X$X$X$X$X$X$X$X$X$X$X$X$X$X$X$X$X$X$Xk J I L L L J A U +.+.+.} G B $X$X$X$X$X$X$X$X$X$X$X$X$X$X$X$X$X$X$X$X",
"$X$X$X$X$X$X$X$X$X$X$X$X$X$X$X$X$X$X$X$X$X$X$X$X$XJ ] ] [ ] ] ] B U +.+.+.} G g $X$X$X$X$X$X$X$X$X$X$X$X$X$X$X$X$X$X$X$X",
"$X$X$X$X$X$X$X$X$X$X$X$X$X$X$X$X$X$X$X$X$X$X$X$X$Xe.q.w.q.w.q.t.' } @.1.@.@.[ ] $X$X$X$X$X$X$X$X$X$X$X$X$X$X$X$X$X$X$X$X",
"$X$X$X$X$X$X$X$X$X$X$X$X$X$X$X$X$X$X$X$X$X$X$X$X$Xe.q.w.1.q.w.w.H.K.M.M.z.z.K.G.I.$X$X$X$X$X$X$X$X$X$X$X$X$X$X$X$X$X$X$X",
"$X$X$X$X$X$X$X$X$X$X$X$X$X$X$X$X$X$X$X$X$X$X$X$X$Xe.1.1.1.1.1.w.z.M.M.M.M.M.M.x.x.$X$X$X$X$X$X$X$X$X$X$X$X$X$X$X$X$X$X$X",
"$X$X$X$X$X$X$X$X$X$X$X$X$X$X$X$X$X$X$X$X$X$X$X$X$X$Xw.y.w.1.1.w.z.M.M.M.M.M.M.M.I.$X$X$X$X$X$X$X$X$X$X$X$X$X$X$X$X$X$X$X",
"$X$X$X$X$X$X$X$X$X$X$X$X$X$X$X$X$X$X$X$X$X$X$X$X$X$X1.a.d.1.y.1.H.f.K.K.K.M.M.M.G.$X$X$X$X$X$X$X$X$X$X$X$X$X$X$X$X$X$X$X",
"$X$X$X$X$X$X$X$X$X$X$X$X$X$X$X$X$X$X$X$X$X$X$X$X$X$X1.d.a.d.a.1.$X1.P.K.K.M.f.M.$X$X$X$X$X$X$X$X$X$X$X$X$X$X$X$X$X$X$X$X",
"$X$X$X$X$X$X$X$X$X$X$X$X$X$X$X$X$X$X$X$X$X$X$X$X$X$X1.a.a.a.a.1.$Xw.K.K.K.M.a.a.$X$X$X$X$X$X$X$X$X$X$X$X$X$X$X$X$X$X$X$X",
"$X$X$X$X$X$X$X$X$X$X$X$X$X$X$X$X$X$X$X$X$X$X$X$X$Xw.1.a.a.d.a.1.$X1.K.K.K.K.y.1.$X$X$X$X$X$X$X$X$X$X$X$X$X$X$X$X$X$X$X$X",
"$X$X$X$X$X$X$X$X$X$X$X$X$X$X$X$X$X$X$X$X$X$X$Xe.q.p.s.s.d.a.a.1.$X1.K.K.K.s.a.1.$X$X$X$X$X$X$X$X$X$X$X$X$X$X$X$X$X$X$X$X",
"$X$X$X$X$X$X$X$X$X$X$X$X$X$X$X$X$X$X$X$X$X$X1.i.a.a.a.a.a.d.1.1.y.K.K.f.s.a.i.q.$X$X$X$X$X$X$X$X$X$X$X$X$X$X$X$X$X$X$X$X",
"$X$X$X$X$X$X$X$X$X$X$X$X$X$X$X$X$X$X$X$X$X$X1.a.a.s.s.1.1.1.$X1.M.K.d.d.a.a.q.$X$X$X$X$X$X$X$X$X$X$X$X$X$X$X$X$X$X$X$X$X",
"$X$X$X$X$X$X$X$X$X$X$X$X$X$X$X$X$X$X$X$X$X$X$Xw.w.1.w.$X$X$X$X1.d.d.a.a.s.a.e.$X$X$X$X$X$X$X$X$X$X$X$X$X$X$X$X$X$X$X$X$X"
};
