/* XPM */
static char *result[] = {
/* columns rows colors chars-per-pixel */
"60 60 201 2 ",
"   c #2B1A1F",
".  c #2C2025",
"X  c #352529",
"o  c #3B292F",
"O  c #382827",
"+  c #3F3235",
"@  c #4D2C26",
"#  c #462C2A",
"$  c #4A2C2D",
"%  c #412B27",
"&  c #5A2B2C",
"*  c #532728",
"=  c #433226",
"-  c #45322D",
";  c #4D352D",
":  c #4B3829",
">  c #54362C",
",  c #472A31",
"<  c #473436",
"1  c #4C3C34",
"2  c #4E373E",
"3  c #4A3B3D",
"4  c #543636",
"5  c #593D36",
"6  c #592B33",
"7  c #652F2C",
"8  c #67372D",
"9  c #602D33",
"0  c #6B3B35",
"q  c #5A4539",
"w  c #7A422B",
"e  c #6F433D",
"r  c #74433B",
"t  c #7B4339",
"y  c #7D4A3E",
"u  c #754335",
"i  c #4A3E41",
"p  c #5C454A",
"a  c #6B4744",
"s  c #604E44",
"d  c #664B49",
"f  c #7C4847",
"g  c #665141",
"h  c #7B5C46",
"j  c #785856",
"k  c #7C6654",
"l  c #796852",
"z  c #823E2E",
"x  c #8C563F",
"c  c #A9613F",
"v  c #844A41",
"b  c #855449",
"n  c #865843",
"m  c #95574B",
"M  c #995945",
"N  c #8A5E50",
"B  c #A45B42",
"V  c #836B4C",
"C  c #846A49",
"Z  c #9A644C",
"A  c #8A724E",
"S  c #8E7848",
"D  c #927B4E",
"F  c #886B58",
"G  c #926152",
"H  c #857156",
"J  c #8A7254",
"K  c #867259",
"L  c #8F7855",
"P  c #937A56",
"I  c #937B5A",
"U  c #96735B",
"Y  c #A56346",
"T  c #B36C4D",
"R  c #AB6A58",
"E  c #B06E5B",
"W  c #AA765C",
"Q  c #BC785E",
"!  c #987F62",
"~  c #997468",
"^  c #89717D",
"/  c #9A7778",
"(  c #886B67",
")  c #AE6D68",
"_  c #A67567",
"`  c #B97B6A",
"'  c #C67D64",
"]  c #978152",
"[  c #A28D52",
"{  c #9E8363",
"}  c #A18766",
"|  c #A4896A",
" . c #AE926E",
".. c #AD9C6D",
"X. c #B3956E",
"o. c #AE9472",
"O. c #AE9778",
"+. c #AE997A",
"@. c #B29672",
"#. c #B79973",
"$. c #BB9D75",
"%. c #B89D7F",
"&. c #A8887C",
"*. c #CF8A65",
"=. c #D78961",
"-. c #D58B6B",
";. c #D88869",
":. c #CA8B74",
">. c #DA8D71",
",. c #C9947A",
"<. c #D99B77",
"1. c #E29777",
"2. c #C4A47B",
"3. c #CAAA7F",
"4. c #C1A177",
"5. c #DEA073",
"6. c #ECA57E",
"7. c #F0A77E",
"8. c #AF9885",
"9. c #B39C81",
"0. c #B89F84",
"q. c #A28C94",
"w. c #BCA486",
"e. c #BCA389",
"r. c #BAA782",
"t. c #BDA896",
"y. c #BCACB2",
"u. c #CF9386",
"i. c #D99881",
"p. c #C2A685",
"a. c #C6AA85",
"s. c #CBAB82",
"d. c #C3AA8A",
"f. c #CAAD89",
"g. c #D1AE84",
"h. c #DCA08D",
"j. c #CFB089",
"k. c #D4B287",
"l. c #D4B48A",
"z. c #D8B78D",
"x. c #DCBA8E",
"c. c #CCA491",
"v. c #D3A393",
"b. c #DAAE9A",
"n. c #DEBD92",
"m. c #D7B798",
"M. c #EBAC83",
"N. c #E1AB8F",
"B. c #E8A787",
"V. c #F0AC87",
"C. c #F5B284",
"Z. c #FCB887",
"A. c #FEBD8D",
"S. c #F2B08B",
"D. c #ECB392",
"F. c #E1BE92",
"G. c #FDBC94",
"H. c #FDBC9A",
"J. c #D2B9A1",
"K. c #E3BDA2",
"L. c #D5C391",
"P. c #E5C396",
"I. c #E4C399",
"U. c #E9C39A",
"Y. c #F5C095",
"T. c #F3C29C",
"R. c #FDC09C",
"E. c #FFC095",
"W. c #DEC4A2",
"Q. c #EBC8A8",
"!. c #F6CAA4",
"~. c #FFC2A3",
"^. c #F1CDB1",
"/. c #E3D5BB",
"(. c #E9D8BD",
"). c #E6D4B8",
"_. c #F3D5B4",
"`. c #F4D4BC",
"'. c #F3D9BA",
"]. c #D3C3C4",
"[. c #DFD4C2",
"{. c #F2CBC4",
"}. c #E2D6C3",
"|. c #E6DAC2",
" X c #EADDC5",
".X c #EBDFC8",
"XX c #EBD4C4",
"oX c #F3DEC3",
"OX c #F4DFCA",
"+X c #F7DBC3",
"@X c #EEE1C5",
"#X c #EEE3CD",
"$X c #F6E1C7",
"%X c #F2E4CC",
"&X c #FEE0C5",
"*X c #EFE5D0",
"=X c #F3E6D1",
"-X c #F5EBD3",
";X c #FAE9D5",
":X c #EFE6E3",
">X c None",
/* pixels */
">X>X>X>X>X>X>X>X>X>X>X>X>X>X>X>X>X>X>X>X>X>X>X>X>X>XX.$.4.P.P.P.P.2.$.#.X.@.>X>X>X>X>X>X>X>X>X>X>X>X>X>X>X>X>X>X>X>X>X>X",
">X>X>X>X>X>X>X>X>X>X>X>X>X>X>X>X>X>X>X>X>X>X>XO.@.#.p.I.P.F.F.n.F.F.P.s.#.X.@.@.>X>X>X>X>X>X>X>X>X>X>X>X>X>X>X>X>X>X>X>X",
">X>X>X>X>X>X>X>X>X>X>X>X>X>X>X>X>X>X>X>X>XO.O.@.#.s.I.F.F.F.F.F.F.F.F.P.k.4.$.@.@.>X>X>X>X>X>X>X>X>X>X>X>X>X>X>X>X>X>X>X",
">X>X>X>X>X>X>X>X>X>X>X>X>X>X>X>X>X>X>X>XX.@.@.$.l.I.n.n.F.F.F.F.F.F.F.F.P.P.z.$.#.f.m.>X>X>X>X>X>X>X>X>X>X>X>X>X>X>X>X>X",
">X>X>X>X>X>X>X>X>X>X>X>X>X>X>X>X>X>XI.l.#.@...a.U.F.F.F.F.F.F.F.F.F.F.F.F.F.P.n.k.z.>X>X>X>X>X>X>X>X>X>X>X>X>X>X>X>X>X>X",
">X>X>X>X>X>X>X>X>X>X>X>X>X>X>X>X>XI.F.P.z.$.,.l.x.F.F.F.F.F.F.F.F.F.F.F.F.F.L.x.l.3.>X>X>X>X>X>X>X>X>X>X>X>X>X>X>X>X>X>X",
">X>X>X>X>X>X>X>X>X>X>X>X>X>X>XW.l.n.F.F.P.x.l.g.3.l.F.F.F.F.F.F.F.F.F.F.F.F.x.j.3.>X>X>X>X>X>X>X>X>X>X>X>X>X>X>X>X>X>X>X",
">X>X>X>X>X>X>X>X>X>X>X>X>X>X>X>Xs.x.F.F.F.z.s.3.3.3.g.k.n.n.n.F.k.g.g.g.g.g.s.3.>X>X>X>X>X>X>X>X>X>X>X>X>X>X>X>X>X>X>X>X",
">X>X>X>X>X>X>X>X>X>X>X>X>X>X>X>Xs.s.x.F.k.3.a.3.a.s.a.s.f.f.d.d.a.p.p.p.p.p.p.>X>X>X>X>X>X>X>X>X>X>X>X>X>X>X>X>X>X>X>X>X",
">X>X>X>X>X>X>X>X>X>X>X>X>X>X>X>X>Xa.s.s.s.p.r.r.w.e.0.w.8.g - 5 p q s 1 1 ; = >X>X>X>X>X>X>X>X>X>X>X>X>X>X>X>X>X>X>X>X>X",
">X>X>X>X>X>X>X>X>X>X>X>X>X>X>X>X>X>Xf.0.0.k : = : q > > ; - # # * @ , < + X >X>X>X>X>X>X>X>X>X>X>X>X>X>X>X>X>X>X>X>X>X>X",
">X>X>X>X>X>X>X>X>X>X>X>X>X>X>X>X>X>X>XO 1 1 + O X % ; ( # / _ 8 ` -.0 j p   >X>X>X>X>X>X>X>X>X>X>X>X>X>X>X>X>X>X>X>X>X>X",
">X>X>X>X>X>X>X>X>X>X>X>X>X>X>X>X>X>X. i 3 < 5 a 8 @ 6 4 d 4 & ` ;.;.x i i >X>X>X>X>X>X>X>X>X>X>X>X>X>X>X>X>X>X>X>X>X>X>X",
">X>X>X>X>X>X>X>X>X>X>X>X>X>X>X>X>X>X. + < @ N b.,.n _ e y.i 7  .1.;.0 q.^ >X>X>X>X>X>X>X>X>X>X>X>X>X>X>X>X>X>X>X>X>X>X>X",
">X>X>X>X>X>X>X>X>X>X>X>X>X>X>X>X>X>X. . X # e :.S.*.' _ :Xj b i.G.B.G ].q., >X>X>X>X>X>X>X>X>X>X>X>X>X>X>X>X>X>X>X>X>X>X",
">X>X>X>X>X>X>X>X>X>X>X>X>X>X>X>X>X>X>X>X. o $ G V.M.B.S.{.v.h.H.H.H.N.{./ * >X>X>X>X>X>X>X>X>X>X>X>X>X>X>X>X>X>X>X>X>X>X",
">X>X>X>X>X>X>X>X>X>X>X>X>X>X>X>X>X>X>X>X>XX < a b W B.H.H.H.H.G.E.A.R.u.f 6 >X>X>X>X>X>X>X>X>X>X>X>X>X>X>X>X>X>X>X>X>X>X",
">X>X>X>X>X>X>X>X>X>X>X>X>X>X>X>X>X>X>X>X>X>Xo o $ 0 Z H.G.G.A.E.G.H.B.m 7 >X>X>X>X>X>X>X>X>X>X>X>X>X>X>X>X>X>X>X>X>X>X>X",
">X>X>X>X>X>X>X>X>X>X>X>X>X>X>X>X>X>X>X>X>X>X>X>X>X0 m >.G.G.G.G.<.E v >X>X>X>X>X>X>X>X>X>X>X>X>X>X>X>X>X>X>X>X>X>X>X>X>X",
">X>X>X>X>X>X>X>X>X>X>X>X>X>X>X>X>X>X>X>X>X>X>X>X>X>Xx m B c c Y B z >X>X>X>X>X>X>X>X>X>X>X>X>X>X>X>X>X>X>X>X>X>X>X>X>X>X",
">X>X>X>X>X>X>X>X>X>X>X>X>X>X>X>X>X>X>X>X>X>X}.}.XXXXm.Z *.=.=.=.=.-.Z c.+X}.}.>X>X>X>X>X>X>X>X>X>X>X>X>X>X>X>X>X>X>X>X>X",
">X>X>X>X>X>X>X>X>X>X>X>X>X>X>X>X>X>X>X>X>X}.@X#X%X%X$X^.H.A.M.Z.A.C.<.K.OX%X X(.>X>X>X>X>X>X>X>X>X>X>X>X>X>X>X>X>X>X>X>X",
">X>X>X>X>X>X>X>X>X>X>X>X>X>X>X>X>X>X>X>X}..X=X-X-X-X-X$X_.T.<.Z.A.5.F.+X=X=X#X X[.>X>X>X>X>X>X>X>X>X>X>X>X>X>X>X>X>X>X>X",
">X>X>X>X>X>X>X>X>X>X>X>X>X>X>X>X>X>X>X[.#X-X-X-X-X-X-X-X$X'.T.Y.M.H._.%X=X=X#X X[.>X>X>X>X>X>X>X>X>X>X>X>X>X>X>X>X>X>X>X",
">X>X>X>X>X>X>X>X>X>X>X>X>X>X>X>X>X>X>X[.#X-X-X-X=X-X-X-X-X%X'.Q.s.Q.'.-X-X%X%X X[.>X>X>X>X>X>X>X>X>X>X>X>X>X>X>X>X>X>X>X",
">X>X>X>X>X>X>X>X>X>X>X>X>X>X>X>X>X>X>X[.#X-X-X*X#X#X-X-X-X-X%X$X^.(.$X-X-X@X|..X[.>X>X>X>X>X>X>X>X>X>X>X>X>X>X>X>X>X>X>X",
">X>X>X>X>X>X>X>X>X>X>X>X>X>X>X>X>X>X>X/.#X-X-X-X X}.=X-X-X-X-X-X#X#X*X*X-X@X|. X[.>X>X>X>X>X>X>X>X>X>X>X>X>X>X>X>X>X>X>X",
">X>X>X>X>X>X>X>X>X>X>X>X>X>X>X>X>X>X>X/.%X-X-X*X X/.#X*X*X*X*X%X#X#X#X*X%X X|..X}.>X>X>X>X>X>X>X>X>X>X>X>X>X>X>X>X>X>X>X",
">X>X>X>X>X>X>X>X>X>X>X>X>X>X>X>X>X>X/.%X-X-X-X-X@X[.#X#X#X#X-X*X-X-X-X*X#X X|.#X X/.>X>X>X>X>X>X>X>X>X>X>X>X>X>X>X>X>X>X",
">X>X>X>X>X>X>X>X>X>X>X>X>X>X>X>X>X>X).%X-X-X-X-X@X[.#X#X#X-X-X-X-X-X-X-X%X|.|.#X@X/.>X>X>X>X>X>X>X>X>X>X>X>X>X>X>X>X>X>X",
">X>X>X>X>X>X>X>X>X>X>X>X>X>X>X>X>X>X/.@X-X-X-X*X}.}.#X*X-X-X-X-X-X-X-X-X-X@X|.#X#X/.>X>X>X>X>X>X>X>X>X>X>X>X>X>X>X>X>X>X",
">X>X>X>X>X>X>X>X>X>X>X>X>X>X>X>X>X>X|.%X-X-X*X@X|.*X*X*X-X-X-X-X-X-X-X-X-X X|.#X#X X}.>X>X>X>X>X>X>X>X>X>X>X>X>X>X>X>X>X",
">X>X>X>X>X>X>X>X>X>X>X>X>X>X>X>X>X}.%X-X-X-X*X.X}.#X#X-X-X-X-X-X-X-X-X-X-X@X(.#X#X X[.>X>X>X>X>X>X>X>X>X>X>X>X>X>X>X>X>X",
">X>X>X>X>X>X>X>X>X>X>X>X>X>X>X>X>X}.%X;X-X-X*X@X.X#X*X-X-X-X-X-X-X-X-X-X-X X(.%XOX@X}.>X>X>X>X>X>X>X>X>X>X>X>X>X>X>X>X>X",
">X>X>X>X>X>X>X>X>X>X>X>X>X>X>X>X>X>X%X$X$X&X&XJ.t.=X*X-X-X-X-X=X-X-X-X-X#X XQ.m.c.&.>X>X>X>X>X>X>X>X>X>X>X>X>X>X>X>X>X>X",
">X>X>X>X>X>X>X>X>X>X>X>X>X>X>X>X>X>X~ b.!.D.N.W ( ;X-X-X-X-X=X@X@X@X@X@X@XJ.W T R & >X>X>X>X>X>X>X>X>X>X>X>X>X>X>X>X>X>X",
">X>X>X>X>X>X>X>X>X>X>X>X>X>X>X>X>X>X& ,.C.;.T 0 ~ +XoX X'.@X(.r...L.r.+.r.! G ` ) 9 >X>X>X>X>X>X>X>X>X>X>X>X>X>X>X>X>X>X",
">X>X>X>X>X>X>X>X>X>X>X>X>X>X>X>X>X>X& ` >.=.' x n 9.w.w.w.w.r.S S [ ] L I H n f f >X>X>X>X>X>X>X>X>X>X>X>X>X>X>X>X>X>X>X",
">X>X>X>X>X>X>X>X>X>X>X>X>X>X>X>X>X>X>X0 0 x e h U ! @.@.@.o.o.C S D P I I K h >X>X>X>X>X>X>X>X>X>X>X>X>X>X>X>X>X>X>X>X>X",
">X>X>X>X>X>X>X>X>X>X>X>X>X>X>X>X>X>X>X>X>Xj F U { @.@.@.@.@.{ l P I ] I I K l >X>X>X>X>X>X>X>X>X>X>X>X>X>X>X>X>X>X>X>X>X",
">X>X>X>X>X>X>X>X>X>X>X>X>X>X>X>X>X>X>X>X>Xk K | @.@.@.@.@.o.I V I I I I I K l >X>X>X>X>X>X>X>X>X>X>X>X>X>X>X>X>X>X>X>X>X",
">X>X>X>X>X>X>X>X>X>X>X>X>X>X>X>X>X>X>X>X>Xl K | @.@.@.@.@.o.I V I I I I I K l >X>X>X>X>X>X>X>X>X>X>X>X>X>X>X>X>X>X>X>X>X",
">X>X>X>X>X>X>X>X>X>X>X>X>X>X>X>X>X>X>X>X>Xl K { @.@.@.@.@.| C I I I I I I K >X>X>X>X>X>X>X>X>X>X>X>X>X>X>X>X>X>X>X>X>X>X",
">X>X>X>X>X>X>X>X>X>X>X>X>X>X>X>X>X>X>X>X>Xl H } @.@.@.@.@.P k I I P I I H >X>X>X>X>X>X>X>X>X>X>X>X>X>X>X>X>X>X>X>X>X>X>X",
">X>X>X>X>X>X>X>X>X>X>X>X>X>X>X>X>X>X>X>X>Xk H } #.@.@.@.@.I C I I I I I H >X>X>X>X>X>X>X>X>X>X>X>X>X>X>X>X>X>X>X>X>X>X>X",
">X>X>X>X>X>X>X>X>X>X>X>X>X>X>X>X>X>X>X>X>Xk H } #.O.@.@.{ J J I I I I I H >X>X>X>X>X>X>X>X>X>X>X>X>X>X>X>X>X>X>X>X>X>X>X",
">X>X>X>X>X>X>X>X>X>X>X>X>X>X>X>X>X>X>X>X>Xl J } @.@.@. .P C P P I P I I H >X>X>X>X>X>X>X>X>X>X>X>X>X>X>X>X>X>X>X>X>X>X>X",
">X>X>X>X>X>X>X>X>X>X>X>X>X>X>X>X>X>X>X>X>XC A } @.X.@. .P A #.$.$.$.$.4.#.>X>X>X>X>X>X>X>X>X>X>X>X>X>X>X>X>X>X>X>X>X>X>X",
">X>X>X>X>X>X>X>X>X>X>X>X>X>X>X>X>X>X>X>XP.l.j.l.k.z.z.z.j.s.s.s.3.s.3.3.s.>X>X>X>X>X>X>X>X>X>X>X>X>X>X>X>X>X>X>X>X>X>X>X",
">X>X>X>X>X>X>X>X>X>X>X>X>X>X>X>X>X>X>X>XL.P.P.n.P.F.P.x.P.L.s.3.3.3.3.3.3.3.>X>X>X>X>X>X>X>X>X>X>X>X>X>X>X>X>X>X>X>X>X>X",
">X>X>X>X>X>X>X>X>X>X>X>X>X>X>X>X>X>X>X>XF.F.n.F.F.F.P.x.F.n.3.3.3.3.3.a.a.>X>X>X>X>X>X>X>X>X>X>X>X>X>X>X>X>X>X>X>X>X>X>X",
">X>X>X>X>X>X>X>X>X>X>X>X>X>X>X>X>X>X>X>XF.F.F.F.F.F.F.P.x.F.3.3.s.k.k.j.>X>X>X>X>X>X>X>X>X>X>X>X>X>X>X>X>X>X>X>X>X>X>X>X",
">X>X>X>X>X>X>X>X>X>X>X>X>X>X>X>X>X>X>X>X>Xn.n.n.P.P.P.P.3.>X3.k.l.k.k.f.>X>X>X>X>X>X>X>X>X>X>X>X>X>X>X>X>X>X>X>X>X>X>X>X",
">X>X>X>X>X>X>X>X>X>X>X>X>X>X>X>X>X>X>X>X>Xm.l.x.U.P.P.P.3.>X3.k.k.k.k.f.>X>X>X>X>X>X>X>X>X>X>X>X>X>X>X>X>X>X>X>X>X>X>X>X",
">X>X>X>X>X>X>X>X>X>X>X>X>X>X>X>X>X>X>X>X>Xd.f.x.P.P.P.P.3.>X3.k.k.k.k.j.j.>X>X>X>X>X>X>X>X>X>X>X>X>X>X>X>X>X>X>X>X>X>X>X",
">X>X>X>X>X>X>X>X>X>X>X>X>X>X>X>X>X>X>X>X>Xd.f.z.P.P.P.F.3.>X3.k.k.k.k.k.j.s.3.>X>X>X>X>X>X>X>X>X>X>X>X>X>X>X>X>X>X>X>X>X",
">X>X>X>X>X>X>X>X>X>X>X>X>X>X>X>X>X>X>X>X>Xd.j.k.l.x.x.P.x.3.3.g.k.l.k.k.z.k.k.s.>X>X>X>X>X>X>X>X>X>X>X>X>X>X>X>X>X>X>X>X",
">X>X>X>X>X>X>X>X>X>X>X>X>X>X>X>X>X>X>X>X>X>Xa.k.k.k.k.x.P.x.3.>Xj.a.s.k.k.k.k.j.f.>X>X>X>X>X>X>X>X>X>X>X>X>X>X>X>X>X>X>X",
">X>X>X>X>X>X>X>X>X>X>X>X>X>X>X>X>X>X>X>X>X>X>Xs.k.k.k.k.z.z.s.>X>X>X>Xs.s.3.s.s.>X>X>X>X>X>X>X>X>X>X>X>X>X>X>X>X>X>X>X>X",
">X>X>X>X>X>X>X>X>X>X>X>X>X>X>X>X>X>X>X>X>X>X>Xs.s.g.3.3.s.3.>X>X>X>X>X>X>X>X>X>X>X>X>X>X>X>X>X>X>X>X>X>X>X>X>X>X>X>X>X>X"
};
