/* XPM */
static char *result[] = {
/* columns rows colors chars-per-pixel */
"60 60 148 2 ",
"   c #331F13",
".  c #37231A",
"X  c #38221E",
"o  c #2E2224",
"O  c #322425",
"+  c #3A2423",
"@  c #3F2F24",
"#  c #312429",
"$  c #35292C",
"%  c #3D3335",
"&  c #471D14",
"*  c #431E18",
"=  c #46221C",
"-  c #402F24",
";  c #413334",
":  c #793729",
">  c #6A3A30",
",  c #783F32",
"<  c #6B4336",
"1  c #744034",
"2  c #7D644A",
"3  c #7C6A53",
"4  c #823D2D",
"5  c #99472B",
"6  c #8B493B",
"7  c #9C4F3C",
"8  c #9F503C",
"9  c #855346",
"0  c #8D534A",
"q  c #8E5B4D",
"w  c #9D5646",
"e  c #895E52",
"r  c #A45445",
"t  c #A25449",
"y  c #806344",
"u  c #836B4D",
"i  c #896F4E",
"p  c #89704F",
"a  c #816250",
"s  c #836B52",
"d  c #8A6856",
"f  c #8C6558",
"g  c #8A7150",
"h  c #8F785A",
"j  c #91765F",
"k  c #947B5A",
"l  c #987E5A",
"z  c #BF725B",
"x  c #9E7866",
"c  c #9D7A68",
"v  c #A77663",
"b  c #A97761",
"n  c #AF7668",
"m  c #CA7C5F",
"M  c #CB7D61",
"N  c #CC7E6E",
"B  c #D37D63",
"V  c #C47F70",
"C  c #9A815E",
"Z  c #9B8263",
"A  c #A08765",
"S  c #A18965",
"D  c #A58B6A",
"F  c #AA8F6C",
"G  c #B88C6F",
"H  c #B4956E",
"J  c #B7986E",
"K  c #B8986F",
"L  c #A59175",
"P  c #AD9675",
"I  c #A3927A",
"U  c #AB927A",
"Y  c #AE9A7C",
"T  c #B39672",
"R  c #B59874",
"E  c #BB9C74",
"W  c #B19A78",
"Q  c #BD9F79",
"!  c #BDA07A",
"~  c #CB8567",
"^  c #CC8769",
"/  c #D48265",
"(  c #D98365",
")  c #D88C67",
"_  c #D8846A",
"`  c #D08E6A",
"'  c #D98D69",
"]  c #D2846C",
"[  c #D08A75",
"{  c #C09F75",
"}  c #D2997F",
"|  c #C4A57E",
" . c #C8A77E",
".. c #CAAA7F",
"X. c #B5A284",
"o. c #CB9A88",
"O. c #C3A680",
"+. c #CBAB81",
"@. c #C4AA88",
"#. c #CBAE8B",
"$. c #DAA185",
"%. c #D0AF83",
"&. c #D5B387",
"*. c #D6B489",
"=. c #D9B78C",
"-. c #DAB98D",
";. c #C0AC95",
":. c #C9AA97",
">. c #C7B497",
",. c #C4B49A",
"<. c #D7B890",
"1. c #DCBC93",
"2. c #D5BB99",
"3. c #DDBF99",
"4. c #E0BE93",
"5. c #EFB79B",
"6. c #E3BA9B",
"7. c #F0B591",
"8. c #E7BCA0",
"9. c #E8B9A2",
"0. c #DFC097",
"q. c #DDC099",
"w. c #E0C096",
"e. c #E1C39B",
"r. c #D7C1A6",
"t. c #E3CFB9",
"y. c #F2CFB0",
"u. c #EFD0B1",
"i. c #E4D7BC",
"p. c #EDD7BE",
"a. c #E6D8BD",
"s. c #E9DABF",
"d. c #F2D0B0",
"f. c #FBDABB",
"g. c #DFD6C2",
"h. c #E1D7C1",
"j. c #E6DAC2",
"k. c #ECDCC4",
"l. c #F1DDC3",
"z. c #EEE0C6",
"x. c #EEE3CC",
"c. c #F1E4CA",
"v. c #FBE7CD",
"b. c #F4E9CE",
"n. c #EFE6D1",
"m. c #F1E7D1",
"M. c #F4EBD3",
"N. c None",
/* pixels */
"N.N.N.N.N.N.N.N.N.N.N.N.N.N.N.N.N.N.N.N.N.N.N.N.w.w.4.1.N.N.N.N.1.4.6.w.N.N.N.N.N.N.N.N.N.N.N.N.N.N.N.N.N.N.N.N.N.N.N.N.",
"N.N.N.N.N.N.N.N.N.N.N.N.N.N.N.N.N.N.N.N.N.N.4.=.K K J K K T H K K J J J =.w.N.N.N.N.N.N.N.N.N.N.N.N.N.N.N.N.N.N.N.N.N.N.",
"N.N.N.N.N.N.N.N.N.N.N.N.N.N.N.N.N.N.N.N.N.<.K K H H R Q E Q E Q Q J H K T J =.N.N.N.N.N.N.N.N.N.N.N.N.N.N.N.N.N.N.N.N.N.",
"N.N.N.N.N.N.N.N.N.N.N.N.N.N.N.N.N.N.N.2.=.K K R ! Q ..w.4.w.w.1.4...Q ! R H R <.1.N.N.N.N.N.N.N.N.N.N.N.N.N.N.N.N.N.N.N.",
"N.N.N.N.N.N.N.N.N.N.N.N.N.N.N.N.N.N.e.E H T ! | 4.1.=...+.+...+...-.q.1.| ! H H E q.N.N.N.N.N.N.N.N.N.N.N.N.N.N.N.N.N.N.",
"N.N.N.N.N.N.N.N.N.N.N.N.N.N.N.N.N.N.*.K | | 1.-.+.......................-.1.| | R =.N.N.N.N.N.N.N.N.N.N.N.N.N.N.N.N.N.N.",
"N.N.N.N.N.N.N.N.N.N.N.N.N.N.N.N.N.2... .1.1. ...+.......+.........+.........1.1.| +.-.N.N.N.N.N.N.N.N.N.N.N.N.N.N.N.N.N.",
"N.N.N.N.N.N.N.N.N.N.N.N.N.N.N.N.N.@.-.1.+. .............................+... .+.1.-...N.N.N.N.N.N.N.N.N.N.N.N.N.N.N.N.N.",
"N.N.N.N.N.N.N.N.N.N.N.N.N.N.N.N.N.N. .+.....+.+.+.+.+.+.+.+.+.+.+.+.+.+.+.+.+.+.....N.N.N.N.N.N.N.N.N.N.N.N.N.N.N.N.N.N.",
"N.N.N.N.N.N.N.N.N.N.N.N.N.N.N.N.N.N.N.+.+...#.#.#.#.#.#.@.#.#.@.#.#.@.#.#.#.+.+...N.N.N.N.N.N.N.N.N.N.N.N.N.N.N.N.N.N.N.",
"N.N.N.N.N.N.N.N.N.N.N.N.N.N.N.N.N.N.N.N.N.E y s s s s s s s s s s s s s s 2 W N.N.N.N.N.N.N.N.N.N.N.N.N.N.N.N.N.N.N.N.N.",
"N.N.N.N.N.N.N.N.N.N.N.N.N.N.N.N.N.N.N.N.N.N.  - @ @ @ @ @ @ @ @ @ @ @ @ @   N.N.N.N.N.N.N.N.N.N.N.N.N.N.N.N.N.N.N.N.N.N.",
"N.N.N.N.N.N.N.N.N.N.N.N.N.N.N.N.N.N.N.N.N.N.# % % % % % % % % % % % % % % O N.N.N.N.N.N.N.N.N.N.N.N.N.N.N.N.N.N.N.N.N.N.",
"N.N.N.N.N.N.N.N.N.N.N.N.N.N.N.N.N.N.N.N.N.N.# $ % % % % % % % % % % % % $ o N.N.N.N.N.N.N.N.N.N.N.N.N.N.N.N.N.N.N.N.N.N.",
"N.N.N.N.N.N.N.N.N.N.N.N.N.N.N.N.N.N.N.N.N.N.N.# % % % % % % % % % % % % # N.N.N.N.N.N.N.N.N.N.N.N.N.N.N.N.N.N.N.N.N.N.N.",
"N.N.N.N.N.N.N.N.N.N.N.N.N.N.N.N.N.N.N.N.N.N.N.# $ % % % % % % % % % % $ o N.N.N.N.N.N.N.N.N.N.N.N.N.N.N.N.N.N.N.N.N.N.N.",
"N.N.N.N.N.N.N.N.N.N.N.N.N.N.N.N.N.N.N.N.N.N.N.N.o O $ ; ; % % % ; $ O O N.N.N.N.N.N.N.N.N.N.N.N.N.N.N.N.N.N.N.N.N.N.N.N.",
"N.N.N.N.N.N.N.N.N.N.N.N.N.N.N.N.N.N.N.N.N.N.N.N.N.N.. + X O # O + X N.N.N.N.N.N.N.N.N.N.N.N.N.N.N.N.N.N.N.N.N.N.N.N.N.N.",
"N.N.N.N.N.N.N.N.N.N.N.N.N.N.N.N.N.N.N.N.N.N.i.i.s.;.a e * = = * e a :.k.i.i.N.N.N.N.N.N.N.N.N.N.N.N.N.N.N.N.N.N.N.N.N.N.",
"N.N.N.N.N.N.N.N.N.N.N.N.N.N.N.N.N.N.N.N.i.a.z.z.z.r.G ~ m M M M ] ^ 5.l.c.k.a.a.N.N.N.N.N.N.N.N.N.N.N.N.N.N.N.N.N.N.N.N.",
"N.N.N.N.N.N.N.N.N.N.N.N.N.N.N.N.N.N.N.h.c.c.M.M.b.z.6.` ) ' ' ' ) 7.f.v.M.M.x.z.i.N.N.N.N.N.N.N.N.N.N.N.N.N.N.N.N.N.N.N.",
"N.N.N.N.N.N.N.N.N.N.N.N.N.N.N.N.N.N.N.h.b.M.M.M.M.b.p.u.d.d.d.d.d.f.v.b.M.M.M.b.i.N.N.N.N.N.N.N.N.N.N.N.N.N.N.N.N.N.N.N.",
"N.N.N.N.N.N.N.N.N.N.N.N.N.N.N.N.N.N.N.h.b.M.b.x.M.M.b.c.c.c.x.c.c.b.M.M.z.M.M.M.i.N.N.N.N.N.N.N.N.N.N.N.N.N.N.N.N.N.N.N.",
"N.N.N.N.N.N.N.N.N.N.N.N.N.N.N.N.N.N.N.h.b.b.z.a.b.M.M.M.b.M.M.b.M.M.M.x.i.z.M.b.i.N.N.N.N.N.N.N.N.N.N.N.N.N.N.N.N.N.N.N.",
"N.N.N.N.N.N.N.N.N.N.N.N.N.N.N.N.N.N.N.j.b.M.z.i.c.b.M.M.M.M.M.M.M.n.M.x.i.z.M.M.k.N.N.N.N.N.N.N.N.N.N.N.N.N.N.N.N.N.N.N.",
"N.N.N.N.N.N.N.N.N.N.N.N.N.N.N.N.N.N.i.b.M.M.x.a.z.b.M.M.M.M.M.M.M.M.n.n.i.z.M.M.M.a.N.N.N.N.N.N.N.N.N.N.N.N.N.N.N.N.N.N.",
"N.N.N.N.N.N.N.N.N.N.N.N.N.N.N.N.N.N.i.b.M.M.x.a.c.x.M.M.M.M.M.M.M.M.n.n.h.z.M.M.M.i.N.N.N.N.N.N.N.N.N.N.N.N.N.N.N.N.N.N.",
"N.N.N.N.N.N.N.N.N.N.N.N.N.N.N.N.N.N.i.M.M.x.z.j.z.m.M.M.M.M.M.M.M.M.n.k.i.z.b.M.n.i.N.N.N.N.N.N.N.N.N.N.N.N.N.N.N.N.N.N.",
"N.N.N.N.N.N.N.N.N.N.N.N.N.N.N.N.N.N.k.M.M.n.j.h.n.M.M.M.M.M.M.M.M.M.M.x.i.z.x.M.M.j.N.N.N.N.N.N.N.N.N.N.N.N.N.N.N.N.N.N.",
"N.N.N.N.N.N.N.N.N.N.N.N.N.N.N.N.N.h.b.M.M.n.k.j.n.M.M.M.M.M.M.M.M.M.M.n.h.k.x.M.M.m.i.N.N.N.N.N.N.N.N.N.N.N.N.N.N.N.N.N.",
"N.N.N.N.N.N.N.N.N.N.N.N.N.N.N.N.N.h.b.M.M.k.k.a.n.M.M.M.M.M.M.M.M.M.M.x.a.z.x.M.M.b.i.N.N.N.N.N.N.N.N.N.N.N.N.N.N.N.N.N.",
"N.N.N.N.N.N.N.N.N.N.N.N.N.N.N.N.N.z.b.b.n.n.x.h.n.M.M.M.M.M.M.M.M.M.M.x.a.z.x.m.M.M.z.N.N.N.N.N.N.N.N.N.N.N.N.N.N.N.N.N.",
"N.N.N.N.N.N.N.N.N.N.N.N.N.N.N.N.g.M.M.M.x.x.k.a.c.M.M.M.M.M.M.M.M.M.M.m.i.j.z.k.M.M.M.i.N.N.N.N.N.N.N.N.N.N.N.N.N.N.N.N.",
"N.N.N.N.N.N.N.N.N.N.N.N.N.N.N.N.N.z.k.l.k.i.L a.c.M.M.M.M.M.M.M.M.M.M.n.i.I i.k.l.l.l.N.N.N.N.N.N.N.N.N.N.N.N.N.N.N.N.N.",
"N.N.N.N.N.N.N.N.N.N.N.N.N.N.N.N.N.v 9.$.} v N.p.c.m.M.M.M.M.M.M.M.M.m.x.j.N.c o.$.5.n N.N.N.N.N.N.N.N.N.N.N.N.N.N.N.N.N.",
"N.N.N.N.N.N.N.N.N.N.N.N.N.N.N.N.N.9 [ _ M 4 N.U h.h.k.x.x.x.x.x.x.j.h.j.I N., ~ _ ' 7 N.N.N.N.N.N.N.N.N.N.N.N.N.N.N.N.N.",
"N.N.N.N.N.N.N.N.N.N.N.N.N.N.N.N.N.0 N B 5 : N.s L X.>.a.a.a.i.i.a.,.X.L u N.> 6 B B 8 N.N.N.N.N.N.N.N.N.N.N.N.N.N.N.N.N.",
"N.N.N.N.N.N.N.N.N.N.N.N.N.N.N.N.N.0 N _ z , d c c T R X.X.L P X.X.Y P C h s < n ] M r N.N.N.N.N.N.N.N.N.N.N.N.N.N.N.N.N.",
"N.N.N.N.N.N.N.N.N.N.N.N.N.N.N.N.N.N.t r w N.d k k A T P W A A P P P C l k s N.q t r N.N.N.N.N.N.N.N.N.N.N.N.N.N.N.N.N.N.",
"N.N.N.N.N.N.N.N.N.N.N.N.N.N.N.N.N.N.N.N.N.N.s k k k k l k l l l C C l k k u N.N.N.N.N.N.N.N.N.N.N.N.N.N.N.N.N.N.N.N.N.N.",
"N.N.N.N.N.N.N.N.N.N.N.N.N.N.N.N.N.N.N.N.N.N.3 h k k k k l g g k k k k k k u N.N.N.N.N.N.N.N.N.N.N.N.N.N.N.N.N.N.N.N.N.N.",
"N.N.N.N.N.N.N.N.N.N.N.N.N.N.N.N.N.N.N.N.N.N.3 C k k k k k g g k k k k k k u N.N.N.N.N.N.N.N.N.N.N.N.N.N.N.N.N.N.N.N.N.N.",
"N.N.N.N.N.N.N.N.N.N.N.N.N.N.N.N.N.N.N.N.N.N.s C k k C k k g g k k C k k k u N.N.N.N.N.N.N.N.N.N.N.N.N.N.N.N.N.N.N.N.N.N.",
"N.N.N.N.N.N.N.N.N.N.N.N.N.N.N.N.N.N.N.N.N.N.s h k Z R D k g p k D P A k h u N.N.N.N.N.N.N.N.N.N.N.N.N.N.N.N.N.N.N.N.N.N.",
"N.N.N.N.N.N.N.N.N.N.N.N.N.N.N.N.N.N.N.N.N.N.N.s Z W T F l p p l F T T C u N.N.N.N.N.N.N.N.N.N.N.N.N.N.N.N.N.N.N.N.N.N.N.",
"N.N.N.N.N.N.N.N.N.N.N.N.N.N.N.N.N.N.N.N.N.N.N.s Z R T T F i p D T T R C u N.N.N.N.N.N.N.N.N.N.N.N.N.N.N.N.N.N.N.N.N.N.N.",
"N.N.N.N.N.N.N.N.N.N.N.N.N.N.N.N.N.N.N.N.N.N.N.3 c P T T S i i D T T T C u N.N.N.N.N.N.N.N.N.N.N.N.N.N.N.N.N.N.N.N.N.N.N.",
"N.N.N.N.N.N.N.N.N.N.N.N.N.N.N.N.N.N.N.N.N.N.N.Z T O.| O.Q l l ! | | | R D N.N.N.N.N.N.N.N.N.N.N.N.N.N.N.N.N.N.N.N.N.N.N.",
"N.N.N.N.N.N.N.N.N.N.N.N.N.N.N.N.N.N.N.N.N.N.q.e.w.w.w.4.e.H H e.q.q.w.w.w.w.N.N.N.N.N.N.N.N.N.N.N.N.N.N.N.N.N.N.N.N.N.N.",
"N.N.N.N.N.N.N.N.N.N.N.N.N.N.N.N.N.N.N.N.N.N.4.4.4.4.4.4.w.{ { w.w.w.w.w.w.w.N.N.N.N.N.N.N.N.N.N.N.N.N.N.N.N.N.N.N.N.N.N.",
"N.N.N.N.N.N.N.N.N.N.N.N.N.N.N.N.N.N.N.N.N.N.N.4.4.4.4.4.4.N.N.4.4.w.w.w.w.N.N.N.N.N.N.N.N.N.N.N.N.N.N.N.N.N.N.N.N.N.N.N.",
"N.N.N.N.N.N.N.N.N.N.N.N.N.N.N.N.N.N.N.N.N.N.N.1.&.-.=.-.=.N.N.*.&.=.=...4.N.N.N.N.N.N.N.N.N.N.N.N.N.N.N.N.N.N.N.N.N.N.N.",
"N.N.N.N.N.N.N.N.N.N.N.N.N.N.N.N.N.N.N.N.N.N.N.N...&.&.&.%.N.N...&.&.&...N.N.N.N.N.N.N.N.N.N.N.N.N.N.N.N.N.N.N.N.N.N.N.N.",
"N.N.N.N.N.N.N.N.N.N.N.N.N.N.N.N.N.N.N.N.N.N.N.N.N.%.&.&.%.N.N.#.&.&.%.N.N.N.N.N.N.N.N.N.N.N.N.N.N.N.N.N.N.N.N.N.N.N.N.N.",
"N.N.N.N.N.N.N.N.N.N.N.N.N.N.N.N.N.N.N.N.N.N.N.N.N.+.&.&.%.N.N.&.*.&.%.N.N.N.N.N.N.N.N.N.N.N.N.N.N.N.N.N.N.N.N.N.N.N.N.N.",
"N.N.N.N.N.N.N.N.N.N.N.N.N.N.N.N.N.N.N.N.N.N.N.N.+.&.*.&.%.N.N.%.&.&.%.%.N.N.N.N.N.N.N.N.N.N.N.N.N.N.N.N.N.N.N.N.N.N.N.N.",
"N.N.N.N.N.N.N.N.N.N.N.N.N.N.N.N.N.N.N.N.N.N.N.N.+.*.&.&.%.N.N.%.*.&.&.%.N.N.N.N.N.N.N.N.N.N.N.N.N.N.N.N.N.N.N.N.N.N.N.N.",
"N.N.N.N.N.N.N.N.N.N.N.N.N.N.N.N.N.N.N.N.N.N.N.N.+.*.&.&.%.N.N.%.&.&.&...N.N.N.N.N.N.N.N.N.N.N.N.N.N.N.N.N.N.N.N.N.N.N.N.",
"N.N.N.N.N.N.N.N.N.N.N.N.N.N.N.N.N.N.N.N.N.N.N.N.%.&.&.&.&.N.N.%.&.&.&...N.N.N.N.N.N.N.N.N.N.N.N.N.N.N.N.N.N.N.N.N.N.N.N.",
"N.N.N.N.N.N.N.N.N.N.N.N.N.N.N.N.N.N.N.N.N.N.N.N.N.......+.N.N.....%...N.N.N.N.N.N.N.N.N.N.N.N.N.N.N.N.N.N.N.N.N.N.N.N.N."
};
