/* XPM */
static char *a877eb9ad16049fbc4d68bee73fdd54d1piAPtKDSFruorKO[] = {
/* columns rows colors chars-per-pixel */
"124 58 179 2 ",
"   c None",
".  c #212E15",
"X  c #212B1C",
"o  c #28341F",
"O  c #222925",
"+  c #25272E",
"@  c #24282E",
"#  c #252731",
"$  c #242830",
"%  c #292A37",
"&  c #2C2D3B",
"*  c #2E333D",
"=  c #333935",
"-  c #364622",
";  c #495932",
":  c #5D703F",
">  c #2D3342",
",  c #333344",
"<  c #373749",
"1  c #3B3B4C",
"2  c #3F3E51",
"3  c #3F4151",
"4  c #444455",
"5  c #474558",
"6  c #484758",
"7  c #494B5A",
"8  c #4B525D",
"9  c #56644E",
"0  c #59625F",
"q  c #647350",
"w  c #4D4E61",
"e  c #4F5563",
"r  c #515563",
"t  c #575668",
"y  c #585B6D",
"u  c #5E5C71",
"i  c #615F75",
"p  c #5A616B",
"a  c #5E6278",
"s  c #666B6C",
"d  c #646B61",
"f  c #636473",
"g  c #636873",
"h  c #66657C",
"j  c #68657D",
"k  c #66687D",
"l  c #6C804E",
"z  c #74855A",
"x  c #839764",
"c  c #86957C",
"v  c #9AAF77",
"b  c #93A47B",
"n  c #9EB576",
"m  c #A5BE78",
"M  c #ABC86F",
"N  c #AECD72",
"B  c #AFCC7A",
"V  c #B0CC76",
"C  c #B0CC7C",
"Z  c #666683",
"A  c #696581",
"S  c #666A84",
"D  c #6A6D89",
"F  c #676B88",
"G  c #6D728C",
"H  c #6F7687",
"J  c #6F7591",
"K  c #727793",
"L  c #737995",
"P  c #767E9A",
"I  c #797E9A",
"U  c #7A8D85",
"Y  c #7A8C8C",
"T  c #78838C",
"R  c #7D9281",
"E  c #7E9288",
"W  c #798B95",
"Q  c #77809C",
"!  c #78819D",
"~  c #7A8A9C",
"^  c #7E86A2",
"/  c #7A8AA4",
"(  c #849985",
")  c #8B929E",
"_  c #8FA786",
"`  c #91A78F",
"'  c #98AB87",
"]  c #94A993",
"[  c #99AE91",
"{  c #9CB396",
"}  c #A3BD8C",
"|  c #A6BE98",
" . c #8088A4",
".. c #8087A3",
"X. c #8490A7",
"o. c #8C96AB",
"O. c #959DAA",
"+. c #909CB1",
"@. c #9EAABE",
"#. c #9DA7BB",
"$. c #A0B0A7",
"%. c #A2AEBD",
"&. c #AFCC82",
"*. c #AFCA8B",
"=. c #AAC186",
"-. c #B2CB82",
";. c #B4CA8B",
":. c #B7D185",
">. c #BAD38A",
",. c #BFD88D",
"<. c #B9D387",
"1. c #AAC394",
"2. c #AFC997",
"3. c #AAC498",
"4. c #AEC898",
"5. c #BBCE94",
"6. c #B1C79A",
"7. c #BBCE99",
"8. c #B2C992",
"9. c #BDD392",
"0. c #BED298",
"q. c #B2C1AE",
"w. c #C3DC92",
"e. c #C1D59C",
"r. c #C6DB9B",
"t. c #C7E196",
"y. c #CAE29B",
"u. c #D2EC9E",
"i. c #C2D3A2",
"p. c #C6D9A3",
"a. c #CADDA4",
"s. c #C7D7A8",
"d. c #CDD8B6",
"f. c #D1DEBC",
"g. c #D2EBA3",
"h. c #D6ECAB",
"j. c #D8EFAA",
"k. c #D7F0A7",
"l. c #D7F0A8",
"z. c #DBF3AC",
"x. c #D3E4B4",
"c. c #D6E5BA",
"v. c #DBEBBB",
"b. c #D7EAB1",
"n. c #DFF3B7",
"m. c #E3F7BB",
"M. c #9FABC0",
"N. c #A3ADC1",
"B. c #A6B1C5",
"V. c #ABB5C7",
"C. c #ABB5C9",
"Z. c #B2BCC3",
"A. c #B6BDCC",
"S. c #DAE7C0",
"D. c #DAE5C5",
"F. c #E0EEC6",
"G. c #E3EFCE",
"H. c #E6F3CD",
"J. c #E9F7CD",
"K. c #EDFECA",
"L. c #E6F7C3",
"P. c #EEFCD5",
"I. c #ECF8D8",
"U. c #F0FDD7",
"Y. c #F2FCDD",
"T. c #F4FDE3",
"R. c #F9FFE5",
"E. c #F9FFE9",
"W. c #FAFFEC",
"Q. c #FAFFEC",
"!. c #F3F8EA",
"~. c #FDFFF2",
"^. c #FDFFF5",
"/. c #FCFFF4",
"(. c #FEFFFA",
"). c white",
"_. c #FFFFFE",
"`. c #FEFFFC",
"'. c #FFFFFD",
/* pixels */
"                                                                                                                                                                                                                                                        ",
"                                                                                                                                                                                                                                                        ",
"                                                                                                                                                                                                                                                        ",
"                                                                                                                                                                                                                                                        ",
"                                                                                                                                                                                                                                                        ",
"                                                                                                                                                                                                                                                        ",
"                                                                                                                                                                                                                                                        ",
"                                            N N N N N N N N N N                                                                                                                                                                                         ",
"                                      -.V N N N N N N N N N N N N B -.                                                                                                                                                                                  ",
"                                  N N N N N N N N N N N N N N N N N N B n : . O O @ @ @ @ @ @ @ @ @ @ @ @ @ @ @ @ @ @ @ @ @ @ @ @ @ @ @ @ @ @ @ @ @ @ @ @ @ @ @ @ @ @ @ @ @ @ @ @ @ @ @ @ @ @ @ @ @ @ @ @ @ @ @ + @ @ @ @ @ $ @                         ",
"                              -.N N N N N N N N N N N N N N N N N N N N B -.v - X O @ @ @ @ @ @ @ @ @ @ @ @ @ @ @ @ @ @ @ @ @ @ @ @ @ @ @ @ @ @ @ @ @ @ @ @ @ @ @ @ @ @ @ @ @ @ @ @ @ @ @ @ @ @ @ @ @ @ @ @ @ @ @ @ @ @ @ @ @ @ @ @                     ",
"                            N N N N N N N N N N N N N N N N N N N N N N N N C =.q X O @ $ # # # # # # # # # # # # # # # # # # # # # # # # # # # # # # # # # # # # # # # # # # # # # # # # # # # # # # # # # # # # # # # $ $ + @ @ @ @                   ",
"                        V N N N N N N N N N N N N N N N N N N N N N N N N N N C ;.z = * , , , , , , , , , , , , , , , , , , , , , , , , , , , , , , , , , , , , , , , , , , , , , , , , , , , , , , , , , , , , , < < , & # # # @ @ @ @ @               ",
"                      N N N N N N N N N N N N N N N N N N N N N N N N N N N N N B -.' d g h j j j j j j j j j j j j j j j j j j j j j j j j j j j j j j j j j j j j j j j j j j j j j j j j j j j j j j j j j j j j j j h u 6 & # $ + @ @ #             ",
"                      N N N N N N N N N N N N N N N N N N N N N N N N N N N N N N V -.b s h j A A A A A A A A A A A A A A A A A A A A A A A A A A A A A A A A A A A A A A A A A A A A A A A A A A A A A A A A A A A A A A A j h w & # @ @ @ $           ",
"                    N N N N N N N N N N N N N N N N N N N N N N N N N N N N N N N N B ;.c s k Z Z Z Z Z Z Z Z Z Z Z Z Z Z Z Z Z Z Z Z Z Z Z Z Z Z Z Z Z Z Z Z Z Z Z Z Z Z Z Z Z Z Z Z Z Z Z Z Z Z Z Z Z Z Z Z Z A A A A A A A A j u , # @ @ @ @         ",
"                  N N N N N N N N N N N V C -.-.N N N N N N N N N N N N N N N N N N N C 8.c T ! ! ! ! ! ! ! ! ! ! ! ! ! ! ! ! ! ! ! ! ! ! ! ! P Q Q P P P L L L L L L L L L L L L L L L L L L L L L K J G D F F Z Z Z Z A A A A A A u & # @ @ @         ",
"                -.N N N N N N N N N N C 9.n.K.r.V N N N N N N N N N N N N N N N N N N N &.1.U ~ / / / / / / / / / / / / / / / / / / / / / / / / / ^ ^ ^ ^ ^ ^ ^ ^ ^ ^ ^ ^ ^ ^ ^ ^ ^ ^ ^ ^ ^ ^ ^ ^ ^ ^ ^ ^ ^ ^ ^ ^ ! I K G F Z Z Z A A y % $ @ @ @       ",
"                N N N N N N N N N N C 0.Y.W.Q.F.-.N N N N N N N N N N N N N N N N N N N N *.` Y ~ / / / / / / / / / / / / / / / / / / / / / / / / / / / / / / / / / / / / / / / / / / / / / / / / / / / / / ^ ^ ^ ^ ^ ^ ^ ^ L D Z A A j 5 # $ @ @       ",
"              N N N N N N N N N N C 0.U./.`.(.Y.;.N N N N N N N N N N N N N N N N N N N N &.3.R W / / / / / / / / / / / / / / / / / / / / / / / / / / / / / / / / / / / / / / / / / / / / / / / / / / / / / / / / / / / / ^ ^ ^ L Z Z A h & $ @ @ #     ",
"              N N N N N N N N N C 9.Y./.`.`.`.W.e.-.B N V C C V N N N N N N N N N N N N N B *._ W / / / / / / / / / / / / / / / / / / / / / / / / / / / / / / / / / / / / / / / / / / / / / / / / / / / / / / / / / / / / / / ^ ^ I Z A A 7 # @ @ @     ",
"            C N N N N N N N N V -.L.~.`.`.`.`./.I.p.;.;.5.b.L.;.V N N N N N N N N N N N N N B } Y / / / / / / / / / / / / / / / / / / / / / / / / / / / / / / / / / / / / / / / / / / / / / / / / / / / / / / / / / / / / / / / / ^ L Z A h % @ @ @ +   ",
"            B N N N N N N N N C a.R./.`.`.`.`.`./.W.Q.T.W.W.Q.c.-.N N N N N N N N N N N N N N *.E ~ / / / / / / / / / / / / / / / / / / / / / / / / / / / / / / / / / / / / / / / / / / / / / / / / / / / / / / / / / / / / / / / ^ ^ D Z j 3 # @ @ @   ",
"            N N N N N N N N N C e.J.Q./.(.`.`.`.`.`.`.`.`.(.~.U.-.N N N N N N N N N N N N N N *.] W ~ / / / / / / / / / / / / / / / / / / / / / / / / / / / / / / / / / / / / / / / / / / / / / / / / / / / / / / / / / / / / / / / ^ Q Z A t # $ @ @   ",
"          V N N N N N N N N C C C -.0.P.~.(.`.`.`.`.`.`.`./.D.7.-.B N N N N N N N N N N N N N &.{ Y ~ / / / / / / / / / / / / / / / / / / / / / / / / / / / / / / / / / / / / / / / / / / / / / / / / / / / / / / / / / / / / / / / / ^ D A i & $ @ @   ",
"          N N N N N N N N N u.:.V B C ;.F.W./.`.`.`.`.`.`./.f.v.j.C N N N N N N N N N N N N N &.| U W / / / / / / / / / / / / / / / / / / / / / / / / / / / / / / / / / / / / / / / / / / / / / / / / / / / / / / / / / / / / / / / / ^ K Z h < # @ @   ",
"          N N N N N N N N N ,.g.C C B C -.x.R./.`.`.`.`.`.(.W.F.7.-.V N N N N N N N N N N N N &.3.R W / / / / / / / / / / / / / / / / / / / / / / / / / / / / / / / / / / / / / / / / / / / / / / / / / / / / / / / / / / / / / / / / ^ I Z h 2 # @ @ @ ",
"          N N N N N N N N N C t.z.-.V N B -.s.R./.`.`.`.`.(.~.d.v.n.C N N N N N N N N N N N N B 4.R W / / / / / / / / / / / / / / / / / / / / / / / / / / / / / / / / / / / / / / / / / / / / / / / / / / / / / / / / / / / / / / / / ^ ..Z h 4 # @ @ $ ",
"          M N N N N N N N N N V w.z.>.C N V -.e.T./.(.`.`.`.`.~.J.0.-.V N N N N N N N N N N N B 2.R W / / / / / / / / / / / / / / / / / / / / / / / / / / / / / / / / / / / / / / / / / / / / / / / / / / / / / / / / / / / / / / / / ^  .S h 5 # @ @ @ ",
"          N N N N N N N N N N N C >.z.w.C V V -.i.R./.`.`.`.`.(.D.x.m.-.N N N N N N N N N N N B 2.R W / / / / / / / / / / / / / / / / / / / / / / / / / / / / / / / / / / / / / / / / / / / / / / / / / / / / / / / / / / / / / / / / ^ ^ D h 5 # @ @ + ",
"          N N N N N N N N N N N N V -.g.y.-.V V -.a.Q.(.`.`.`.`./.T.i.-.V N N N N N N N N N N B 4.R W / / / / / / / / / / / / / / / / / / / / / / / / / / / / / / / / / / / / / / / / / / / / / / / / / / / / / / / / / / / / / / / / / ^ G h 4 # @ @ @ ",
"          N N N N N N N N N N N N N V -.r.j.-.V V -.c.W.(.`.`.`.`.!.S.K.-.N N N N N N N N N N &.3.R W / / / / / / / / / / / / / / / / / / / / / / / / / / / / / / / / / / / / / / / / / / / / / / / / / / / / / / / / / / / / / / / / / ^ G h 1 # @ @ @ ",
"          N N N N N N N N N N N N N N B V >.z.>.C C -.v.~.`.`.`.`.(./.Q.p.C N N N N N N N N N &.| U W / / / / / / / / / / / / / / / / / / / / / / / / / / / / / / / / / / / / / / / / / / / / / / / / / / / / / / / / / / / / / / / / ^ ^ G h < $ @ @ @ ",
"          N N N N N N N N N N N N N N N N B -.z.w.C C ;.H.~.(.`.`.`.`./.P.;.C N N N N N N N N &.{ Y ~ / / / / / / / / / / / / / / / / / / / / / / / / / / / / / / / / / / / / / / / / / / / / / / / / / / / / / / / / / / / / / / / / ^ ^ D f & $ @ @   ",
"            N N N N N N N N N N N N N N N N B C g.g.-.-.;.J.~.`.`.`.`.(.~.S.-.N N N N N N N N &.] W ~ / / / / / / / / / / / / / / / / / / / / / / / / / / / / / / / / / / / / / / / / / / / / / / / / / / / / / / / / / / / / / / / / ^ ^ F r # $ @ @   ",
"            V N N N N N N N N N N N N N N N N N -.w.g.-.-.5.H.W.(.`.`.`.(.Q.e.C N N N N N N N *.( W / / / / / / / / / / / / / / / / / / / / / / / / / / / / / / / / / / / / / / / / / / / / / / / / / / / / / / / / / / / / / / / / / ^  .S 1 # $ @ @   ",
"            C N N N N N N N N N N N N N N N N N V C >.l.9.;.;.v.Q./.`.`.`./.P.;.V N N N N N B } Y / / / / / / / / / / / / / / / / / / / / / / / / / / / / / / / / / / / / / / / / / / / / / / / / / / / / / / / / / / / / / / / / / / ^ ! a & # + @ +   ",
"              N N N N N N N N N N N N N N N N N N N V -.g.t.-.;.d.T.~./.`.(.Q.x.C N N N N B *.' W / / / / / / / / / / / / / / / / / / / / / / / / / / / / / / / / / / / / / / / / / / / / / / / / / / / / / / / / / / / / / / / / / / ^ L w # @ @ @     ",
"              N N N N N N N N N N N N N N N N N N N N B V w.z.9.;.7.v.R.~./.W.H.-.N N N N &.3.R W / / / / / / / / / / / / / / / / / / / / / / / / / / / / / / / / / / / / / / / / / / / / / / / / / / / / / / / / / / / / / / / / / / ^ H > $ @ @ +     ",
"                V N N N N N N N N N N N N N N N N N N N N V :.g.k.9.;.i.G.R.R.x.C N N N N *.[ Y ~ / / / / / / / / / / / / / / / / / / / / / / / / / / / / / / / / / / / / / / / / / / / / / / / / / / / / / / / / / / / / / / / / / / ~ y # $ @ +       ",
"                -.N N N N N N N N N N N N N N N N N N N N N N V C t.j.h.a.r.r.-.N N N N B 1.Y ~ / / / / / / / / / / / / / / / / / / / / / / / / / / / / / / / / / / / / / / / / / / / / / / / / / / / / / / / / / / / / / / / / / ^ ^ J & $ @ @ @       ",
"                  N N N N N N N N N N N N N N N N N N N N N N N N V C -.C V V N N N N B *.( W / / / / / / / / / / / / / / / / / / / / / / / / / / / / / / / / / / / / / / / / / / / / / / / / / / / / / / / / / / / / / / / / ^ ^ o.o.> # @ @ @         ",
"                    N N N N N N N N N N N N N N N N N N N N N N N N N N N N N N N N B *.[ Y ~ ^ ^ ^ ^ ^ ^ / / / / / / / / ^ ~ ^ ^ ^ ^ ^ ^ ^ ^ ^ ^ ^ ^ ^ ^ ^ ^ ^ ^ ^ ^ ^ ^ ^ ^ ^ ^ ^ ^ ^ ^ ^ ^ ^ ^ ^ ^ ^ ^ ^ ^ / / ^ ^ ^ ^ X.+.#.C.V.e # $ @ @ @         ",
"                    V N N N N N N N N N N N N N N N N N N N N N N N N N N N N N N B -.6.$.%.%.N.N.N.N.N.N.N.@.@.@.@.@.@.N.N.N.N.N.N.N.N.N.N.N.N.B.B.B.B.B.V.C.C.C.C.C.C.C.C.C.C.C.C.C.C.C.C.C.C.C.C.C.C.C.V.B.N.@.M.N.V.C.A.A.A.O.8 # @ @ @ @           ",
"                      N N N N N N N N N N N N N N N N N N N N N N N N N N N N N N -.6.q.Z.A.A.A.A.A.A.A.A.A.A.A.A.A.A.A.A.A.A.A.A.A.A.A.A.A.A.A.A.A.A.A.A.A.A.A.A.A.A.A.A.A.A.A.A.A.A.A.A.A.A.A.A.A.A.A.A.A.A.A.A.A.A.A.Z.) H 4 $ # @ @ @ @             ",
"                        B N N N N N N N N N N N N N N N N N N N N N N N N N N V -.x 9 0 p g g g g g g g g g g g g g g g g g g g g g g g g g g g g g g g g g g g g g g g g g g g g g g g g g g g g g g g p p p p r 8 4 * # # $ @ @ @ @ @ +               ",
"                            N N N N N N N N N N N N N N N N N N N N N N N N C ;.z o O @ @ $ $ $ $ $ $ $ $ $ $ $ $ $ $ $ $ $ $ $ $ $ $ $ $ $ $ $ $ $ $ $ $ $ $ $ $ $ $ $ $ $ $ $ $ $ $ $ $ $ $ $ $ # # # # # # # # # # @ @ @ @ @ @ @ @ @                 ",
"                              V V N N N N N N N N N N N N N N N N N N N B -.n ; X O @ @ @ @ @ @ @ @ @ @ @ @ @ @ @ @ @ @ @ @ @ @ @ @ @ @ @ @ @ @ @ @ @ @ @ @ @ @ @ @ @ @ @ @ @ @ @ @ @ @ @ @ @ @ @ @ @ @ @ @ @ @ @ @ @ @ @ @ @ @ @ @                     ",
"                                  N N N N N N N N N N N N N N N N N N B m l . O O O @ @ @ @ @ @ @ @ @ @ @ @ @ @ @ @ @ @ @ @ @ @ @ @ @ @ @ @ @ @ @ @ @ @ @ @ @ @ @ @ @ @ @ @ @ @ @ @ @ @ @ @ @ @ @ @ @ @ @ @ @ @ @ @ @ @ @ @ @ @                         ",
"                                      C N N N N N N N N N N N N N B -.                        @ @ @     @ @ @ @ @ @ @ @ @ @ @ @ @ @ @ @ @ @ @ @ @ @ @ @ @ @ @ @       @ @ @ @ @     @ @ @ @     @ @ @                                                   ",
"                                            N N N N N N N N N N                                                                                                                                                                                         ",
"                                                                                                                                                                                                                                                        ",
"                                                                                                                                                                                                                                                        ",
"                                                                                                                                                                                                                                                        ",
"                                                                                                                                                                                                                                                        ",
"                                                                                                                                                                                                                                                        ",
"                                                                                                                                                                                                                                                        ",
"                                                                                                                                                                                                                                                        "
};
