/* XPM */
static char *result[] = {
/* columns rows colors chars-per-pixel */
"60 60 88 1 ",
"  c #31281F",
". c #352C23",
"X c #392E25",
"o c #3A3027",
"O c #3D332A",
"+ c #41362D",
"@ c #43382F",
"# c #453B31",
"$ c #493E34",
"% c #4B4136",
"& c #4E4339",
"* c #51463C",
"= c #55493E",
"- c #584B3F",
"; c #564B41",
": c #594E43",
"> c #5D5146",
", c #5E5449",
"< c #605347",
"1 c #61554A",
"2 c #65594D",
"3 c #695C4E",
"4 c #675C50",
"5 c #6A5E52",
"6 c #6D6155",
"7 c #6E6459",
"8 c #716456",
"9 c #72665A",
"0 c #75695D",
"q c #7A6C5E",
"w c #776D60",
"e c #7B6E61",
"r c #7E7164",
"t c #827465",
"y c #877867",
"u c #887867",
"i c #847669",
"p c #86796B",
"a c #8A7C6D",
"s c #8D7E71",
"d c #8F806F",
"f c #91816E",
"g c #8F8072",
"h c #938474",
"j c #988774",
"k c #978877",
"l c #9A8976",
"z c #968678",
"x c #97887A",
"c c #9B8B7B",
"v c #A08F7D",
"b c #A2917F",
"n c #9D8E81",
"m c #A49382",
"M c #A99784",
"N c #AB9986",
"B c #A79689",
"V c #A89788",
"C c #AC9B8B",
"Z c #B19E8A",
"A c #AF9E90",
"S c #B09F91",
"D c #B5A28C",
"F c #B9A68E",
"G c #BBA88F",
"H c #B5A393",
"J c #B9A692",
"K c #BDAA93",
"L c #B6A598",
"P c #B8A699",
"I c #BDAB9A",
"U c #C1AD95",
"Y c #C2AE9A",
"T c #C4B097",
"R c #C5B29B",
"E c #C8B59E",
"W c #C1AFA0",
"Q c #C5B3A3",
"! c #CAB6A2",
"~ c #CDB9A5",
"^ c #C8B6A8",
"/ c #CEBBA9",
"( c #D1BEAC",
") c #D2BFB0",
"_ c #D3C0AE",
"` c #D5C2B2",
"' c #D9C6B6",
"] c #DCC9BA",
/* pixels */
"qpe<o9Y0$1$.=wet5=Xo=:+3M=+#+.$t9263>&XX%:,,:;#0t<#$$+5u*&55",
"YRRUx532P/I0MRJHUSs<vv8*s3jSj+eRRII!QWh=eDKKKYS43cSZSCmmspUY",
"ZDFKUUa<~UUStsuttvZp**3st$pmtX5MMMNCKR~L6tmMMCZ1c!TUUY!((MuN",
"pzlbMZM0YNvM<@5;#=pt=<Q(El2$XXtsdgghcNFRP4wrie=XqZZMvmMMDZ<:",
"$7tsai30stpa19/KM=$tCtEZZZv$ .$:,,0wagxMU6+;4ept<3asszzzcc= ",
"0::<&O=nvs8$$mSmv= :s:ssait*$+.+O.#400pxt:sZY((!H;+;58w095$5",
"QIz1@sI(~~W3aSza5iss1.#=**$:N-<mVr#O;222@5/~KDZZZ<.o.+##X.e!",
"DDUU0lUFZZUblsw4s!!(v+.$:;#$s$uFKRLxzggBz3Nbcxzxs:xBa@.4e$3N",
"szvNq<vvczs8wxs4nZNMN6:HUHZz2oecmCJY^!!QYuerrww73v(~~q*I!b::",
"*9q4#@0ipw$+xZCj:5tust=zncnm*.*epshccbmvct#>ii;#lYUZmt1UKGq.",
"O50$..$:=#..@*2>3e$$:$.@20t5$sto&,,5rpssg8zR/`l;KFblh06Zbvt+",
"s!YM&.$x9O+5z1.;HK33Vt..@*$O$tq@Oo.o$456;2ITKKF,jzae8*0cjs8+",
"KZvq&5<vs$a`]Qt388$tv59zSKm9t+-VIm9O.o*e1aFCmmmr=85=+.$44>:z",
"ch7&$5$**$S)!/(/x$X8q=KYHNmmb*Z((_(Bsm0+Oqckzchg:304:$XX+XqY",
"9;;N<.O$88ZRKGGURte)(03aasa54*ZUKKUTR/~eo@1errr7+.s(/IBBHs5i",
"1;$h1@cn=OcKmvcvvsS)!V$@$::o.XjKFFFDFGUK3o>:,,:#.<YYUY!((Y>+",
")/s$o;mz=ocMzzcxzemQUGf@Oes8o.1vcccccbmNd>m-@rzg=-NMNNNmMN1t",
"!RReoO;;oOkcxczhu14KCmvqw)(Y89;9gxzxzzxh:o6yS~!Ev#4hzzzzs9&C",
"KNMM>.pQ6.6gsaie6$@scxxhH!UUavp+$1errii2.,Q(EKJDb<X*490750=m",
"vccz4$Y]Q6&70971$..5sssweUUUu$=1:.=697,ooB~KDMvch5.X:e:o9Rrq",
"ihpe==KT~CO#&*hMcq:*9ww,8ZMMt <UM&75%1%1*HFMczgre4.X:a9.1c6@",
",65:o@NKKKg& &zjvVZ:>75&avzl8#$8w:cp@q,Fqjmzgr075**xCZMne2&X",
"XooO:=fmMNDc+.#=<;;o1t1+plvl9jv@OO202-+5>;q06>#+o.t~EEEE~D$.",
"#&O;cqpckzcc&:CYYn027<@&tass8-8<yMRQEJ5...X+$#ah;+jNNNNZDD3.",
"A^H,#O8shzgeOrFZDUY!~a.$89w94OonEKJJGTjO.O1cIaah2o3yppsspa;+",
"~Q~I*.,wwe7615cjzcvMZD3X;ww95OOhmmbbbbaO#n(//(C9&XX%>>;%%#oe",
"JFFEc&@,2:+3c1szzjxzzciO+5ww9z27ripirr:+z_TGGKRIH8XX&4,$++X3",
"yccMJC9&X.$56+%19eert8:is*;&$ae#%:41=#2gMUGDZDNMm0o0KQYHDZp@",
"#9gcxMJM<OM`Qs#.#>4:&oX8t@ .$3*oqbJJ3ofuaFNczgai1O+NKJFFFJD*",
"#51rghhh:+H/!~C>OaIs+5sze1:&>aqOqzhs8@r>+*122,-#oo+jmccccca&",
"5C2$1655=#jKFDFDcqf55/((/(/I=X+;sxcs:O&oo2yt0<..*cp100ert0:X",
"=:%,r5OgC8qccccccqO#NYGGGDDUq*-mEYREIk6=@ebt1%+%>fc%ooO+++X*",
"Ie.O&qq:=&5errree:.+kMcvccxbe66jMbvMCJUK0.$15pSQC8=o.>paeO>W",
"'/0.q_(L*.#&>:;&%fa$1pasgasp5O&26rppdxbDjou~!!EYEEq.+L]'^&4`",
"RTY4>jK!Ht$#ww# X0k>X$*:>54,#.X<>&:26erq=ONTFDCNCCc%&R~YM+&L",
"KKKJ:$kMJUJ8+O,w,>2+. ..O0e=&2#um>..+#@o&+0bkhptrir%xEFNtXOj",
"mmND0XqkcMKCO3QRRR^Be41+.%a0rZ<1x0$+@O @CuO&=*&-,,>=IFmg-.*b",
"zzxc> @0pacc#hUUGKKT!R~io7'Q>&:Q(/WZLA2&pqO.X$,% 3DtMMs9;s1h",
"rer01e@%2605o3jccvcvvmmj%z~Tu.2RKFJDZCb1=rqinI_Lt-3:yaw4pRt6",
"507#-N3.oO3t&XO$,46996:++NFDaa3lxzhgsi9&c~QRRRKFCpO.2e7*qk3+",
"+$#.o&$X.OvKtoo...oO6zp:&Mvh3p&1854,:&OOMDNmcxxhfr+.$;$X==+.",
"...#eALhpq:2;5Cxh2O.1cN3=hs3oO6KZ:..X**O8sr952;:>$&5X+:>:=+.",
"X;hH^!YIYI0Xh~^!!EMe*#%o&7>#q53ae5;.$ND8X+O;cca$ +bb>VRYYIm&",
"+MRFMbhsah8omTFDCFKKJmtoo#.$jao&i^Qs#,g5...:lat:@+q53FZNbMb-",
".9zae5:#$&+XjDmcxzxcvCuX.O;,#+<P^RT~B=#+.&nCmcCIPa++*599006O",
".O*;4<+@8q:@8pptrerrtt=X:C/(h+mEKGGKUHq@Xz_~!!TYUv+$8:..O##o",
"....;<+p`RKv>@#%&*;:;@.4^~QTb*JDmmvcbbk&ohKFZNNMh- *issr=fmt",
"7ssp8;O$zKFCc7o.X0p>o.2I~FCM9@Nbhpre06,*o:cczsaw$OqH/~Q/Kadq",
"(~!~(Qmr:8ssr5o.X>qq@&Y!Dcca=$501&$#ooOc8.&607,O.0!KCMmMN3+c",
"UKDDDDKYKa&*;,9azt1$X$NNxsr=6C-....O42#166i5=#o.o>hxhyir6+@H",
"Nvzhgghhxj@:C^QETUDc<@8007=.&q*@:25m~!z&v!!RCr+%mCt&&&&%>@+l",
"t061::,11*oM/YFNMmccq0!Z8#OtaO*H^RRRKDFzdFDJKKyr/~/s#..,Kb*q",
"$+XX#$X.oooiJMczhspe;*vviO:!N+6!UJDMvczs,hkccbaqJFFYHm9$ta#+",
"vu#2CNr+Opi:8522;;;$.@::=O%btO%fkzstq75,O>qry061tgzcmCNt++2c",
"8u&&et1OO*3+..0Zp#.+8HWIFM<*#6t:+@@OO#&#..%:=orh+$170er>..+:",
":>&$957mCx2O..2jz&*A(!YUUGv-o*7>@$;0mPQHrO0-..:e=>86:#OX&0q5",
"!!Is&Xh~EEUv7=@&$OM)UFDCbccrX.%gPIR^ETKDb:&=ccLQ^~/^N@ 3R/(/",
"ZZZN8XqNNNMNNcaq@#cCbxhggar6:%a~UKFNbsqer= q~UKFDNMke*@0KJDD",
"eee:tt:0eiuerw74&8:8t959962%kl3ljpte38pqDsO*ppssai9*Otm=6ypt",
"++O.5p@O$%&&##+oO5$8q&;u6OX.=6OO++OoXqN2:*XXO#*-:&O..*e%.O++"
};
